<?xml version="1.0" encoding="UTF-8"?>
<!DOCTYPE svg PUBLIC "-//W3C//DTD SVG 1.1//EN" "http://www.w3.org/Graphics/SVG/1.1/DTD/svg11.dtd">
<!-- Creator: CorelDRAW 2020 (64-Bit) -->
<svg xmlns="http://www.w3.org/2000/svg" xml:space="preserve" width="153.87mm" height="55.4059mm" version="1.1" style="shape-rendering:geometricPrecision; text-rendering:geometricPrecision; image-rendering:optimizeQuality; fill-rule:evenodd; clip-rule:evenodd"
viewBox="0 0 7533.57 2712.7"
 xmlns:xlink="http://www.w3.org/1999/xlink"
 xmlns:xodm="http://www.corel.com/coreldraw/odm/2003">
 <defs>
  <style type="text/css">
   <![CDATA[
    .fil2 {fill:#F4EB28}
    .fil3 {fill:white}
    .fil7 {fill:aqua;fill-rule:nonzero}
    .fil6 {fill:yellow;fill-rule:nonzero}
    .fil4 {fill:white;fill-rule:nonzero}
    .fil5 {fill:url(#id0)}
    .fil1 {fill:url(#id1)}
    .fil8 {fill:url(#id2)}
    .fil9 {fill:url(#id3)}
    .fil0 {fill:url(#id4)}
   ]]>
  </style>
  <linearGradient id="id0" gradientUnits="userSpaceOnUse" x1="829.6" y1="1898.55" x2="2335.02" y2="1915.69">
   <stop offset="0" style="stop-opacity:1; stop-color:#F58634"/>
   <stop offset="0.14902" style="stop-opacity:1; stop-color:#FAC21A"/>
   <stop offset="0.6" style="stop-opacity:1; stop-color:yellow"/>
   <stop offset="1" style="stop-opacity:1; stop-color:white"/>
  </linearGradient>
  <linearGradient id="id1" gradientUnits="userSpaceOnUse" x1="-9.1" y1="2203.37" x2="3771" y2="2306.99">
   <stop offset="0" style="stop-opacity:1; stop-color:#F58634"/>
   <stop offset="0.14902" style="stop-opacity:1; stop-color:#FAC21A"/>
   <stop offset="0.6" style="stop-opacity:1; stop-color:yellow"/>
   <stop offset="1" style="stop-opacity:1; stop-color:aqua"/>
  </linearGradient>
  <radialGradient id="id2" gradientUnits="userSpaceOnUse" gradientTransform="matrix(0.775384 1.3429 -1.3429 0.775384 2270 -4367)" cx="3438.74" cy="1115.53" r="59.03" fx="3438.74" fy="1115.53">
   <stop offset="0" style="stop-opacity:1; stop-color:white"/>
   <stop offset="0.4" style="stop-opacity:1; stop-color:yellow"/>
   <stop offset="0.85098" style="stop-opacity:1; stop-color:#FAC21A"/>
   <stop offset="1" style="stop-opacity:1; stop-color:#F58634"/>
  </radialGradient>
  <radialGradient id="id3" gradientUnits="userSpaceOnUse" gradientTransform="matrix(0.775442 1.343 -1.343 0.775442 971 -1811)" xlink:href="#id2" cx="1429.05" cy="483.84" r="48.45" fx="1429.05" fy="483.84">
  </radialGradient>
  <radialGradient id="id4" gradientUnits="userSpaceOnUse" gradientTransform="matrix(0.775409 1.32928 -1.34296 0.767526 2220 -4305)" xlink:href="#id2" cx="3427.48" cy="1079.78" r="151.94" fx="3427.48" fy="1079.78">
  </radialGradient>
 </defs>
 <g id="Capa_x0020_1">
  <metadata id="CorelCorpID_0Corel-Layer"/>
  <g id="_2620822058112">
   <polygon class="fil0" points="3445.89,888.37 3458.66,1077.48 3571.64,925.29 3480.14,1091.28 3657.46,1024.34 3490.75,1114.51 3676.11,1154.06 3487.11,1139.78 3621.67,1273.27 3470.39,1159.07 3511.42,1344.12 3445.89,1166.27 3380.37,1344.12 3421.39,1159.07 3270.12,1273.27 3404.67,1139.78 3215.68,1154.06 3401.04,1114.51 3234.33,1024.34 3411.65,1091.28 3320.15,925.29 3433.13,1077.48 "/>
   <path class="fil1" d="M210.25 264.5c0,0 215.91,462.02 803.16,643.38 587.25,181.36 932.7,535.44 928.38,898.16 -4.32,362.72 -172.72,643.39 -172.72,643.39 -1.42,2.53 -3.07,4.97 -4.59,7.47 -481.33,-82.7 -982.59,-343.66 -1390.11,-948.78 362.08,612.89 832.6,903.8 1297.04,1020.67 8.45,1.93 16.86,3.93 25.41,5.75l-0.71 0.57c902.22,215.22 1773.8,-218.26 1773.8,-218.26 -636.95,382.99 -2599.81,640.51 -3179.78,34.06 -120.35,-125.84 -211.8,-290.2 -253.58,-498.87 -91.26,-455.78 -3.46,-1044.31 173.71,-1587.54z"/>
   <path class="fil2" d="M2408.75 2620.5c17.87,-6.58 1,4.19 8.43,-14.08l-26.59 12.18c0.63,0.21 -1.17,9.02 18.16,1.9zm377.62 -628.74c-82.48,102.98 -268.69,364.07 -343.1,464.92 0,0 6.25,1.8 12,5.49 4.63,-8.85 4.83,-10.51 24.4,-16.95 55.63,31 -30.45,53.98 -46.83,61.2 27.72,7.95 28.73,-0.15 40.03,42.42 17.19,64.69 10.12,31.5 28.46,59.35l56.65 -8.71c8.4,-36.13 21.49,-30.55 30.12,-64.66 -1.09,-0.85 -2.84,-1.66 -3.56,-2.1l-20.49 -34.55c17.82,4.7 14.48,11.07 28.95,13.58 -5.78,-102.22 62.4,-76.56 77.92,-60.29 29.14,30.55 10.31,11.04 44.9,27.05 -2.63,46.45 -28.07,21.97 -50.63,49.39 -2.45,24.75 7.92,21.77 9.98,49.75 14.91,-1.74 30.3,-3.85 46.08,-6.28 -6.97,2.14 -14.32,4.19 -22.11,6.12 -173.89,43.2 -524.41,66.09 -524.41,66.09l-21.53 -4.69c-19.65,-118.19 -89.75,-155.6 -32.37,-317.62l-21.72 -26.42 -43.73 6.29c3.17,-4.33 3.03,-4.21 8.89,-10.05 28.8,-28.7 22.72,-9.45 21.98,-71.53l70.08 -23.84c44.97,35.71 13.92,25.49 62.4,31.9 5.23,0.69 19.7,3.87 23.82,7.46l-49.05 19.66c2.64,8.38 26.02,39.15 4.14,65.87l-15.5 11.1c7.23,38.55 16.25,36.53 36.12,66.67 17.7,26.84 17.94,52.24 32.77,75.14 24.82,2.28 53.41,-5.57 78.4,-10.81 64.76,-13.57 41.61,-11.32 68.53,-27.28l30.71 -13.45c87.14,-105.77 253.85,-318.88 357.7,-430.24zm-402.07 517.05l-14.39 23.86 45.11 -21.51 -30.71 -2.35zm-107.01 64.5c11.4,-4.48 49.8,-20.27 57.6,-25.94 8.71,-6.34 19.33,-27.78 26.64,-34.93l-86.49 34.82 2.25 26.05z"/>
   <path class="fil3" d="M1096.07 2200.86l49.84 29.88 45.36 -75.67 -49.84 -29.88 -45.36 75.67zm67.29 40.33l67.29 40.33 45.35 -75.67 -67.29 -40.33 -45.36 75.67zm121.34 -49.84l8.96 -14.95c16.88,-28.16 7.65,-65.01 -20.51,-81.89l-16.09 -9.64 -39.65 66.16 67.29 40.33zm-45.08 -116.94l-6.29 -3.77c-23.95,-14.36 -55.3,-6.51 -69.66,17.44l-13.55 22.61 49.84 29.88 39.65 -66.16z"/>
   <polygon class="fil4" points="978.87,2136.47 1331.55,1961.04 1336.16,2023.05 1327.74,2023.67 1324.07,1974.16 986.81,2141.93 "/>
   <path class="fil3" d="M770.89 1969.71l18.66 18c5.29,4.67 10.58,9.32 15.88,13.9l48.84 -50.64 -33.84 -32.64 -49.54 51.37zm96.09 83.2l44.81 -46.46 -45.68 -44.05 -48.17 49.94c16.28,13.88 32.63,27.42 49.04,40.57zm54.3 -56.3l9.79 -10.15c18.44,-19.12 17.88,-49.85 -1.23,-68.29l-10.92 -10.53 -43.32 44.91 45.68 44.06zm-14.21 -100.39l-4.27 -4.12c-16.26,-15.68 -42.39,-15.21 -58.08,1.05l-14.8 15.35 33.84 32.63 43.32 -44.91z"/>
   <polygon class="fil4" points="692.78,1896.99 1000.21,1823.63 992.54,1873.35 985.79,1872.31 991.92,1832.61 698.47,1902.63 "/>
   <path class="fil3" d="M579.7 1776.19l39.43 -32.03 -22.64 -27.87 -40.24 32.69c7.79,9.18 15.61,18.24 23.45,27.22zm40.78 45.52l37.14 -30.17 -30.57 -37.63 -39.07 31.74c10.79,12.22 21.62,24.23 32.5,36.06zm45.25 -36.76l8.36 -6.79c15.75,-12.79 18.16,-36.15 5.37,-51.89l-7.3 -8.99 -36.99 30.05 30.57 37.63zm-1.5 -77.44l-2.86 -3.52c-10.88,-13.4 -30.74,-15.45 -44.13,-4.57l-12.64 10.27 22.64 27.87 36.99 -30.05z"/>
   <polygon class="fil4" points="505.96,1687.81 741.56,1661.07 731.15,1698.07 726.13,1696.65 734.44,1667.12 509.77,1692.62 "/>
   <path class="fil5" d="M1804.44 0c0,0 -152.15,463.84 159.16,968.83 311.31,505 327.59,976.13 79.8,1228.57 -56.48,57.54 -116.38,106.58 -175.21,148.04 66.34,-173.44 104.62,-372.58 106.6,-538.75 2.94,-247.19 -118.6,-465.99 -291.26,-635.72 -204.9,-201.43 -480.28,-336.67 -752.45,-420.72 -33.03,-10.2 -65.52,-21.65 -97.4,-34.32 253.66,-269.32 602.47,-517.13 970.75,-715.93z"/>
   <path class="fil6" d="M2214.72 861.92c0,-8.97 2.81,-18.8 8.42,-29.45 5.61,-10.66 12.62,-21.04 21.04,-31.14 8.42,-10.1 17.4,-18.52 26.93,-25.25 9.54,-6.73 18.8,-10.1 27.77,-10.1 12.34,0 24.97,6.17 37.87,18.51 12.91,12.34 23.85,23.01 32.82,31.98 17.95,19.07 33.94,38.99 47.97,59.75 14.03,20.76 27.77,42.36 41.24,64.8 63.96,106.6 116.98,217.97 159.06,334.11 42.08,116.14 76.03,234.8 101.83,355.99 8.97,-30.3 21.04,-59.47 36.19,-87.53 15.15,-28.05 30.58,-56.1 46.29,-84.16 29.18,-53.86 58.63,-106.88 88.37,-159.06 29.73,-52.18 59.75,-104.64 90.05,-157.38 33.67,-58.35 67.89,-118.1 102.67,-179.26 34.79,-61.16 70.69,-119.79 107.72,-175.89 3.37,-5.61 7.57,-12.06 12.63,-19.36 5.05,-7.29 10.66,-14.59 16.83,-21.88 6.17,-7.3 12.34,-13.46 18.52,-18.52 6.17,-5.05 12.62,-7.57 19.35,-7.57 12.35,0 24.13,4.77 35.35,14.31 11.22,9.54 16.83,20.48 16.83,32.82 0,5.61 -1.96,10.94 -5.89,15.99 -3.93,5.05 -7.57,9.82 -10.94,14.31 -32.54,40.4 -61.44,83.32 -86.68,128.77 -25.25,45.45 -50.78,90.61 -76.58,135.49 -48.25,83.04 -95.38,166.36 -141.39,249.95 -46.01,83.6 -91.45,167.48 -136.34,251.64 -8.98,16.83 -19.07,35.34 -30.3,55.55 -11.22,20.2 -22.44,40.96 -33.67,62.28 -11.22,21.32 -21.6,42.36 -31.14,63.11 -9.54,20.76 -16.55,39.56 -21.04,56.39 -4.49,14.59 -7.57,28.33 -9.26,41.24 -1.68,12.9 -4.77,23.84 -9.26,32.82 -4.49,8.97 -11.5,16.27 -21.04,21.88 -9.54,5.61 -24.41,8.42 -44.6,8.42 -13.47,0 -23.56,-3.37 -30.3,-10.1 -6.73,-6.73 -11.78,-15.15 -15.15,-25.25 -3.36,-10.1 -5.33,-20.76 -5.89,-31.98 -0.56,-11.22 -1.96,-21.32 -4.21,-30.3 -20.2,-125.68 -53.02,-251.92 -98.47,-378.71 -45.45,-126.8 -96.78,-247.43 -154.01,-361.88 -13.46,-25.81 -27.49,-52.18 -42.08,-79.11 -14.59,-26.93 -31.42,-51.62 -50.5,-74.06 -5.61,-5.61 -13.19,-13.74 -22.72,-24.4 -9.54,-10.66 -14.31,-19.92 -14.31,-27.78z"/>
   <path class="fil6" d="M3391.26 1671.53c0,-51.62 5.05,-101.55 15.15,-149.8 3.36,-12.34 7.85,-26.65 13.46,-42.92 5.61,-16.27 11.22,-32.54 16.83,-48.81 5.61,-16.27 10.38,-31.98 14.31,-47.13 3.93,-15.15 5.89,-28.33 5.89,-39.56 0,-24.69 -12.9,-37.03 -38.71,-37.03 -35.91,0 -62.56,10.38 -79.95,31.14 -17.4,20.76 -31.14,46.29 -41.24,76.58 -8.98,29.18 -17.11,63.12 -24.41,101.83 -7.3,38.71 -10.94,73.78 -10.94,105.2 0,24.69 1.68,53.58 5.05,86.68 3.36,33.1 10.66,64.52 21.88,94.26 11.22,29.74 26.65,54.98 46.29,75.74 19.64,20.76 46.29,31.14 79.95,31.14 30.3,0 61.15,-9.82 92.57,-29.45 31.42,-19.64 61.99,-43.48 91.73,-71.54 29.73,-28.05 56.95,-57.51 81.63,-88.36 24.69,-30.86 44.89,-57.51 60.6,-79.95 3.36,-4.49 7.57,-10.38 12.62,-17.67 5.05,-7.3 10.1,-15.15 15.15,-23.56 5.05,-8.42 9.26,-16.55 12.62,-24.41 3.37,-7.85 5.05,-14.59 5.05,-20.2 0,-8.97 -0.84,-17.39 -2.53,-25.25 -1.68,-7.85 -8.14,-11.78 -19.35,-11.78 -11.22,0 -20.48,5.05 -27.78,15.15 -7.3,10.1 -13.74,19.07 -19.35,26.93 -11.22,17.95 -27.21,42.08 -47.97,72.38 -20.76,30.3 -43.77,59.75 -69.01,88.37 -25.25,28.61 -51.06,53.3 -77.43,74.06 -26.37,20.76 -50.78,31.14 -73.22,31.14 -14.59,0 -25.81,-6.17 -33.67,-18.52 -7.85,-12.34 -13.74,-26.93 -17.67,-43.76 -3.93,-16.83 -6.17,-33.67 -6.73,-50.49 -0.56,-16.83 -0.84,-30.3 -0.84,-40.4zm67.33 -622.78c-22.44,0 -41.24,9.54 -56.39,28.61 -15.15,19.08 -22.72,39.28 -22.72,60.6 0,16.83 5.05,31.7 15.15,44.6 10.1,12.91 24.13,19.35 42.08,19.35 22.44,0 41.52,-9.25 57.22,-27.77 15.71,-18.52 23.56,-38.99 23.56,-61.44 0,-16.83 -5.33,-31.7 -15.99,-44.6 -10.66,-12.91 -24.97,-19.36 -42.92,-19.36z"/>
   <path class="fil6" d="M3938.29 1319.75c13.47,32.54 29.18,65.08 47.13,97.63 17.95,32.54 35.35,65.36 52.18,98.46 16.83,33.1 30.86,67.05 42.08,101.83 11.22,34.79 16.83,70.13 16.83,106.04 0,22.44 -3.08,44.89 -9.26,67.33 -6.17,22.44 -15.99,43.2 -29.45,62.28 20.2,1.13 43.76,-7.57 70.69,-26.09 26.93,-18.52 53.86,-40.4 80.79,-65.65 26.93,-25.25 51.62,-51.06 74.06,-77.43 22.44,-26.37 38.71,-47.41 48.81,-63.12 5.61,-7.85 12.34,-17.11 20.2,-27.77 7.85,-10.66 17.39,-15.99 28.61,-15.99 10.1,0 16.83,3.37 20.2,10.1 3.36,6.73 5.05,14.59 5.05,23.56 0,5.61 -1.96,11.5 -5.89,17.67 -3.93,6.17 -7.02,12.06 -9.26,17.67 -31.42,49.37 -64.52,93.7 -99.31,132.97 -34.79,39.28 -72.66,72.38 -113.62,99.31 -40.96,26.93 -86.4,47.41 -136.34,61.44 -49.93,14.03 -105.2,21.04 -165.79,21.04 -32.54,0 -67.6,-3.36 -105.2,-10.1 -37.59,-6.73 -68.73,-21.88 -93.42,-45.45 -5.61,-5.61 -10.1,-11.22 -13.46,-16.83 -3.37,-5.61 -5.05,-12.34 -5.05,-20.2 0,-16.83 8.98,-25.24 26.93,-25.24 6.73,0 12.06,1.12 15.99,3.36 3.93,2.25 8.7,5.05 14.31,8.42 19.07,12.34 38.15,20.76 57.23,25.25 19.07,4.49 39.83,6.73 62.28,6.73 44.88,0 78.83,-13.75 101.83,-41.24 23.01,-27.49 34.51,-62.56 34.51,-105.2 0,-25.81 -3.65,-53.3 -10.94,-82.47 -7.29,-29.18 -16.55,-58.35 -27.77,-87.53 -11.22,-29.18 -23.84,-57.51 -37.87,-85 -14.03,-27.49 -27.78,-51.34 -41.24,-71.54 -7.85,22.44 -17.67,47.41 -29.45,74.9 -11.78,27.49 -24.97,54.7 -39.56,81.64 -14.59,26.93 -30.02,52.74 -46.29,77.43 -16.27,24.69 -32.82,45.45 -49.66,62.28 -5.61,5.61 -12.06,11.5 -19.35,17.67 -7.3,6.17 -15.43,9.25 -24.41,9.25 -15.71,0 -23.56,-7.85 -23.56,-23.56 0,-8.97 1.96,-16.83 5.89,-23.56 3.93,-6.73 8.7,-13.46 14.31,-20.2 76.3,-95.38 133.53,-202.54 171.68,-321.49 -10.1,-29.17 -15.15,-58.91 -15.15,-89.21 0,-16.83 2.81,-36.47 8.42,-58.91 5.61,-22.44 13.46,-43.77 23.56,-63.96 10.1,-20.2 23.01,-37.59 38.71,-52.18 15.71,-14.59 33.67,-21.89 53.86,-21.89 10.1,0 18.8,3.09 26.09,9.26 7.3,6.17 12.91,14.03 16.83,23.56 3.93,9.54 6.73,19.36 8.42,29.45 1.68,10.1 2.52,19.64 2.52,28.62 0,28.05 -3.93,56.38 -11.78,85 -7.86,28.61 -16.83,55.82 -26.93,81.63z"/>
   <path class="fil6" d="M4710.87 1074.01c6.73,-1.12 16.83,-3.37 30.3,-6.73 13.46,-3.37 27.49,-7.02 42.08,-10.94 14.59,-3.93 28.05,-7.85 40.4,-11.78 12.34,-3.93 20.76,-7.02 25.24,-9.26 6.73,-4.49 12.06,-8.7 15.99,-12.63 3.93,-3.93 5.89,-10.38 5.89,-19.35 0,-14.59 -7.85,-21.88 -23.56,-21.88 -19.08,0 -38.15,1.68 -57.23,5.05 -19.07,3.37 -38.15,6.17 -57.23,8.42 12.34,-42.64 21.6,-86.4 27.78,-131.29 6.17,-44.89 9.25,-89.21 9.25,-132.97 0,-12.34 -0.56,-27.21 -1.68,-44.6 -1.12,-17.4 -4.21,-33.94 -9.26,-49.66 -5.05,-15.71 -12.62,-29.18 -22.72,-40.4 -10.1,-11.22 -24.13,-16.83 -42.08,-16.83 -39.27,0 -74.9,17.95 -106.88,53.86 -31.98,35.91 -60.31,78.83 -85,128.76 -24.69,49.93 -45.45,100.43 -62.28,151.49 -16.83,51.06 -29.73,91.73 -38.71,122.03 -17.95,1.12 -36.75,5.05 -56.39,11.78 -19.64,6.73 -29.45,21.32 -29.45,43.77 0,26.93 13.46,40.39 40.4,40.39 12.34,0 24.12,-1.68 35.34,-5.05 -11.22,53.86 -18.8,108.56 -22.72,164.11 -3.93,55.55 -5.89,110.81 -5.89,165.79 0,21.32 1.12,47.97 3.37,79.95 2.24,31.98 6.17,65.93 11.78,101.83 5.61,35.91 13.46,71.82 23.56,107.72 10.1,35.91 22.72,68.17 37.87,96.78 15.15,28.61 33.67,51.9 55.55,69.85 21.88,17.95 47.41,26.93 76.58,26.93 33.67,0 67.89,-10.94 102.67,-32.82 34.79,-21.89 67.89,-48.53 99.31,-79.95 31.42,-31.42 60.04,-64.8 85.84,-100.15 25.81,-35.35 46.57,-66.49 62.28,-93.42 6.73,-11.22 12.91,-22.44 18.52,-33.67 5.61,-11.22 8.41,-23 8.41,-35.34 0,-6.73 -2.24,-12.63 -6.73,-17.67 -4.48,-5.05 -10.1,-7.57 -16.83,-7.57 -8.98,0 -17.4,4.49 -25.25,13.46 -7.86,8.98 -14.03,17.4 -18.52,25.25 -12.34,20.2 -28.89,45.17 -49.65,74.9 -20.76,29.74 -43.77,58.07 -69.01,85 -25.24,26.93 -51.61,50.22 -79.11,69.85 -27.49,19.64 -54.15,29.46 -79.95,29.46 -22.44,0 -40.68,-13.47 -54.7,-40.4 -14.03,-26.93 -24.69,-58.35 -31.98,-94.26 -7.3,-35.91 -12.34,-71.54 -15.15,-106.88 -2.81,-35.35 -4.21,-61.44 -4.21,-78.27 0,-4.49 0,-10.66 0,-18.52 0,-7.85 1.12,-14.03 3.36,-18.51 2.25,-5.61 5.89,-11.51 10.94,-17.67 5.05,-6.17 9.82,-12.06 14.31,-17.67 7.85,-11.22 15.71,-22.16 23.56,-32.82 7.85,-10.66 15.15,-22.16 21.88,-34.5 28.05,-46.01 54.98,-95.1 80.79,-147.28 25.81,-52.18 45.45,-104.08 58.91,-155.69zm-20.2 -410.69c4.48,0 7.85,2.24 10.1,6.73 2.25,4.49 3.93,9.54 5.05,15.15 1.12,5.61 1.68,11.22 1.68,16.83 0,5.61 0,9.54 0,11.78 0,44.89 -4.49,93.7 -13.47,146.44 -8.97,52.74 -20.2,100.43 -33.66,143.07 -22.44,5.61 -45.45,9.26 -69.01,10.94 -23.56,1.68 -46.57,4.21 -69.01,7.57 2.25,-16.83 8.7,-44.89 19.36,-84.16 10.66,-39.27 23.84,-79.39 39.56,-120.34 15.71,-40.96 33.1,-76.86 52.18,-107.72 19.07,-30.86 38.15,-46.29 57.23,-46.29zm-178.42 449.41c19.07,-5.61 38.71,-9.26 58.91,-10.94 20.2,-1.68 40.4,-4.77 60.59,-9.26 -5.61,20.2 -14.03,43.49 -25.24,69.85 -11.22,26.37 -23.85,53.3 -37.88,80.79 -14.02,27.49 -28.61,53.58 -43.76,78.27 -15.15,24.69 -28.9,44.89 -41.24,60.59 3.37,-44.88 6.45,-90.05 9.26,-135.49 2.81,-45.45 9.26,-90.05 19.36,-133.81z"/>
   <path class="fil6" d="M4875.83 1653.02c0,21.32 0.84,45.73 2.53,73.22 1.68,27.49 6.17,53.3 13.46,77.43 7.3,24.12 19.07,44.6 35.34,61.44 16.27,16.83 39.56,25.25 69.85,25.25 31.42,0 63.12,-9.82 95.1,-29.46 31.98,-19.63 62.56,-43.48 91.73,-71.53 29.18,-28.05 55.82,-57.79 79.95,-89.21 24.12,-31.42 44.6,-58.91 61.44,-82.47 -2.24,11.22 -3.37,21.88 -3.37,31.98 0,10.1 0,20.76 0,31.98 0,17.95 0.84,40.68 2.53,68.17 1.68,27.49 6.45,53.58 14.31,78.27 7.86,24.69 19.07,46 33.67,63.96 14.59,17.95 34.79,26.93 60.59,26.93 32.54,0 66.77,-12.34 102.67,-37.03 35.91,-24.69 70.69,-54.42 104.35,-89.21 33.67,-34.79 63.96,-70.97 90.9,-108.56 26.93,-37.59 47.13,-69.85 60.59,-96.78 2.24,-5.61 4.77,-11.51 7.57,-17.67 2.81,-6.17 4.21,-12.06 4.21,-17.67 0,-8.97 -1.4,-16.55 -4.21,-22.72 -2.81,-6.17 -9.26,-9.26 -19.36,-9.26 -10.1,0 -19.92,6.45 -29.45,19.36 -9.54,12.91 -17.11,23.29 -22.72,31.14 -8.97,14.59 -24.41,37.03 -46.29,67.33 -21.88,30.3 -45.72,60.88 -71.54,91.73 -25.81,30.86 -51.61,57.79 -77.43,80.79 -25.81,23 -47.13,34.5 -63.96,34.5 -11.22,0 -20.2,-4.77 -26.93,-14.31 -6.73,-9.54 -11.78,-20.76 -15.15,-33.66 -3.37,-12.91 -5.61,-26.09 -6.73,-39.56 -1.12,-13.47 -1.68,-24.13 -1.68,-31.98 0,-25.81 1.68,-54.98 5.05,-87.53 3.37,-32.54 8.14,-65.08 14.31,-97.62 6.17,-32.54 13.46,-64.52 21.88,-95.94 8.42,-31.42 17.11,-59.47 26.09,-84.16 3.37,-10.1 7.02,-20.48 10.94,-31.14 3.93,-10.66 5.89,-21.6 5.89,-32.82 0,-12.34 -3.65,-20.2 -10.94,-23.56 -7.3,-3.36 -15.99,-5.05 -26.09,-5.05 -14.59,0 -26.65,3.65 -36.19,10.94 -9.54,7.3 -17.67,16.27 -24.41,26.93 -6.73,10.66 -12.34,22.44 -16.83,35.34 -4.49,12.91 -8.98,24.41 -13.46,34.51 -6.73,16.83 -17.95,39.28 -33.67,67.33 -15.71,28.05 -33.67,58.63 -53.86,91.74 -20.2,33.1 -42.08,66.48 -65.65,100.15 -23.56,33.66 -47.41,64.24 -71.53,91.73 -24.13,27.49 -47.69,49.93 -70.69,67.33 -23.01,17.4 -44.04,26.09 -63.12,26.09 -15.71,0 -24.97,-8.42 -27.78,-25.25 -2.81,-16.83 -4.21,-30.86 -4.21,-42.08 0,-29.17 2.53,-61.15 7.57,-95.94 5.05,-34.79 11.22,-69.85 18.52,-105.2 7.29,-35.34 15.71,-69.85 25.24,-103.51 9.54,-33.67 18.8,-64.52 27.78,-92.57 2.24,-8.98 4.77,-18.24 7.57,-27.78 2.81,-9.54 4.21,-18.8 4.21,-27.77 0,-24.69 -12.9,-37.03 -38.71,-37.03 -25.81,0 -49.09,7.29 -69.85,21.88 -20.76,14.59 -35.62,34.79 -44.6,60.59 -15.71,48.25 -27.21,99.03 -34.51,152.33 -7.29,53.3 -10.94,105.2 -10.94,155.69z"/>
   <path class="fil6" d="M5937.91 1908.86c49.38,0 97.06,-8.13 143.07,-24.41 46.01,-16.27 88.65,-38.43 127.92,-66.48 39.27,-28.05 75.18,-60.88 107.72,-98.46 32.54,-37.59 60.59,-77.15 84.16,-118.67 3.36,-5.61 6.73,-11.78 10.1,-18.52 3.37,-6.73 5.05,-13.46 5.05,-20.2 0,-17.95 -8.98,-26.93 -26.93,-26.93 -11.22,0 -21.04,5.05 -29.45,15.15 -8.42,10.1 -15.43,19.64 -21.04,28.62 -17.95,30.3 -38.99,59.75 -63.12,88.36 -24.13,28.62 -50.5,53.86 -79.11,75.75 -28.61,21.88 -59.75,39.56 -93.42,53.02 -33.66,13.46 -69.01,20.2 -106.04,20.2 -24.69,0 -45.73,-5.05 -63.12,-15.15 -17.39,-10.1 -31.42,-23.56 -42.08,-40.4 -10.66,-16.83 -18.23,-35.62 -22.72,-56.38 -4.48,-20.76 -6.73,-41.8 -6.73,-63.12 0,-24.69 4.49,-57.79 13.46,-99.31 8.98,-41.52 21.89,-82.48 38.71,-122.88 16.83,-40.39 37.59,-75.18 62.28,-104.35 24.69,-29.18 52.74,-43.77 84.16,-43.77 19.07,0 30.58,7.02 34.5,21.04 3.93,14.03 5.89,28.89 5.89,44.6 0,24.69 -5.05,46.85 -15.15,66.48 -10.1,19.64 -15.15,35.63 -15.15,47.97 0,11.22 6.17,16.83 18.52,16.83 16.83,0 30.86,-5.05 42.08,-15.15 11.22,-10.1 19.64,-22.44 25.25,-37.03 5.61,-14.59 9.54,-30.02 11.78,-46.29 2.24,-16.27 3.36,-31.14 3.36,-44.6 0,-44.89 -12.06,-77.43 -36.19,-97.63 -24.13,-20.2 -57.51,-30.3 -100.15,-30.3 -50.5,0 -95.38,14.03 -134.66,42.08 -39.27,28.05 -72.37,63.11 -99.31,105.2 -26.93,42.08 -47.13,88.08 -60.59,138.02 -13.46,49.93 -20.2,96.78 -20.2,140.55 0,33.67 3.93,67.33 11.78,100.99 7.85,33.67 20.76,64.24 38.71,91.73 17.95,27.49 40.68,49.93 68.17,67.33 27.49,17.39 60.31,26.09 98.46,26.09z"/>
   <path class="fil6" d="M6348.61 1679.95c0,24.69 2.81,50.49 8.41,77.43 5.61,26.93 14.59,51.06 26.93,72.37 12.34,21.32 28.9,39 49.66,53.02 20.76,14.02 46.29,21.04 76.58,21.04 23.56,0 46.57,-4.21 69.01,-12.62 22.44,-8.42 43.2,-18.8 62.28,-31.14 32.54,-21.32 60.03,-47.13 82.47,-77.43 22.44,-30.3 40.96,-62.84 55.55,-97.63 14.59,-34.79 25.25,-70.97 31.98,-108.56 6.73,-37.59 10.1,-74.9 10.1,-111.93 0,-25.81 -2.53,-52.18 -7.57,-79.11 -5.05,-26.93 -13.47,-51.62 -25.25,-74.06 -11.78,-22.44 -27.78,-40.96 -47.97,-55.55 -20.2,-14.59 -46.01,-21.88 -77.43,-21.88 -50.49,0 -95.1,15.43 -133.81,46.29 -38.71,30.86 -71.54,68.73 -98.46,113.62 -26.93,44.88 -47.41,93.13 -61.44,144.75 -14.03,51.62 -21.04,98.75 -21.04,141.39zm314.75 -334.95c17.95,0 32.54,5.33 43.76,15.99 11.22,10.66 20.2,23.56 26.93,38.71 6.73,15.15 11.22,31.7 13.46,49.65 2.25,17.95 3.37,33.67 3.37,47.13 0,25.81 -2.25,52.46 -6.73,79.95 -4.49,27.49 -11.51,54.14 -21.04,79.95 -9.54,25.81 -21.88,50.21 -37.03,73.22 -15.15,23.01 -33.38,42.92 -54.7,59.76 -11.22,8.97 -23.29,16.55 -36.19,22.72 -12.91,6.17 -26.65,9.26 -41.24,9.26 -16.83,0 -30.86,-4.77 -42.08,-14.31 -11.22,-9.54 -19.92,-21.04 -26.09,-34.5 -6.17,-13.46 -10.38,-28.33 -12.62,-44.6 -2.25,-16.27 -3.37,-31.14 -3.37,-44.61 0,-25.81 4.21,-57.79 12.62,-95.94 8.42,-38.15 20.76,-75.18 37.03,-111.09 16.27,-35.91 36.47,-66.77 60.59,-92.57 24.12,-25.81 51.9,-38.71 83.32,-38.71z"/>
   <path class="fil6" d="M7156.53 1937.48c34.79,0 69.57,-10.94 104.36,-32.82 34.79,-21.88 67.89,-48.53 99.31,-79.95 31.42,-31.42 59.75,-65.08 85,-100.99 25.25,-35.91 46.29,-67.33 63.12,-94.26 5.61,-8.97 11.22,-18.51 16.83,-28.61 5.61,-10.1 8.42,-20.76 8.42,-31.98 0,-7.85 -1.68,-14.87 -5.05,-21.04 -3.36,-6.17 -9.54,-9.26 -18.51,-9.26 -8.98,0 -15.99,2.24 -21.04,6.73 -5.05,4.49 -9.82,10.1 -14.31,16.83 -7.85,11.22 -15.15,22.72 -21.88,34.5 -6.73,11.78 -14.03,23.29 -21.88,34.51 -11.22,15.71 -26.09,35.34 -44.6,58.91 -18.52,23.56 -38.71,46.29 -60.6,68.17 -21.88,21.88 -44.6,40.39 -68.17,55.54 -23.56,15.15 -45.45,22.73 -65.64,22.73 -23.56,0 -42.08,-10.66 -55.55,-31.98 -13.46,-21.32 -24.13,-46.57 -31.98,-75.75 -7.85,-29.17 -12.91,-58.63 -15.15,-88.36 -2.24,-29.74 -3.37,-53.02 -3.37,-69.85 0,-10.1 0.28,-22.72 0.84,-37.87 0.56,-15.15 2.53,-27.21 5.89,-36.19 2.24,-7.85 6.45,-16.27 12.62,-25.24 6.17,-8.98 11.5,-16.83 15.99,-23.56 13.46,-22.44 27.21,-44.04 41.24,-64.8 14.02,-20.76 27.21,-42.36 39.55,-64.8 25.81,-46 51.06,-98.19 75.75,-156.53 24.69,-58.35 47.13,-118.39 67.33,-180.1 20.2,-61.72 36.47,-123.43 48.81,-185.15 12.34,-61.72 18.51,-118.94 18.51,-171.68 0,-15.71 -1.68,-32.54 -5.05,-50.5 -3.37,-17.95 -8.7,-34.5 -15.99,-49.65 -7.3,-15.15 -17.39,-27.49 -30.3,-37.03 -12.91,-9.54 -29.45,-14.31 -49.66,-14.31 -24.69,0 -49.09,8.98 -73.22,26.93 -24.13,17.95 -46.57,40.11 -67.33,66.48 -20.76,26.37 -38.99,53.58 -54.7,81.64 -15.71,28.05 -28.05,52.18 -37.03,72.37 -47.13,108.85 -80.23,220.78 -99.31,335.8 -19.07,115.02 -28.61,231.44 -28.61,349.26 0,21.32 0.84,49.37 2.52,84.16 1.68,34.79 4.77,72.1 9.26,111.93 4.49,39.83 11.22,79.67 20.2,119.5 8.97,39.84 21.32,75.75 37.03,107.73 15.71,31.98 34.5,58.07 56.39,78.26 21.88,20.2 48.53,30.3 79.95,30.3zm159.9 -1383.57c6.73,0 11.78,2.53 15.15,7.57 3.36,5.05 5.89,10.94 7.57,17.67 1.68,6.73 2.52,14.03 2.52,21.88 0,6.73 0,11.78 0,15.15 0,53.86 -8.42,113.33 -25.24,178.42 -16.83,65.08 -37.87,130.45 -63.12,196.09 -25.25,65.64 -53.3,129.04 -84.16,190.2 -30.86,61.16 -59.76,114.74 -86.68,160.74 -1.12,-8.97 -1.68,-16.83 -1.68,-23.56 0,-7.85 0,-16.27 0,-25.24 0,-80.79 9.82,-165.23 29.45,-253.32 19.64,-88.08 41.24,-170.84 64.8,-248.27 4.49,-13.46 10.94,-33.66 19.35,-60.59 8.42,-26.93 18.52,-53.3 30.3,-79.11 11.78,-25.81 25.53,-48.53 41.24,-68.17 15.71,-19.64 32.54,-29.45 50.5,-29.45z"/>
   <g>
    <path class="fil7" d="M2786.37 2099.13c0,-2.21 0.68,-4.63 2.04,-7.26 1.37,-2.62 3.07,-5.18 5.12,-7.67 2.04,-2.49 4.23,-4.56 6.54,-6.22 2.32,-1.66 4.57,-2.49 6.75,-2.49 3,0 6.07,1.52 9.2,4.56 3.14,3.04 5.8,5.66 7.98,7.88 4.36,4.7 8.25,9.6 11.66,14.71 3.41,5.12 6.75,10.43 10.02,15.96 15.54,26.25 28.42,53.69 38.64,82.29 10.22,28.6 18.47,57.83 24.74,87.67 2.18,-7.46 5.11,-14.65 8.79,-21.56 3.68,-6.91 7.43,-13.82 11.25,-20.72 7.08,-13.27 14.24,-26.33 21.47,-39.17 7.23,-12.85 14.52,-25.77 21.88,-38.76 8.18,-14.37 16.49,-29.09 24.95,-44.15 8.45,-15.06 17.18,-29.5 26.17,-43.32 0.81,-1.38 1.84,-2.97 3.06,-4.76 1.23,-1.8 2.59,-3.59 4.09,-5.39 1.5,-1.8 2.99,-3.31 4.49,-4.56 1.5,-1.24 3.07,-1.87 4.71,-1.87 3,0 5.86,1.18 8.59,3.52 2.73,2.35 4.09,5.05 4.09,8.08 0,1.39 -0.48,2.7 -1.43,3.94 -0.95,1.24 -1.84,2.42 -2.66,3.52 -7.91,9.95 -14.93,20.52 -21.06,31.71 -6.13,11.19 -12.34,22.32 -18.6,33.37 -11.73,20.45 -23.18,40.97 -34.36,61.56 -11.18,20.59 -22.22,41.25 -33.12,61.97 -2.18,4.15 -4.64,8.71 -7.36,13.68 -2.73,4.97 -5.45,10.09 -8.18,15.34 -2.73,5.25 -5.25,10.43 -7.56,15.54 -2.32,5.11 -4.02,9.74 -5.11,13.89 -1.09,3.59 -1.84,6.98 -2.25,10.15 -0.41,3.18 -1.16,5.88 -2.25,8.08 -1.09,2.21 -2.8,4.01 -5.11,5.39 -2.32,1.38 -5.93,2.07 -10.84,2.07 -3.27,0 -5.72,-0.83 -7.36,-2.49 -1.64,-1.65 -2.86,-3.73 -3.68,-6.22 -0.82,-2.49 -1.3,-5.11 -1.43,-7.87 -0.14,-2.77 -0.48,-5.25 -1.02,-7.46 -4.91,-30.95 -12.89,-62.04 -23.93,-93.27 -11.04,-31.23 -23.51,-60.94 -37.42,-89.13 -3.27,-6.36 -6.68,-12.85 -10.22,-19.48 -3.54,-6.63 -7.64,-12.72 -12.27,-18.24 -1.37,-1.38 -3.21,-3.38 -5.52,-6.01 -2.32,-2.62 -3.48,-4.91 -3.48,-6.84zm285.86 199.39c0,-12.72 1.23,-25.01 3.68,-36.9 0.82,-3.04 1.91,-6.56 3.28,-10.57 1.36,-4 2.72,-8.01 4.09,-12.02 1.37,-4.01 2.52,-7.88 3.48,-11.61 0.95,-3.73 1.43,-6.98 1.43,-9.74 0,-6.08 -3.13,-9.12 -9.41,-9.12 -8.72,0 -15.2,2.56 -19.43,7.67 -4.23,5.11 -7.56,11.4 -10.02,18.86 -2.18,7.18 -4.16,15.54 -5.93,25.08 -1.78,9.53 -2.66,18.17 -2.66,25.91 0,6.08 0.41,13.19 1.23,21.35 0.81,8.15 2.59,15.89 5.32,23.21 2.72,7.32 6.47,13.54 11.24,18.65 4.77,5.12 11.25,7.67 19.43,7.67 7.36,0 14.86,-2.42 22.49,-7.26 7.64,-4.84 15.07,-10.71 22.29,-17.62 7.23,-6.91 13.83,-14.16 19.83,-21.76 6,-7.6 10.9,-14.16 14.72,-19.69 0.81,-1.11 1.84,-2.56 3.06,-4.35 1.23,-1.8 2.45,-3.73 3.68,-5.8 1.22,-2.08 2.25,-4.08 3.06,-6.01 0.82,-1.93 1.23,-3.59 1.23,-4.97 0,-2.21 -0.21,-4.28 -0.61,-6.22 -0.41,-1.93 -1.98,-2.9 -4.71,-2.9 -2.73,0 -4.98,1.24 -6.75,3.73 -1.77,2.49 -3.33,4.7 -4.7,6.63 -2.73,4.42 -6.61,10.36 -11.65,17.83 -5.04,7.46 -10.63,14.71 -16.77,21.76 -6.13,7.05 -12.41,13.13 -18.81,18.24 -6.41,5.11 -12.34,7.67 -17.79,7.67 -3.54,0 -6.27,-1.52 -8.18,-4.56 -1.9,-3.04 -3.33,-6.63 -4.29,-10.78 -0.95,-4.15 -1.5,-8.29 -1.63,-12.44 -0.14,-4.15 -0.21,-7.46 -0.21,-9.95zm16.36 -153.38c-5.45,0 -10.02,2.35 -13.7,7.05 -3.68,4.7 -5.52,9.67 -5.52,14.92 0,4.15 1.23,7.81 3.68,10.99 2.45,3.18 5.86,4.77 10.22,4.77 5.45,0 10.09,-2.28 13.9,-6.84 3.81,-4.56 5.72,-9.61 5.72,-15.13 0,-4.14 -1.29,-7.8 -3.88,-10.98 -2.59,-3.18 -6.07,-4.77 -10.43,-4.77zm116.55 66.74c3.27,8.01 7.09,16.03 11.45,24.04 4.37,8.01 8.59,16.1 12.68,24.25 4.09,8.15 7.5,16.51 10.23,25.08 2.72,8.57 4.08,17.27 4.08,26.12 0,5.53 -0.75,11.06 -2.24,16.58 -1.5,5.53 -3.89,10.64 -7.16,15.34 4.91,0.27 10.63,-1.87 17.18,-6.43 6.55,-4.56 13.08,-9.95 19.63,-16.17 6.55,-6.22 12.54,-12.57 17.99,-19.07 5.45,-6.5 9.41,-11.68 11.86,-15.54 1.36,-1.93 3,-4.22 4.91,-6.84 1.91,-2.63 4.23,-3.94 6.95,-3.94 2.45,0 4.09,0.83 4.91,2.49 0.82,1.66 1.23,3.59 1.23,5.81 0,1.38 -0.48,2.83 -1.43,4.35 -0.95,1.52 -1.7,2.97 -2.25,4.35 -7.63,12.16 -15.67,23.08 -24.13,32.74 -8.45,9.67 -17.66,17.83 -27.6,24.46 -9.95,6.63 -20.99,11.67 -33.13,15.13 -12.13,3.46 -25.56,5.18 -40.28,5.18 -7.91,0 -16.43,-0.83 -25.56,-2.49 -9.14,-1.65 -16.7,-5.39 -22.7,-11.19 -1.36,-1.38 -2.45,-2.76 -3.27,-4.14 -0.82,-1.39 -1.23,-3.04 -1.23,-4.97 0,-4.15 2.18,-6.22 6.55,-6.22 1.64,0 2.93,0.27 3.88,0.83 0.96,0.55 2.11,1.24 3.48,2.07 4.63,3.04 9.27,5.12 13.9,6.22 4.64,1.11 9.68,1.66 15.13,1.66 10.9,0 19.15,-3.38 24.74,-10.15 5.59,-6.77 8.39,-15.41 8.39,-25.91 0,-6.36 -0.89,-13.13 -2.66,-20.31 -1.77,-7.18 -4.02,-14.37 -6.75,-21.55 -2.73,-7.19 -5.8,-14.16 -9.2,-20.94 -3.41,-6.77 -6.75,-12.64 -10.02,-17.62 -1.9,5.52 -4.29,11.67 -7.15,18.44 -2.86,6.77 -6.07,13.47 -9.61,20.11 -3.54,6.63 -7.3,12.99 -11.25,19.07 -3.96,6.08 -7.98,11.19 -12.06,15.34 -1.36,1.38 -2.93,2.83 -4.71,4.35 -1.77,1.52 -3.75,2.28 -5.93,2.28 -3.82,0 -5.73,-1.93 -5.73,-5.81 0,-2.21 0.48,-4.14 1.43,-5.8 0.95,-1.66 2.11,-3.31 3.48,-4.97 18.54,-23.49 32.44,-49.88 41.71,-79.17 -2.46,-7.19 -3.68,-14.51 -3.68,-21.97 0,-4.14 0.68,-8.98 2.05,-14.51 1.36,-5.53 3.27,-10.78 5.72,-15.75 2.45,-4.97 5.59,-9.26 9.41,-12.85 3.82,-3.59 8.18,-5.39 13.09,-5.39 2.45,0 4.56,0.76 6.34,2.28 1.77,1.52 3.13,3.45 4.09,5.8 0.95,2.35 1.63,4.77 2.04,7.26 0.41,2.49 0.61,4.84 0.61,7.05 0,6.91 -0.95,13.89 -2.86,20.94 -1.91,7.05 -4.08,13.75 -6.54,20.1zm187.71 -60.52c1.64,-0.28 4.09,-0.83 7.36,-1.66 3.28,-0.83 6.68,-1.73 10.23,-2.69 3.54,-0.97 6.82,-1.93 9.82,-2.9 3,-0.96 5.04,-1.73 6.13,-2.28 1.64,-1.11 2.93,-2.14 3.88,-3.11 0.95,-0.96 1.43,-2.56 1.43,-4.76 0,-3.59 -1.91,-5.39 -5.73,-5.39 -4.63,0 -9.27,0.42 -13.9,1.24 -4.64,0.83 -9.27,1.52 -13.9,2.07 3,-10.5 5.25,-21.28 6.75,-32.33 1.5,-11.05 2.25,-21.97 2.25,-32.74 0,-3.04 -0.14,-6.7 -0.41,-10.99 -0.27,-4.28 -1.02,-8.36 -2.25,-12.23 -1.22,-3.87 -3.06,-7.18 -5.52,-9.95 -2.45,-2.76 -5.86,-4.14 -10.22,-4.14 -9.54,0 -18.2,4.42 -25.97,13.26 -7.77,8.84 -14.66,19.41 -20.65,31.71 -6,12.3 -11.04,24.73 -15.13,37.31 -4.09,12.57 -7.23,22.59 -9.41,30.06 -4.36,0.27 -8.93,1.24 -13.7,2.9 -4.76,1.66 -7.15,5.25 -7.15,10.78 0,6.63 3.27,9.95 9.82,9.95 3,0 5.86,-0.42 8.59,-1.24 -2.73,13.26 -4.57,26.74 -5.52,40.42 -0.96,13.68 -1.43,27.29 -1.43,40.83 0,5.25 0.27,11.81 0.82,19.69 0.55,7.88 1.5,16.24 2.86,25.08 1.37,8.85 3.28,17.69 5.73,26.53 2.45,8.84 5.52,16.79 9.2,23.83 3.68,7.05 8.18,12.78 13.49,17.2 5.31,4.42 11.52,6.63 18.6,6.63 8.18,0 16.49,-2.7 24.95,-8.08 8.45,-5.39 16.49,-11.96 24.13,-19.69 7.64,-7.74 14.59,-15.96 20.86,-24.67 6.27,-8.71 11.31,-16.37 15.13,-23.01 1.63,-2.76 3.13,-5.53 4.49,-8.29 1.36,-2.77 2.04,-5.66 2.04,-8.71 0,-1.66 -0.54,-3.11 -1.63,-4.35 -1.09,-1.24 -2.45,-1.87 -4.09,-1.87 -2.18,0 -4.23,1.11 -6.13,3.31 -1.9,2.21 -3.4,4.28 -4.49,6.22 -3,4.97 -7.03,11.12 -12.07,18.45 -5.04,7.32 -10.63,14.3 -16.76,20.94 -6.13,6.63 -12.54,12.37 -19.22,17.2 -6.68,4.84 -13.16,7.26 -19.42,7.26 -5.45,0 -9.89,-3.31 -13.29,-9.95 -3.41,-6.63 -6,-14.37 -7.77,-23.21 -1.77,-8.85 -3,-17.62 -3.68,-26.33 -0.69,-8.71 -1.02,-15.13 -1.02,-19.28 0,-1.11 0,-2.62 0,-4.56 0,-1.93 0.27,-3.46 0.82,-4.56 0.55,-1.39 1.43,-2.83 2.66,-4.35 1.22,-1.52 2.38,-2.97 3.48,-4.35 1.91,-2.77 3.81,-5.46 5.72,-8.08 1.91,-2.63 3.68,-5.46 5.32,-8.5 6.82,-11.33 13.36,-23.42 19.63,-36.27 6.27,-12.85 11.04,-25.64 14.31,-38.35zm-4.91 -101.15c1.09,0 1.91,0.55 2.45,1.66 0.54,1.11 0.95,2.35 1.22,3.73 0.28,1.38 0.41,2.76 0.41,4.14 0,1.39 0,2.35 0,2.9 0,11.06 -1.09,23.08 -3.27,36.06 -2.18,12.99 -4.91,24.73 -8.18,35.24 -5.45,1.38 -11.04,2.28 -16.76,2.69 -5.72,0.42 -11.31,1.04 -16.77,1.87 0.55,-4.15 2.11,-11.06 4.7,-20.72 2.59,-9.67 5.8,-19.55 9.62,-29.64 3.81,-10.09 8.04,-18.93 12.68,-26.53 4.63,-7.6 9.27,-11.4 13.9,-11.4zm-43.35 110.68c4.63,-1.38 9.41,-2.28 14.31,-2.69 4.91,-0.42 9.82,-1.18 14.72,-2.28 -1.36,4.97 -3.4,10.71 -6.13,17.2 -2.72,6.49 -5.79,13.13 -9.2,19.9 -3.41,6.77 -6.95,13.19 -10.63,19.28 -3.68,6.08 -7.03,11.06 -10.02,14.92 0.82,-11.06 1.57,-22.18 2.25,-33.37 0.68,-11.19 2.25,-22.17 4.71,-32.96zm275.23 119.8c0,-5.25 -2.18,-7.88 -6.54,-7.88 -3,0 -5.32,1.18 -6.95,3.53 -1.64,2.35 -3.14,4.63 -4.5,6.84 -2.45,3.87 -6.13,8.98 -11.04,15.34 -4.91,6.36 -10.23,12.5 -15.95,18.44 -5.72,5.94 -11.58,11.12 -17.59,15.54 -5.99,4.42 -11.45,6.63 -16.35,6.63 -3.28,0 -5.8,-1.73 -7.57,-5.18 -1.77,-3.46 -3.07,-7.46 -3.88,-12.02 -0.82,-4.56 -1.3,-9.05 -1.43,-13.47 -0.14,-4.42 -0.21,-7.74 -0.21,-9.95 0,-7.19 0.48,-14.85 1.43,-23.01 0.95,-8.16 2.52,-15.82 4.7,-23.01 1.09,-3.04 2.59,-7.05 4.5,-12.02 1.9,-4.97 2.86,-8.98 2.86,-12.02 0,-2.77 -1.02,-4.56 -3.07,-5.39 -2.04,-0.83 -4.15,-1.24 -6.34,-1.24 -3.82,0 -6.75,1.31 -8.79,3.94 -2.05,2.62 -3.75,5.45 -5.11,8.49 -1.37,2.77 -3.34,6.98 -5.93,12.65 -2.59,5.66 -5.65,11.81 -9.2,18.44 -3.54,6.63 -7.3,13.47 -11.25,20.52 -3.95,7.05 -7.98,13.41 -12.06,19.07 -4.09,5.66 -8.04,10.36 -11.86,14.1 -3.82,3.73 -7.22,5.6 -10.22,5.6 -2.45,0 -3.96,-1.24 -4.5,-3.73 -0.55,-2.49 -0.82,-4.56 -0.82,-6.22 0,-15.76 3.13,-30.47 9.41,-44.15 6.27,-13.68 14.72,-26.05 25.36,-37.1 5.99,-6.36 12.34,-11.95 19.02,-16.79 6.68,-4.84 13.7,-9.46 21.06,-13.89 1.09,-0.55 2.04,-1.18 2.86,-1.87 0.81,-0.7 1.22,-1.73 1.22,-3.11 0,-3.04 -1.5,-5.94 -4.5,-8.71 -3,-2.77 -6,-4.15 -8.99,-4.15 -12,0 -23.52,4.15 -34.56,12.44 -11.04,8.29 -20.86,18.59 -29.44,30.88 -8.59,12.29 -15.47,25.35 -20.65,39.17 -5.18,13.82 -7.77,26.12 -7.77,36.89 0,3.87 0.34,8.29 1.02,13.26 0.68,4.97 1.91,9.67 3.68,14.1 1.77,4.42 4.29,8.15 7.56,11.19 3.27,3.04 7.36,4.56 12.27,4.56 5.45,0 10.97,-2.07 16.56,-6.22 5.59,-4.14 10.97,-9.12 16.15,-14.92 5.18,-5.8 9.88,-11.81 14.11,-18.03 4.23,-6.22 7.71,-11.4 10.43,-15.54 -0.27,4.97 -0.13,11.12 0.41,18.45 0.55,7.32 1.91,14.37 4.09,21.14 2.18,6.77 5.31,12.57 9.41,17.41 4.09,4.84 9.54,7.26 16.36,7.26 7.08,0 14.24,-2.08 21.47,-6.22 7.23,-4.15 14.04,-9.26 20.45,-15.34 6.41,-6.08 12.34,-12.57 17.79,-19.48 5.45,-6.91 10.09,-12.99 13.9,-18.24 1.36,-2.21 3.2,-4.97 5.52,-8.29 2.32,-3.31 3.47,-6.22 3.47,-8.71zm265.83 -194.42c3.82,-1.38 8.52,-2.56 14.11,-3.53 5.59,-0.96 11.25,-2 16.97,-3.11 5.73,-1.1 11.18,-2.35 16.36,-3.73 5.18,-1.38 9.27,-2.9 12.27,-4.56 2.72,-1.66 4.71,-3.45 5.93,-5.39 1.22,-1.93 1.84,-4.56 1.84,-7.87 0,-2.21 -0.27,-4.91 -0.82,-8.08 -0.55,-3.18 -2.32,-4.77 -5.32,-4.77 -1.64,0 -3.75,0.35 -6.34,1.04 -2.59,0.69 -5.31,1.59 -8.18,2.69 -2.86,1.11 -5.65,2.14 -8.39,3.11 -2.72,0.97 -5.04,1.73 -6.95,2.28 -11.73,3.04 -23.72,5.53 -35.99,7.46 -12.27,1.93 -24.54,3.52 -36.81,4.76 -12.27,1.24 -24.54,2.49 -36.8,3.73 -12.27,1.24 -24.4,2.7 -36.4,4.35 -6.28,0.83 -13.5,2.08 -21.68,3.73 -8.18,1.66 -15.95,4.08 -23.31,7.26 -7.36,3.18 -13.63,7.39 -18.81,12.64 -5.18,5.25 -7.77,12.16 -7.77,20.73 0,4.97 0.82,10.09 2.45,15.33 1.64,5.25 3.89,10.36 6.75,15.34 2.86,4.97 6.13,9.54 9.81,13.68 3.68,4.15 7.56,7.6 11.66,10.36 2.45,1.66 5.18,2.49 8.18,2.49l2.45 0c1.91,-1.11 2.86,-2.62 2.86,-4.56 0,-1.66 -1.16,-3.94 -3.48,-6.84 -2.32,-2.9 -4.91,-6.5 -7.77,-10.78 -2.87,-4.28 -5.45,-9.19 -7.77,-14.72 -2.32,-5.52 -3.48,-11.6 -3.48,-18.24 0,-3.59 1.91,-6.63 5.73,-9.12 3.81,-2.49 8.31,-4.56 13.49,-6.22 5.18,-1.65 10.36,-2.97 15.54,-3.94 5.18,-0.96 9,-1.59 11.45,-1.87 13.09,-2.21 26.11,-3.8 39.05,-4.77 12.95,-0.96 25.97,-2.41 39.06,-4.35 0.81,5.53 1.29,11.12 1.43,16.79 0.14,5.67 0.21,11.27 0.21,16.79 0,7.46 -0.34,18.45 -1.02,32.96 -0.68,14.51 -1.91,30.39 -3.68,47.67 -1.77,17.27 -4.29,34.89 -7.56,52.85 -3.28,17.96 -7.57,34.27 -12.88,48.92 -5.32,14.65 -11.72,26.67 -19.22,36.06 -7.5,9.4 -16.43,14.1 -26.79,14.1 -5.73,0 -10.5,-1.24 -14.32,-3.73 -3.81,-2.49 -7.15,-5.18 -10.02,-8.08 -2.86,-2.9 -5.45,-5.6 -7.77,-8.08 -2.32,-2.49 -4.7,-3.73 -7.15,-3.73 -2.46,0 -4.5,1.52 -6.13,4.56 0.27,3.31 1.22,6.36 2.86,9.12 1.64,2.76 3.54,5.25 5.73,7.46 5.45,6.36 11.24,11.05 17.38,14.09 6.13,3.04 13.43,4.56 21.88,4.56 15.81,0 29.38,-4.91 40.69,-14.72 11.32,-9.81 20.99,-22.59 29.03,-38.35 8.05,-15.75 14.59,-33.51 19.63,-53.26 5.05,-19.76 8.93,-39.38 11.65,-58.87 2.73,-19.48 4.57,-37.93 5.52,-55.34 0.95,-17.41 1.43,-31.78 1.43,-43.11 0,-3.87 0,-7.74 0,-11.6 0,-3.87 -0.27,-7.74 -0.82,-11.61zm53.58 207.68c0,5.25 0.21,11.26 0.61,18.03 0.41,6.77 1.5,13.13 3.27,19.07 1.77,5.94 4.64,10.99 8.59,15.13 3.95,4.15 9.62,6.22 16.97,6.22 7.63,0 15.33,-2.42 23.1,-7.25 7.77,-4.84 15.2,-10.71 22.29,-17.62 7.08,-6.91 13.56,-14.23 19.42,-21.97 5.86,-7.74 10.84,-14.51 14.93,-20.31 -0.54,2.77 -0.82,5.39 -0.82,7.88 0,2.49 0,5.11 0,7.88 0,4.42 0.21,10.02 0.62,16.79 0.41,6.77 1.57,13.19 3.48,19.28 1.91,6.08 4.64,11.33 8.18,15.75 3.54,4.42 8.46,6.63 14.72,6.63 7.91,0 16.23,-3.04 24.95,-9.12 8.72,-6.08 17.18,-13.41 25.35,-21.97 8.19,-8.57 15.54,-17.48 22.09,-26.74 6.54,-9.26 11.45,-17.2 14.72,-23.84 0.54,-1.38 1.16,-2.83 1.84,-4.35 0.68,-1.52 1.02,-2.97 1.02,-4.35 0,-2.21 -0.34,-4.07 -1.02,-5.6 -0.69,-1.52 -2.25,-2.28 -4.71,-2.28 -2.45,0 -4.84,1.59 -7.16,4.76 -2.32,3.18 -4.16,5.73 -5.52,7.67 -2.18,3.59 -5.92,9.12 -11.25,16.58 -5.32,7.46 -11.11,14.99 -17.38,22.6 -6.27,7.6 -12.54,14.23 -18.81,19.9 -6.27,5.66 -11.45,8.49 -15.54,8.49 -2.72,0 -4.91,-1.18 -6.54,-3.52 -1.64,-2.35 -2.86,-5.12 -3.68,-8.29 -0.82,-3.18 -1.36,-6.42 -1.64,-9.74 -0.27,-3.32 -0.41,-5.94 -0.41,-7.88 0,-6.36 0.41,-13.54 1.22,-21.56 0.82,-8.01 1.98,-16.03 3.48,-24.04 1.5,-8.01 3.27,-15.89 5.32,-23.63 2.04,-7.74 4.16,-14.65 6.34,-20.73 0.82,-2.49 1.7,-5.04 2.66,-7.67 0.95,-2.62 1.43,-5.32 1.43,-8.08 0,-3.04 -0.89,-4.97 -2.66,-5.8 -1.77,-0.83 -3.88,-1.24 -6.34,-1.24 -3.54,0 -6.47,0.9 -8.79,2.69 -2.32,1.8 -4.29,4 -5.93,6.63 -1.64,2.62 -3,5.52 -4.09,8.71 -1.09,3.18 -2.18,6.01 -3.27,8.49 -1.64,4.15 -4.36,9.67 -8.18,16.58 -3.81,6.91 -8.18,14.44 -13.09,22.59 -4.91,8.15 -10.22,16.38 -15.95,24.67 -5.72,8.29 -11.52,15.82 -17.38,22.59 -5.86,6.77 -11.59,12.3 -17.18,16.58 -5.59,4.28 -10.7,6.42 -15.33,6.42 -3.82,0 -6.07,-2.07 -6.75,-6.22 -0.68,-4.14 -1.02,-7.6 -1.02,-10.36 0,-7.19 0.62,-15.07 1.84,-23.63 1.23,-8.57 2.73,-17.2 4.5,-25.91 1.77,-8.71 3.81,-17.2 6.13,-25.49 2.31,-8.29 4.56,-15.89 6.75,-22.8 0.54,-2.21 1.16,-4.49 1.84,-6.84 0.68,-2.35 1.02,-4.63 1.02,-6.84 0,-6.08 -3.13,-9.12 -9.41,-9.12 -6.27,0 -11.93,1.79 -16.97,5.39 -5.04,3.59 -8.66,8.57 -10.83,14.92 -3.82,11.88 -6.61,24.39 -8.38,37.52 -1.77,13.13 -2.66,25.9 -2.66,38.34zm265.41 -33.99c0,7.74 -0.34,15.33 -1.02,22.8 -0.68,7.46 -1.02,15.07 -1.02,22.8 0,4.97 0.2,10.78 0.61,17.41 0.41,6.63 1.57,12.92 3.48,18.79 1.91,5.88 4.77,10.92 8.59,15.13 3.82,4.21 9.13,6.29 15.95,6.29 6.55,0 13.84,-2.63 21.88,-7.95 8.04,-5.25 15.81,-11.61 23.31,-19.07 7.5,-7.39 14.45,-15.13 20.85,-23.14 6.41,-8.01 11.25,-14.65 14.52,-19.9 0.82,-1.38 1.57,-2.76 2.25,-4.15 0.69,-1.38 1.02,-2.9 1.02,-4.56 0,-2.21 -0.34,-4.22 -1.02,-6.01 -0.68,-1.8 -2.25,-2.69 -4.7,-2.69 -2.45,0 -4.57,1.18 -6.34,3.53 -1.77,2.35 -3.34,4.49 -4.7,6.42 -2.46,3.87 -6.27,9.05 -11.45,15.54 -5.18,6.49 -10.77,12.92 -16.77,19.28 -6,6.36 -12.06,11.88 -18.2,16.58 -6.13,4.7 -11.52,7.05 -16.15,7.05 -3.82,0 -6.07,-1.87 -6.75,-5.6 -0.69,-3.73 -1.03,-6.98 -1.03,-9.74 0,-9.95 0.82,-19.76 2.46,-29.43 1.64,-9.67 3.54,-19.34 5.72,-29.02 1.37,-6.08 2.05,-11.47 2.05,-16.17 0,-9.12 -1.91,-16.37 -5.73,-21.76 -3.81,-5.39 -8.38,-9.95 -13.7,-13.68 -5.32,-3.73 -10.7,-7.18 -16.15,-10.36 -5.45,-3.18 -9.82,-7.26 -13.09,-12.23 0.82,-6.63 1.23,-13.26 1.23,-19.9 0,-2.21 -0.14,-5.11 -0.41,-8.71 -0.27,-3.59 -0.95,-7.12 -2.05,-10.57 -1.09,-3.46 -2.45,-6.5 -4.09,-9.12 -1.64,-2.62 -3.96,-3.94 -6.95,-3.94 -4.09,0 -7.63,1.8 -10.63,5.39 -3,3.59 -5.52,7.87 -7.56,12.85 -2.05,4.97 -3.54,10.09 -4.5,15.34 -0.95,5.25 -1.43,9.53 -1.43,12.85 0,6.36 0.81,12.5 2.45,18.44 1.64,5.94 4.36,11.4 8.18,16.38 -1.63,14.09 -5.92,27.22 -12.88,39.38 -6.95,12.16 -14.38,24.04 -22.29,35.65 -1.09,1.39 -1.97,2.83 -2.66,4.35 -0.68,1.52 -1.02,3.11 -1.02,4.77 0,3.59 1.77,5.39 5.32,5.39 2.18,0 4.23,-0.69 6.13,-2.08 1.91,-1.38 3.54,-2.76 4.91,-4.14 4.63,-4.7 8.86,-10.09 12.67,-16.17 3.82,-6.08 7.36,-12.44 10.64,-19.07 3.27,-6.63 6.2,-13.26 8.79,-19.9 2.59,-6.63 4.98,-12.99 7.16,-19.07 6,1.93 11.52,4.97 16.56,9.12 5.04,4.15 7.56,9.67 7.56,16.58z"/>
    <path class="fil7" d="M4339.19 2261.62c0.54,-3.04 1.5,-6.56 2.86,-10.57 1.36,-4 2.72,-8.01 4.09,-12.02 1.37,-4.01 2.59,-7.88 3.68,-11.61 1.09,-3.73 1.64,-6.98 1.64,-9.74 0,-5.53 -2.86,-8.57 -8.59,-9.12 -8.72,-0.28 -15.34,2.07 -19.83,7.05 -4.5,4.97 -7.98,11.47 -10.43,19.49 -2.18,7.18 -4.16,15.54 -5.93,25.08 -1.77,9.53 -2.65,18.17 -2.65,25.91 0,6.08 0.41,13.19 1.22,21.35 0.82,8.15 2.59,15.89 5.32,23.21 2.73,7.32 6.47,13.54 11.25,18.65 4.77,5.12 11.25,7.67 19.43,7.67 7.36,0 14.93,-2.42 22.7,-7.26 7.77,-4.84 15.2,-10.64 22.29,-17.41 7.09,-6.77 13.63,-13.95 19.63,-21.56 6,-7.6 10.91,-14.3 14.72,-20.1 0.82,-1.11 1.84,-2.56 3.07,-4.35 1.22,-1.8 2.45,-3.73 3.68,-5.8 1.22,-2.08 2.25,-4.08 3.06,-6.01 0.82,-1.93 1.23,-3.59 1.23,-4.97 0,-2.21 -0.21,-4.28 -0.62,-6.22 -0.41,-1.93 -1.97,-2.9 -4.71,-2.9 -2.72,0 -4.97,1.24 -6.75,3.73 -1.77,2.49 -3.34,4.7 -4.7,6.63 -2.45,4.42 -6.2,10.3 -11.25,17.62 -5.04,7.32 -10.63,14.51 -16.77,21.56 -6.13,7.05 -12.47,13.19 -19.02,18.45 -6.55,5.25 -12.54,7.87 -17.99,7.87 -3.54,0 -6.27,-1.52 -8.18,-4.56 -1.91,-3.04 -3.34,-6.63 -4.29,-10.78 -0.95,-4.15 -1.5,-8.29 -1.64,-12.44 -0.14,-4.15 -0.21,-7.46 -0.21,-9.95 0,-12.72 1.23,-25.01 3.68,-36.9zm-9.41 -72.13c-1.64,0 -3,-0.62 -4.09,-1.87 -1.09,-1.24 -1.63,-2.69 -1.63,-4.35 0,-1.38 0.34,-2.76 1.02,-4.14 0.68,-1.39 1.29,-2.77 1.84,-4.15 3.82,-7.19 7.77,-14.23 11.86,-21.14 4.09,-6.91 8.04,-13.96 11.86,-21.14 1.91,-3.32 3.81,-6.91 5.72,-10.78 1.91,-3.87 3.96,-7.32 6.13,-10.36 3.28,-4.15 7.36,-6.22 12.27,-6.22 3.82,0 6.95,1.24 9.41,3.73 2.45,2.49 3.68,5.66 3.68,9.53 0,2.77 -0.95,5.66 -2.86,8.71 -2.45,3.87 -5.18,7.6 -8.18,11.19 -3,3.59 -6,7.19 -9,10.78 -4.64,5.8 -9.27,11.54 -13.9,17.2 -4.63,5.66 -9.54,11.26 -14.72,16.79 -1.36,1.38 -2.79,2.77 -4.29,4.15 -1.5,1.38 -3.2,2.07 -5.11,2.07zm138.64 22.38c3.27,8.01 7.08,16.03 11.45,24.04 4.37,8.01 8.59,16.1 12.68,24.25 4.09,8.15 7.5,16.51 10.23,25.08 2.72,8.57 4.08,17.27 4.08,26.12 0,5.53 -0.75,11.06 -2.25,16.58 -1.5,5.53 -3.89,10.64 -7.16,15.34 4.91,0.27 10.63,-1.87 17.18,-6.43 6.55,-4.56 13.09,-9.95 19.63,-16.17 6.55,-6.22 12.54,-12.57 17.99,-19.07 5.45,-6.5 9.41,-11.68 11.86,-15.54 1.36,-1.93 3,-4.22 4.91,-6.84 1.91,-2.63 4.23,-3.94 6.95,-3.94 2.45,0 4.09,0.83 4.91,2.49 0.82,1.66 1.23,3.59 1.23,5.81 0,1.38 -0.48,2.83 -1.43,4.35 -0.96,1.52 -1.71,2.97 -2.25,4.35 -7.63,12.16 -15.67,23.08 -24.13,32.74 -8.45,9.67 -17.66,17.83 -27.6,24.46 -9.95,6.63 -20.99,11.67 -33.13,15.13 -12.13,3.46 -25.56,5.18 -40.28,5.18 -7.91,0 -16.43,-0.83 -25.56,-2.49 -9.13,-1.65 -16.7,-5.39 -22.69,-11.19 -1.37,-1.38 -2.46,-2.76 -3.27,-4.14 -0.82,-1.39 -1.23,-3.04 -1.23,-4.97 0,-4.15 2.18,-6.22 6.55,-6.22 1.63,0 2.93,0.27 3.88,0.83 0.95,0.55 2.11,1.24 3.48,2.07 4.63,3.04 9.27,5.12 13.9,6.22 4.64,1.11 9.68,1.66 15.13,1.66 10.9,0 19.15,-3.38 24.74,-10.15 5.59,-6.77 8.38,-15.41 8.38,-25.91 0,-6.36 -0.88,-13.13 -2.65,-20.31 -1.77,-7.18 -4.02,-14.37 -6.75,-21.55 -2.73,-7.19 -5.8,-14.16 -9.2,-20.94 -3.41,-6.77 -6.75,-12.64 -10.02,-17.62 -1.91,5.52 -4.29,11.67 -7.15,18.44 -2.86,6.77 -6.07,13.47 -9.61,20.11 -3.54,6.63 -7.3,12.99 -11.25,19.07 -3.96,6.08 -7.98,11.19 -12.06,15.34 -1.37,1.38 -2.93,2.83 -4.71,4.35 -1.77,1.52 -3.75,2.28 -5.93,2.28 -3.82,0 -5.73,-1.93 -5.73,-5.81 0,-2.21 0.48,-4.14 1.43,-5.8 0.95,-1.66 2.11,-3.31 3.47,-4.97 18.55,-23.49 32.45,-49.88 41.71,-79.17 -2.45,-7.19 -3.68,-14.51 -3.68,-21.97 0,-4.14 0.68,-8.98 2.05,-14.51 1.36,-5.53 3.27,-10.78 5.72,-15.75 2.45,-4.97 5.59,-9.26 9.41,-12.85 3.82,-3.59 8.18,-5.39 13.09,-5.39 2.46,0 4.57,0.76 6.34,2.28 1.77,1.52 3.13,3.45 4.09,5.8 0.95,2.35 1.64,4.77 2.05,7.26 0.41,2.49 0.61,4.84 0.61,7.05 0,6.91 -0.95,13.89 -2.86,20.94 -1.91,7.05 -4.09,13.75 -6.54,20.1zm187.71 -60.52c1.64,-0.28 4.09,-0.83 7.36,-1.66 3.28,-0.83 6.68,-1.73 10.23,-2.69 3.54,-0.97 6.82,-1.93 9.81,-2.9 3,-0.96 5.04,-1.73 6.13,-2.28 1.64,-1.11 2.93,-2.14 3.88,-3.11 0.96,-0.96 1.44,-2.56 1.44,-4.76 0,-3.59 -1.91,-5.39 -5.73,-5.39 -4.63,0 -9.27,0.42 -13.9,1.24 -4.64,0.83 -9.27,1.52 -13.9,2.07 3,-10.5 5.25,-21.28 6.75,-32.33 1.5,-11.05 2.25,-21.97 2.25,-32.74 0,-3.04 -0.14,-6.7 -0.41,-10.99 -0.27,-4.28 -1.02,-8.36 -2.25,-12.23 -1.22,-3.87 -3.06,-7.18 -5.52,-9.95 -2.46,-2.76 -5.86,-4.14 -10.22,-4.14 -9.54,0 -18.2,4.42 -25.97,13.26 -7.77,8.84 -14.65,19.41 -20.65,31.71 -6,12.3 -11.04,24.73 -15.13,37.31 -4.09,12.57 -7.23,22.59 -9.41,30.06 -4.36,0.27 -8.93,1.24 -13.7,2.9 -4.76,1.66 -7.15,5.25 -7.15,10.78 0,6.63 3.27,9.95 9.82,9.95 3,0 5.86,-0.42 8.59,-1.24 -2.73,13.26 -4.57,26.74 -5.52,40.42 -0.95,13.68 -1.43,27.29 -1.43,40.83 0,5.25 0.28,11.81 0.82,19.69 0.54,7.88 1.5,16.24 2.86,25.08 1.37,8.85 3.28,17.69 5.73,26.53 2.45,8.84 5.52,16.79 9.2,23.83 3.68,7.05 8.18,12.78 13.5,17.2 5.31,4.42 11.52,6.63 18.6,6.63 8.18,0 16.49,-2.7 24.95,-8.08 8.45,-5.39 16.49,-11.96 24.13,-19.69 7.63,-7.74 14.59,-15.96 20.85,-24.67 6.27,-8.71 11.32,-16.37 15.13,-23.01 1.64,-2.76 3.14,-5.53 4.5,-8.29 1.36,-2.77 2.04,-5.66 2.04,-8.71 0,-1.66 -0.54,-3.11 -1.63,-4.35 -1.09,-1.24 -2.45,-1.87 -4.09,-1.87 -2.18,0 -4.23,1.11 -6.13,3.31 -1.91,2.21 -3.4,4.28 -4.49,6.22 -3,4.97 -7.03,11.12 -12.07,18.45 -5.04,7.32 -10.63,14.3 -16.76,20.94 -6.13,6.63 -12.54,12.37 -19.23,17.2 -6.67,4.84 -13.15,7.26 -19.42,7.26 -5.45,0 -9.88,-3.31 -13.29,-9.95 -3.41,-6.63 -6,-14.37 -7.77,-23.21 -1.77,-8.85 -3,-17.62 -3.68,-26.33 -0.68,-8.71 -1.02,-15.13 -1.02,-19.28 0,-1.11 0,-2.62 0,-4.56 0,-1.93 0.27,-3.46 0.82,-4.56 0.54,-1.39 1.43,-2.83 2.66,-4.35 1.22,-1.52 2.38,-2.97 3.48,-4.35 1.91,-2.77 3.81,-5.46 5.72,-8.08 1.91,-2.63 3.68,-5.46 5.32,-8.5 6.82,-11.33 13.36,-23.42 19.63,-36.27 6.27,-12.85 11.05,-25.64 14.32,-38.35zm-4.91 -101.15c1.09,0 1.91,0.55 2.45,1.66 0.55,1.11 0.96,2.35 1.23,3.73 0.27,1.38 0.41,2.76 0.41,4.14 0,1.39 0,2.35 0,2.9 0,11.06 -1.09,23.08 -3.27,36.06 -2.18,12.99 -4.91,24.73 -8.18,35.24 -5.45,1.38 -11.04,2.28 -16.77,2.69 -5.72,0.42 -11.31,1.04 -16.76,1.87 0.55,-4.15 2.11,-11.06 4.7,-20.72 2.59,-9.67 5.8,-19.55 9.61,-29.64 3.82,-10.09 8.04,-18.93 12.68,-26.53 4.63,-7.6 9.27,-11.4 13.9,-11.4zm-43.34 110.68c4.63,-1.38 9.41,-2.28 14.31,-2.69 4.91,-0.42 9.82,-1.18 14.72,-2.28 -1.36,4.97 -3.4,10.71 -6.13,17.2 -2.72,6.49 -5.79,13.13 -9.2,19.9 -3.41,6.77 -6.95,13.19 -10.63,19.28 -3.68,6.08 -7.02,11.06 -10.02,14.92 0.82,-11.06 1.57,-22.18 2.25,-33.37 0.68,-11.19 2.25,-22.17 4.71,-32.96zm120.64 137.63c0,-12.72 1.23,-25.01 3.68,-36.9 0.82,-3.04 1.91,-6.56 3.28,-10.57 1.36,-4 2.72,-8.01 4.08,-12.02 1.37,-4.01 2.52,-7.88 3.48,-11.61 0.95,-3.73 1.43,-6.98 1.43,-9.74 0,-6.08 -3.13,-9.12 -9.41,-9.12 -8.72,0 -15.2,2.56 -19.43,7.67 -4.23,5.11 -7.56,11.4 -10.02,18.86 -2.18,7.18 -4.16,15.54 -5.93,25.08 -1.77,9.53 -2.65,18.17 -2.65,25.91 0,6.08 0.41,13.19 1.22,21.35 0.82,8.15 2.59,15.89 5.32,23.21 2.72,7.32 6.47,13.54 11.24,18.65 4.77,5.12 11.25,7.67 19.43,7.67 7.36,0 14.86,-2.42 22.49,-7.26 7.63,-4.84 15.07,-10.71 22.29,-17.62 7.22,-6.91 13.83,-14.16 19.83,-21.76 6,-7.6 10.91,-14.16 14.72,-19.69 0.82,-1.11 1.84,-2.56 3.07,-4.35 1.22,-1.8 2.45,-3.73 3.68,-5.8 1.22,-2.08 2.25,-4.08 3.06,-6.01 0.82,-1.93 1.23,-3.59 1.23,-4.97 0,-2.21 -0.21,-4.28 -0.62,-6.22 -0.41,-1.93 -1.97,-2.9 -4.71,-2.9 -2.72,0 -4.97,1.24 -6.75,3.73 -1.77,2.49 -3.33,4.7 -4.7,6.63 -2.73,4.42 -6.61,10.36 -11.65,17.83 -5.04,7.46 -10.64,14.71 -16.77,21.76 -6.13,7.05 -12.4,13.13 -18.81,18.24 -6.41,5.11 -12.34,7.67 -17.79,7.67 -3.54,0 -6.27,-1.52 -8.18,-4.56 -1.91,-3.04 -3.34,-6.63 -4.29,-10.78 -0.95,-4.15 -1.5,-8.29 -1.63,-12.44 -0.14,-4.15 -0.21,-7.46 -0.21,-9.95zm16.36 -153.38c-5.45,0 -10.02,2.35 -13.7,7.05 -3.68,4.7 -5.52,9.67 -5.52,14.92 0,4.15 1.23,7.81 3.68,10.99 2.45,3.18 5.86,4.77 10.22,4.77 5.45,0 10.09,-2.28 13.91,-6.84 3.81,-4.56 5.72,-9.61 5.72,-15.13 0,-4.14 -1.3,-7.8 -3.88,-10.98 -2.59,-3.18 -6.07,-4.77 -10.43,-4.77zm112.46 211.83c12,0 23.58,-2.01 34.76,-6.01 11.18,-4 21.54,-9.46 31.08,-16.37 9.55,-6.91 18.27,-14.99 26.17,-24.25 7.91,-9.26 14.73,-19 20.45,-29.22 0.82,-1.39 1.64,-2.9 2.45,-4.56 0.82,-1.65 1.22,-3.31 1.22,-4.97 0,-4.42 -2.18,-6.63 -6.54,-6.63 -2.73,0 -5.12,1.24 -7.16,3.73 -2.04,2.49 -3.75,4.83 -5.11,7.05 -4.36,7.46 -9.48,14.72 -15.34,21.76 -5.86,7.05 -12.26,13.26 -19.22,18.65 -6.95,5.39 -14.52,9.74 -22.7,13.06 -8.18,3.31 -16.76,4.97 -25.76,4.97 -6,0 -11.11,-1.24 -15.34,-3.73 -4.23,-2.49 -7.63,-5.8 -10.22,-9.95 -2.59,-4.15 -4.44,-8.77 -5.52,-13.89 -1.09,-5.12 -1.64,-10.3 -1.64,-15.54 0,-6.08 1.09,-14.23 3.27,-24.46 2.18,-10.22 5.32,-20.31 9.41,-30.26 4.08,-9.95 9.13,-18.52 15.12,-25.7 6,-7.18 12.82,-10.78 20.46,-10.78 4.63,0 7.43,1.73 8.38,5.18 0.96,3.46 1.43,7.12 1.43,10.99 0,6.08 -1.22,11.54 -3.68,16.37 -2.45,4.84 -3.68,8.77 -3.68,11.81 0,2.77 1.5,4.15 4.49,4.15 4.09,0 7.5,-1.24 10.23,-3.73 2.72,-2.49 4.77,-5.53 6.13,-9.12 1.36,-3.59 2.32,-7.39 2.86,-11.4 0.54,-4.01 0.82,-7.67 0.82,-10.99 0,-11.06 -2.93,-19.07 -8.79,-24.04 -5.86,-4.97 -13.97,-7.46 -24.33,-7.46 -12.27,0 -23.18,3.45 -32.72,10.36 -9.54,6.91 -17.58,15.54 -24.13,25.91 -6.55,10.36 -11.45,21.69 -14.72,33.99 -3.27,12.29 -4.91,23.83 -4.91,34.61 0,8.29 0.96,16.58 2.86,24.87 1.91,8.29 5.04,15.82 9.41,22.6 4.36,6.77 9.89,12.29 16.56,16.58 6.68,4.28 14.65,6.43 23.93,6.43zm284.22 -76.28c0,-5.25 -2.17,-7.88 -6.54,-7.88 -3,0 -5.32,1.18 -6.96,3.53 -1.63,2.35 -3.13,4.63 -4.49,6.84 -2.46,3.87 -6.13,8.98 -11.05,15.34 -4.91,6.36 -10.22,12.5 -15.95,18.44 -5.72,5.94 -11.59,11.12 -17.59,15.54 -6,4.42 -11.45,6.63 -16.36,6.63 -3.28,0 -5.8,-1.73 -7.57,-5.18 -1.77,-3.46 -3.06,-7.46 -3.88,-12.02 -0.82,-4.56 -1.29,-9.05 -1.43,-13.47 -0.14,-4.42 -0.21,-7.74 -0.21,-9.95 0,-7.19 0.47,-14.85 1.43,-23.01 0.95,-8.16 2.52,-15.82 4.7,-23.01 1.09,-3.04 2.59,-7.05 4.5,-12.02 1.91,-4.97 2.86,-8.98 2.86,-12.02 0,-2.77 -1.02,-4.56 -3.06,-5.39 -2.05,-0.83 -4.16,-1.24 -6.34,-1.24 -3.81,0 -6.75,1.31 -8.79,3.94 -2.05,2.62 -3.75,5.45 -5.12,8.49 -1.36,2.77 -3.34,6.98 -5.93,12.65 -2.59,5.66 -5.65,11.81 -9.2,18.44 -3.54,6.63 -7.3,13.47 -11.25,20.52 -3.95,7.05 -7.97,13.41 -12.06,19.07 -4.09,5.66 -8.04,10.36 -11.86,14.1 -3.81,3.73 -7.22,5.6 -10.22,5.6 -2.45,0 -3.96,-1.24 -4.5,-3.73 -0.55,-2.49 -0.82,-4.56 -0.82,-6.22 0,-15.76 3.13,-30.47 9.41,-44.15 6.28,-13.68 14.72,-26.05 25.36,-37.1 6,-6.36 12.34,-11.95 19.02,-16.79 6.68,-4.84 13.7,-9.46 21.06,-13.89 1.09,-0.55 2.04,-1.18 2.86,-1.87 0.82,-0.7 1.22,-1.73 1.22,-3.11 0,-3.04 -1.5,-5.94 -4.5,-8.71 -3,-2.77 -5.99,-4.15 -8.99,-4.15 -12,0 -23.52,4.15 -34.56,12.44 -11.04,8.29 -20.86,18.59 -29.44,30.88 -8.59,12.29 -15.47,25.35 -20.65,39.17 -5.18,13.82 -7.77,26.12 -7.77,36.89 0,3.87 0.34,8.29 1.02,13.26 0.69,4.97 1.91,9.67 3.68,14.1 1.77,4.42 4.29,8.15 7.56,11.19 3.27,3.04 7.36,4.56 12.27,4.56 5.45,0 10.97,-2.07 16.56,-6.22 5.59,-4.14 10.97,-9.12 16.15,-14.92 5.18,-5.8 9.88,-11.81 14.11,-18.03 4.23,-6.22 7.7,-11.4 10.43,-15.54 -0.27,4.97 -0.14,11.12 0.41,18.45 0.54,7.32 1.9,14.37 4.09,21.14 2.18,6.77 5.31,12.57 9.41,17.41 4.09,4.84 9.54,7.26 16.36,7.26 7.09,0 14.25,-2.08 21.47,-6.22 7.23,-4.15 14.04,-9.26 20.45,-15.34 6.41,-6.08 12.33,-12.57 17.79,-19.48 5.45,-6.91 10.09,-12.99 13.91,-18.24 1.36,-2.21 3.2,-4.97 5.52,-8.29 2.32,-3.31 3.47,-6.22 3.47,-8.71zm184.04 11.19c0.82,5.53 2.12,11.88 3.88,19.07 1.77,7.18 4.29,14.02 7.57,20.52 3.27,6.49 7.3,12.02 12.06,16.58 4.77,4.56 10.7,6.84 17.79,6.84 8.73,0 16.97,-2.21 24.74,-6.63 7.77,-4.42 15.06,-9.88 21.88,-16.38 6.82,-6.49 13.02,-13.61 18.61,-21.35 5.59,-7.74 10.56,-14.92 14.92,-21.56 1.64,-2.49 3.34,-5.25 5.12,-8.29 1.77,-3.04 2.66,-6.08 2.66,-9.12 0,-1.93 -0.35,-3.87 -1.03,-5.8 -0.68,-1.93 -2.24,-2.9 -4.7,-2.9 -2.73,0 -5.18,1.66 -7.36,4.97 -2.18,3.32 -3.96,6.08 -5.32,8.29 -2.73,4.7 -6.48,10.36 -11.25,16.99 -4.77,6.63 -9.95,12.92 -15.54,18.86 -5.59,5.94 -11.52,10.99 -17.79,15.13 -6.27,4.14 -12.41,6.22 -18.4,6.22 -4.09,0 -7.36,-2.77 -9.82,-8.29 -2.45,-5.53 -4.23,-11.95 -5.32,-19.28 -1.09,-7.32 -1.77,-14.51 -2.04,-21.55 -0.27,-7.05 -0.41,-12.09 -0.41,-15.13 6.55,-12.99 13.84,-28.47 21.88,-46.42 8.04,-17.96 15.54,-36.55 22.49,-55.76 6.95,-19.21 12.75,-38.21 17.38,-57 4.64,-18.79 6.95,-35.37 6.95,-49.74 0,-3.59 -0.27,-7.95 -0.82,-13.06 -0.54,-5.11 -1.64,-10.02 -3.27,-14.72 -1.64,-4.7 -3.96,-8.71 -6.95,-12.02 -3,-3.31 -6.95,-4.97 -11.86,-4.97 -4.09,0 -8.11,1.38 -12.07,4.15 -3.95,2.76 -7.43,5.53 -10.43,8.29 -5.72,5.25 -11.04,12.44 -15.95,21.56 -4.91,9.12 -9.47,19.14 -13.7,30.05 -4.23,10.92 -7.91,22.52 -11.05,34.82 -3.13,12.3 -5.86,24.32 -8.18,36.06 -2.32,11.75 -4.02,23.01 -5.12,33.79 -1.09,10.78 -1.63,20.03 -1.63,27.77 -5.45,-6.36 -12.41,-9.53 -20.86,-9.53 -6.27,0 -12.88,1.73 -19.84,5.18 -6.95,3.46 -12.74,7.12 -17.38,10.99 -12,10.5 -21.47,23.56 -28.42,39.17 -6.96,15.61 -10.43,31.44 -10.43,47.46 0,3.59 0.47,7.6 1.43,12.02 0.95,4.42 2.38,8.64 4.29,12.64 1.9,4 4.43,7.39 7.56,10.15 3.13,2.77 6.89,4.15 11.25,4.15 6,0 12.54,-1.93 19.63,-5.8 7.08,-3.87 14.04,-8.5 20.86,-13.89 6.82,-5.39 13.22,-11.12 19.22,-17.2 6,-6.08 10.91,-11.19 14.72,-15.34zm27.81 -61.35c0,-6.08 0.54,-14.16 1.64,-24.25 1.09,-10.09 2.66,-21.21 4.71,-33.37 2.04,-12.16 4.43,-24.73 7.15,-37.72 2.73,-12.99 5.66,-25.29 8.8,-36.9 3.13,-11.6 6.47,-21.9 10.02,-30.88 3.54,-8.98 7.09,-15.54 10.63,-19.69 0.82,-0.83 1.77,-1.8 2.86,-2.9 1.09,-1.1 2.32,-1.65 3.68,-1.65 1.09,0 1.91,0.48 2.45,1.45 0.55,0.97 0.96,2.14 1.23,3.53 0.27,1.38 0.41,2.76 0.41,4.14 0,1.11 0,1.94 0,2.49 0,12.72 -1.77,27.08 -5.32,43.11 -3.55,16.03 -7.98,32.2 -13.29,48.5 -5.32,16.3 -11.11,32.2 -17.38,47.67 -6.27,15.47 -12.13,29.01 -17.59,40.62l0 -4.15zm-31.08 -0.41c0,6.08 0,12.02 0,17.82 0,5.81 0.27,11.75 0.82,17.83 -1.91,3.59 -5.79,8.71 -11.65,15.34 -5.86,6.63 -12.34,13.26 -19.43,19.9 -7.09,6.63 -14.18,12.44 -21.26,17.41 -7.09,4.97 -12.82,7.46 -17.18,7.46 -2.18,0 -3.41,-1.04 -3.68,-3.11 -0.27,-2.08 -0.41,-3.8 -0.41,-5.18 0,-8.56 2.04,-17.96 6.13,-28.19 4.09,-10.22 9.54,-19.69 16.36,-28.4 6.82,-8.71 14.59,-16.03 23.31,-21.97 8.72,-5.94 17.72,-8.91 26.99,-8.91zm155 123.12c11.18,0 21.95,-1.87 32.31,-5.66 10.36,-3.8 20.03,-8.92 29.03,-15.34 9,-6.42 17.24,-13.96 24.74,-22.52 7.5,-8.57 13.84,-17.55 19.02,-26.95 1.37,-2.21 2.32,-4.14 2.86,-5.8 0.55,-1.66 0.82,-3.87 0.82,-6.63 0,-1.38 -0.61,-2.49 -1.84,-3.31 -1.22,-0.83 -2.52,-1.24 -3.88,-1.24 -3,0 -5.45,1.24 -7.36,3.73 -1.91,2.49 -3.55,4.84 -4.91,7.05 -4.09,6.91 -8.86,13.82 -14.31,20.73 -5.45,6.91 -11.45,13.06 -18,18.44 -6.54,5.39 -13.63,9.81 -21.26,13.27 -7.63,3.45 -15.81,5.18 -24.53,5.18 -9.55,0 -16.36,-2.69 -20.45,-8.08 -4.09,-5.46 -6.13,-12.85 -6.13,-22.25 0,-5.25 0.68,-11.12 2.05,-17.48 6.27,-2.21 13.09,-6.36 20.45,-12.44 7.36,-6.15 14.24,-13.13 20.66,-21 6.4,-7.95 11.72,-16.1 15.95,-24.52 4.23,-8.43 6.34,-16.17 6.34,-23.08 0,-7.19 -1.97,-13.2 -5.93,-17.9 -3.95,-4.7 -9.61,-7.05 -16.97,-7.05 -10.9,0 -20.93,4.28 -30.06,12.85 -9.14,8.57 -16.97,19 -23.52,31.3 -6.54,12.29 -11.58,25.08 -15.13,38.34 -3.54,13.27 -5.32,24.6 -5.32,33.99 0,7.46 0.82,14.58 2.45,21.35 1.64,6.77 4.29,12.72 7.98,17.83 3.68,5.11 8.39,9.26 14.11,12.44 5.72,3.18 12.68,4.77 20.86,4.77zm26.58 -153.79c2.73,0 4.57,1.04 5.52,3.11 0.95,2.08 1.43,4.28 1.43,6.5 0,5.53 -1.5,11.33 -4.5,17.27 -3,6.01 -6.67,11.81 -11.04,17.55 -4.36,5.66 -9.14,10.84 -14.31,15.4 -5.18,4.56 -9.95,8.29 -14.31,11.06 0.54,-3.59 2.04,-9.4 4.49,-17.27 2.45,-7.94 5.45,-15.89 9,-23.77 3.54,-7.95 7.36,-14.92 11.45,-20.86 4.09,-6.01 8.18,-8.98 12.27,-8.98zm233.52 27.78c0,-8.01 0.89,-17.62 2.66,-28.81 1.77,-11.19 4.43,-22.87 7.97,-35.03 3.54,-12.16 7.98,-24.18 13.29,-36.06 5.32,-11.88 11.39,-22.59 18.2,-32.13 6.82,-9.53 14.45,-17.2 22.9,-23.01 8.45,-5.8 17.59,-8.71 27.4,-8.71 10.09,0 17.79,3.53 23.1,10.57 5.32,7.05 7.98,15.41 7.98,25.08 0,5.8 -0.47,11.81 -1.43,18.03 -0.95,6.22 -2.25,12.09 -3.88,17.62 -0.55,1.66 -1.29,3.73 -2.25,6.22 -0.95,2.49 -1.97,5.04 -3.06,7.67 -1.09,2.62 -1.98,5.11 -2.66,7.46 -0.68,2.35 -1.02,4.35 -1.02,6.01 0,3.04 1.09,5.04 3.28,6.01 2.18,0.96 4.49,1.45 6.95,1.45 3.81,0 7.09,-0.96 9.81,-2.9 3,-2.21 5.52,-6.29 7.57,-12.23 2.04,-5.94 3.68,-12.44 4.91,-19.49 1.22,-7.05 2.11,-13.95 2.65,-20.72 0.55,-6.77 0.82,-11.95 0.82,-15.54 0,-8.29 -1.36,-16.03 -4.09,-23.21 -2.73,-7.19 -6.55,-13.34 -11.45,-18.45 -4.91,-5.11 -10.84,-9.19 -17.79,-12.23 -6.96,-3.04 -14.52,-4.56 -22.7,-4.56 -14.45,0 -27.88,2.83 -40.28,8.5 -12.41,5.66 -23.58,13.33 -33.54,23.01 -9.95,9.67 -18.74,20.86 -26.37,33.58 -7.63,12.71 -14.04,25.98 -19.22,39.8 -5.18,13.82 -9.07,27.78 -11.65,41.87 -2.59,14.1 -3.89,27.5 -3.89,40.21 0,17.13 2.39,33.78 7.16,49.95 4.77,16.17 11.86,30.47 21.26,42.9 9.41,12.44 21.14,22.45 35.17,30.06 14.04,7.6 30.34,11.4 48.87,11.4 12.82,0 25.43,-1.93 37.83,-5.8 12.41,-3.87 24.13,-9.26 35.17,-16.17 11.04,-6.91 21.2,-15.07 30.47,-24.46 9.27,-9.4 17.04,-19.62 23.31,-30.67 1.09,-1.66 2.25,-3.8 3.48,-6.42 1.22,-2.63 1.84,-4.91 1.84,-6.84 0,-1.94 -0.62,-3.59 -1.84,-4.97 -1.23,-1.39 -2.8,-2.08 -4.71,-2.08 -2.45,0 -4.57,1.11 -6.34,3.32 -1.77,2.21 -3.34,4.28 -4.71,6.22 -2.18,3.31 -4.23,6.63 -6.13,9.95 -1.91,3.31 -4.09,6.49 -6.55,9.53 -11.18,14.1 -24.61,25.08 -40.28,32.96 -15.67,7.88 -32.51,11.81 -50.5,11.81 -16.09,0 -29.17,-3.25 -39.26,-9.74 -10.09,-6.49 -17.99,-14.99 -23.72,-25.49 -5.72,-10.5 -9.61,-22.32 -11.66,-35.44 -2.04,-13.13 -3.06,-26.46 -3.06,-40z"/>
    <path class="fil7" d="M5919.41 2300.59c0,6.08 0.68,12.44 2.05,19.07 1.36,6.63 3.54,12.57 6.54,17.82 3,5.25 7.02,9.61 12.06,13.06 5.05,3.46 11.25,5.18 18.61,5.18 5.72,0 11.31,-1.04 16.76,-3.11 5.45,-2.08 10.5,-4.63 15.13,-7.67 7.91,-5.25 14.59,-11.6 20.04,-19.07 5.45,-7.46 9.95,-15.48 13.49,-24.04 3.54,-8.57 6.13,-17.48 7.77,-26.74 1.64,-9.26 2.46,-18.45 2.46,-27.56 0,-6.36 -0.62,-12.85 -1.84,-19.49 -1.23,-6.63 -3.27,-12.71 -6.13,-18.24 -2.86,-5.53 -6.75,-10.09 -11.66,-13.68 -4.91,-3.59 -11.18,-5.39 -18.81,-5.39 -12.27,0 -23.1,3.8 -32.51,11.4 -9.41,7.6 -17.38,16.93 -23.92,27.98 -6.54,11.05 -11.52,22.93 -14.93,35.65 -3.41,12.71 -5.11,24.32 -5.11,34.82zm76.48 -82.49c4.36,0 7.91,1.31 10.63,3.94 2.72,2.62 4.91,5.8 6.54,9.53 1.64,3.73 2.73,7.8 3.28,12.23 0.54,4.42 0.81,8.29 0.81,11.6 0,6.36 -0.54,12.92 -1.64,19.69 -1.09,6.77 -2.79,13.33 -5.11,19.69 -2.32,6.36 -5.32,12.37 -9,18.03 -3.68,5.66 -8.11,10.57 -13.29,14.71 -2.73,2.21 -5.65,4.08 -8.79,5.6 -3.14,1.52 -6.47,2.28 -10.02,2.28 -4.09,0 -7.5,-1.18 -10.23,-3.53 -2.72,-2.35 -4.84,-5.18 -6.34,-8.49 -1.5,-3.32 -2.52,-6.98 -3.07,-10.99 -0.54,-4 -0.82,-7.67 -0.82,-10.99 0,-6.36 1.02,-14.23 3.07,-23.63 2.04,-9.4 5.04,-18.52 8.99,-27.36 3.96,-8.84 8.86,-16.44 14.72,-22.8 5.87,-6.36 12.61,-9.54 20.25,-9.54zm119.82 145.92c8.45,0 16.91,-2.69 25.36,-8.08 8.46,-5.39 16.5,-11.95 24.13,-19.69 7.64,-7.74 14.52,-16.02 20.66,-24.87 6.13,-8.84 11.24,-16.58 15.33,-23.21 1.36,-2.21 2.73,-4.56 4.09,-7.05 1.37,-2.49 2.05,-5.12 2.05,-7.88 0,-1.93 -0.41,-3.66 -1.23,-5.18 -0.82,-1.52 -2.32,-2.28 -4.5,-2.28 -2.18,0 -3.88,0.55 -5.11,1.66 -1.22,1.1 -2.38,2.49 -3.48,4.14 -1.91,2.77 -3.68,5.6 -5.31,8.5 -1.64,2.9 -3.41,5.73 -5.32,8.5 -2.72,3.87 -6.34,8.71 -10.83,14.51 -4.5,5.8 -9.41,11.4 -14.72,16.79 -5.32,5.39 -10.83,9.95 -16.56,13.68 -5.72,3.73 -11.05,5.6 -15.95,5.6 -5.72,0 -10.22,-2.62 -13.49,-7.88 -3.27,-5.25 -5.86,-11.47 -7.77,-18.65 -1.9,-7.18 -3.13,-14.44 -3.68,-21.76 -0.55,-7.32 -0.82,-13.06 -0.82,-17.2 0,-2.49 0.07,-5.6 0.21,-9.33 0.14,-3.73 0.62,-6.7 1.43,-8.92 0.55,-1.93 1.57,-4 3.07,-6.22 1.5,-2.21 2.8,-4.14 3.88,-5.8 3.28,-5.53 6.61,-10.85 10.02,-15.96 3.41,-5.11 6.61,-10.43 9.61,-15.96 6.28,-11.33 12.41,-24.18 18.4,-38.55 6,-14.37 11.45,-29.16 16.36,-44.36 4.91,-15.2 8.86,-30.4 11.86,-45.6 3,-15.2 4.5,-29.29 4.5,-42.28 0,-3.87 -0.41,-8.01 -1.23,-12.44 -0.82,-4.42 -2.12,-8.5 -3.89,-12.23 -1.77,-3.73 -4.22,-6.77 -7.36,-9.12 -3.14,-2.35 -7.15,-3.52 -12.06,-3.52 -6,0 -11.93,2.21 -17.79,6.63 -5.87,4.43 -11.32,9.88 -16.36,16.38 -5.04,6.49 -9.47,13.19 -13.29,20.1 -3.81,6.91 -6.82,12.85 -8.99,17.83 -11.45,26.81 -19.49,54.37 -24.13,82.7 -4.64,28.32 -6.95,57 -6.95,86.01 0,5.25 0.2,12.16 0.61,20.73 0.41,8.56 1.16,17.75 2.25,27.56 1.09,9.81 2.72,19.62 4.91,29.43 2.18,9.81 5.18,18.65 8.99,26.53 3.82,7.88 8.39,14.3 13.7,19.28 5.31,4.97 11.79,7.46 19.42,7.46zm38.85 -340.75c1.63,0 2.86,0.62 3.68,1.87 0.81,1.24 1.43,2.69 1.84,4.35 0.4,1.65 0.61,3.45 0.61,5.39 0,1.66 0,2.9 0,3.73 0,13.27 -2.05,27.91 -6.13,43.94 -4.09,16.03 -9.2,32.13 -15.33,48.29 -6.13,16.17 -12.95,31.78 -20.46,46.84 -7.5,15.06 -14.51,28.26 -21.06,39.59 -0.27,-2.21 -0.41,-4.15 -0.41,-5.8 0,-1.94 0,-4.01 0,-6.22 0,-19.9 2.39,-40.7 7.16,-62.39 4.77,-21.69 10.02,-42.08 15.75,-61.14 1.09,-3.32 2.66,-8.29 4.7,-14.92 2.05,-6.63 4.5,-13.13 7.36,-19.49 2.86,-6.36 6.21,-11.95 10.02,-16.79 3.81,-4.83 7.91,-7.25 12.27,-7.25zm37.62 277.32c0,6.08 0.68,12.44 2.04,19.07 1.37,6.63 3.55,12.57 6.55,17.82 3,5.25 7.02,9.61 12.06,13.06 5.05,3.46 11.25,5.18 18.61,5.18 5.72,0 11.31,-1.04 16.76,-3.11 5.45,-2.08 10.5,-4.63 15.13,-7.67 7.91,-5.25 14.59,-11.6 20.03,-19.07 5.45,-7.46 9.96,-15.48 13.5,-24.04 3.54,-8.57 6.13,-17.48 7.77,-26.74 1.64,-9.26 2.45,-18.45 2.45,-27.56 0,-6.36 -0.61,-12.85 -1.84,-19.49 -1.22,-6.63 -3.27,-12.71 -6.13,-18.24 -2.86,-5.53 -6.75,-10.09 -11.65,-13.68 -4.91,-3.59 -11.18,-5.39 -18.82,-5.39 -12.27,0 -23.1,3.8 -32.51,11.4 -9.41,7.6 -17.38,16.93 -23.93,27.98 -6.54,11.05 -11.52,22.93 -14.92,35.65 -3.41,12.71 -5.11,24.32 -5.11,34.82zm76.47 -82.49c4.37,0 7.91,1.31 10.64,3.94 2.72,2.62 4.91,5.8 6.54,9.53 1.64,3.73 2.73,7.8 3.28,12.23 0.55,4.42 0.82,8.29 0.82,11.6 0,6.36 -0.54,12.92 -1.64,19.69 -1.09,6.77 -2.8,13.33 -5.11,19.69 -2.32,6.36 -5.32,12.37 -9,18.03 -3.68,5.66 -8.11,10.57 -13.29,14.71 -2.73,2.21 -5.65,4.08 -8.8,5.6 -3.13,1.52 -6.47,2.28 -10.02,2.28 -4.09,0 -7.5,-1.18 -10.22,-3.53 -2.73,-2.35 -4.84,-5.18 -6.34,-8.49 -1.49,-3.32 -2.52,-6.98 -3.06,-10.99 -0.55,-4 -0.82,-7.67 -0.82,-10.99 0,-6.36 1.02,-14.23 3.07,-23.63 2.04,-9.4 5.04,-18.52 8.99,-27.36 3.96,-8.84 8.86,-16.44 14.72,-22.8 5.86,-6.36 12.61,-9.54 20.24,-9.54zm188.13 127.68c2.72,0 4.91,-0.69 6.54,-2.08 1.64,-1.38 3.14,-3.18 4.5,-5.39 2.18,-3.32 5.24,-8.64 9.2,-15.96 3.95,-7.32 8.52,-15.54 13.7,-24.67 5.18,-9.12 10.7,-18.59 16.56,-28.39 5.87,-9.81 11.59,-18.73 17.18,-26.74 5.59,-8.01 10.84,-14.58 15.75,-19.69 4.91,-5.11 9,-7.67 12.27,-7.67 1.64,0 2.93,0.69 3.88,2.07 0.96,1.38 1.64,2.97 2.05,4.77 0.41,1.79 0.68,3.66 0.82,5.6 0.13,1.93 0.2,3.45 0.2,4.56 0,12.71 -0.61,25.29 -1.84,37.72 -1.23,12.44 -1.84,24.87 -1.84,37.31 0,4.97 0.21,10.64 0.61,16.99 0.41,6.36 1.57,12.44 3.48,18.24 1.91,5.81 4.71,10.64 8.38,14.51 3.68,3.87 8.93,5.8 15.75,5.8 7.09,0 14.79,-2.35 23.1,-7.05 8.31,-4.7 16.49,-10.43 24.54,-17.2 8.04,-6.77 15.4,-13.89 22.09,-21.35 6.68,-7.46 12.06,-13.96 16.15,-19.49 0.82,-1.1 1.7,-2.42 2.66,-3.94 0.95,-1.52 1.43,-2.97 1.43,-4.35 0,-1.93 -0.34,-3.87 -1.02,-5.8 -0.68,-1.93 -2.25,-2.9 -4.7,-2.9 -2.73,0 -5.18,1.31 -7.36,3.94 -2.18,2.63 -3.96,4.91 -5.32,6.84 -2.73,3.59 -6.54,8.23 -11.45,13.89 -4.91,5.66 -10.22,11.12 -15.95,16.37 -5.72,5.25 -11.52,9.74 -17.38,13.47 -5.87,3.73 -11.11,5.6 -15.75,5.6 -2.72,0 -4.84,-0.83 -6.34,-2.49 -1.5,-1.66 -2.59,-3.59 -3.27,-5.81 -0.69,-2.21 -1.09,-4.63 -1.23,-7.25 -0.14,-2.63 -0.21,-4.91 -0.21,-6.84 0,-16.03 0.95,-31.99 2.86,-47.88 1.9,-15.89 2.86,-31.85 2.86,-47.88 0,-3.87 -0.48,-7.81 -1.43,-11.81 -0.95,-4.01 -2.45,-7.67 -4.5,-10.99 -2.04,-3.31 -4.71,-6.08 -7.98,-8.29 -3.27,-2.21 -7.09,-3.32 -11.45,-3.32 -6.27,0 -12.33,2.08 -18.19,6.22 -5.87,4.15 -11.32,9.12 -16.36,14.92 -5.04,5.81 -9.74,11.88 -14.11,18.24 -4.36,6.36 -8.18,11.88 -11.45,16.58 -5.45,8.01 -10.98,15.96 -16.56,23.84 -5.59,7.87 -10.84,15.96 -15.75,24.25 -0.54,0.83 -1.43,2.28 -2.66,4.35 -1.23,2.07 -2.25,3.11 -3.07,3.11 -0.54,0 -0.95,-0.42 -1.22,-1.24 -0.27,-0.83 -0.41,-1.39 -0.41,-1.66 -1.09,-4.15 -1.63,-8.43 -1.63,-12.85 0,-4.7 0,-9.12 0,-13.26 0,-8.01 0.13,-16.03 0.4,-24.04 0.28,-8.01 0.41,-16.03 0.41,-24.04 0,-2.77 -0.2,-6.08 -0.61,-9.95 -0.41,-3.87 -1.23,-7.6 -2.45,-11.19 -1.23,-3.59 -2.93,-6.63 -5.11,-9.12 -2.18,-2.49 -5.18,-3.73 -9,-3.73 -5.45,0 -11.45,2.83 -17.99,8.5 -6.55,5.66 -12.88,12.36 -19.02,20.1 -6.13,7.74 -11.79,15.61 -16.97,23.63 -5.18,8.01 -9.27,14.23 -12.26,18.65 1.36,-8.01 3,-16.03 4.91,-24.04 1.91,-8.01 4.36,-15.75 7.36,-23.21 1.09,-2.77 2.46,-6.08 4.09,-9.95 1.63,-3.87 3.27,-7.81 4.91,-11.81 1.64,-4.01 3,-7.95 4.09,-11.81 1.09,-3.87 1.64,-7.19 1.64,-9.95 0,-3.04 -0.68,-5.46 -2.04,-7.26 -1.36,-1.8 -3.54,-2.69 -6.55,-2.69 -5.72,0 -11.72,1.38 -17.99,4.15 -6.27,2.76 -10.9,6.91 -13.9,12.44 -1.64,3.31 -3.68,9.12 -6.13,17.41 -2.45,8.29 -4.91,17.89 -7.36,28.81 -2.46,10.91 -4.91,22.45 -7.36,34.62 -2.45,12.16 -4.56,23.83 -6.34,35.03 -1.77,11.19 -3.28,21.21 -4.5,30.05 -1.22,8.85 -1.84,15.34 -1.84,19.49 0,2.49 0.69,4.63 2.05,6.42 1.36,1.8 3.4,2.69 6.13,2.69 3.81,0 6.88,-1.31 9.2,-3.94 2.32,-2.62 4.16,-5.46 5.52,-8.5 1.36,-3.31 3.95,-8.56 7.77,-15.75 3.82,-7.19 8.32,-15.34 13.5,-24.46 5.18,-9.12 10.7,-18.52 16.56,-28.19 5.87,-9.67 11.59,-18.52 17.18,-26.53 5.59,-8.01 10.77,-14.58 15.54,-19.69 4.77,-5.11 8.52,-7.67 11.25,-7.67 2.18,0 3.41,1.1 3.68,3.31 0.27,2.21 0.41,4 0.41,5.39 0,2.76 0,7.74 0,14.92 0,6.91 0,14.92 0,24.04 0,9.12 0.27,18.52 0.81,28.19 0.55,9.67 1.37,18.59 2.46,26.74 1.09,8.15 2.59,14.85 4.49,20.1 1.91,5.25 4.23,7.88 6.96,7.88zm326.35 -130.58c1.91,-0.28 4.77,-0.7 8.59,-1.24 3.82,-0.55 7.56,-1.39 11.25,-2.49 3.68,-1.11 6.89,-2.56 9.61,-4.35 2.73,-1.8 4.09,-3.94 4.09,-6.43 0,-2.49 -1.02,-4.63 -3.07,-6.42 -2.05,-1.8 -4.29,-2.56 -6.75,-2.28l-1.22 0c-8.19,0.55 -16.29,1.38 -24.34,2.49 -8.04,1.11 -16.15,1.93 -24.33,2.49 -4.08,0.28 -8.18,0.42 -12.27,0.42 -3.81,0 -7.77,0.14 -11.86,0.42 -3.54,0.27 -7.02,1.31 -10.43,3.11 -3.41,1.79 -5.11,4.76 -5.11,8.91 0,2.21 0.95,4.7 2.86,7.46 1.9,2.76 4.09,4.15 6.54,4.15 12.27,0 22.22,2.69 29.86,8.08 7.63,5.39 11.45,14.85 11.45,28.39 0,5.53 -0.88,11.75 -2.65,18.65 -1.77,6.91 -4.16,13.68 -7.16,20.31 -3,6.63 -6.34,12.92 -10.02,18.86 -3.68,5.94 -7.56,10.85 -11.66,14.72 -2.18,2.21 -4.77,4.35 -7.77,6.42 -3,2.08 -6.27,3.11 -9.82,3.11 -5.18,0 -9.14,-2.69 -11.86,-8.08 -2.72,-5.39 -4.77,-11.6 -6.13,-18.65 -1.36,-7.05 -2.18,-14.09 -2.45,-21.14 -0.27,-7.05 -0.41,-12.09 -0.41,-15.13 0,-13.26 1.09,-26.53 3.28,-39.8 2.18,-13.26 4.36,-26.53 6.54,-39.8 4.09,-26.53 10.09,-52.72 18,-78.56 7.91,-25.84 16.63,-51.19 26.17,-76.06 1.09,-2.76 2.32,-5.87 3.68,-9.33 1.37,-3.45 2.66,-7.05 3.89,-10.78 1.22,-3.73 2.25,-7.46 3.06,-11.19 0.82,-3.73 1.23,-6.98 1.23,-9.74 0,-3.04 -0.68,-5.46 -2.05,-7.26 -1.37,-1.8 -3.54,-2.69 -6.54,-2.69 -2.45,0 -4.91,0.42 -7.36,1.24 -2.45,0.83 -4.77,1.8 -6.95,2.9 -3.27,1.65 -6.07,3.18 -8.38,4.56 -2.32,1.38 -4.29,2.97 -5.93,4.77 -1.64,1.8 -3.06,3.94 -4.29,6.42 -1.22,2.49 -2.52,5.39 -3.88,8.71 -3.82,9.95 -7.23,20.03 -10.22,30.26 -3,10.22 -6,20.45 -9,30.67 -8.99,31.78 -16.97,63.98 -23.93,96.59 -6.95,32.61 -10.43,65.49 -10.43,98.66 0,6.91 0.48,15.07 1.43,24.46 0.95,9.4 2.93,18.24 5.93,26.53 3,8.29 7.36,15.34 13.09,21.14 5.72,5.81 13.36,8.71 22.9,8.71 8.72,0 17.18,-2.42 25.35,-7.25 8.18,-4.84 15.27,-10.3 21.27,-16.38 11.45,-11.33 20.52,-24.73 27.19,-40.21 6.68,-15.48 10.02,-31.23 10.02,-47.26 0,-11.89 -3,-22.25 -9,-31.09zm81.79 83.32c0,-12.72 1.22,-25.01 3.68,-36.9 0.82,-3.04 1.91,-6.56 3.28,-10.57 1.36,-4 2.73,-8.01 4.09,-12.02 1.37,-4.01 2.52,-7.88 3.48,-11.61 0.96,-3.73 1.43,-6.98 1.43,-9.74 0,-6.08 -3.13,-9.12 -9.41,-9.12 -8.72,0 -15.2,2.56 -19.42,7.67 -4.23,5.11 -7.56,11.4 -10.02,18.86 -2.18,7.18 -4.16,15.54 -5.93,25.08 -1.77,9.53 -2.66,18.17 -2.66,25.91 0,6.08 0.41,13.19 1.23,21.35 0.82,8.15 2.59,15.89 5.32,23.21 2.72,7.32 6.47,13.54 11.25,18.65 4.77,5.12 11.24,7.67 19.43,7.67 7.36,0 14.85,-2.42 22.49,-7.26 7.64,-4.84 15.07,-10.71 22.29,-17.62 7.23,-6.91 13.84,-14.16 19.83,-21.76 6,-7.6 10.9,-14.16 14.72,-19.69 0.82,-1.11 1.84,-2.56 3.06,-4.35 1.23,-1.8 2.46,-3.73 3.68,-5.8 1.23,-2.08 2.25,-4.08 3.07,-6.01 0.81,-1.93 1.22,-3.59 1.22,-4.97 0,-2.21 -0.2,-4.28 -0.61,-6.22 -0.41,-1.93 -1.98,-2.9 -4.71,-2.9 -2.72,0 -4.97,1.24 -6.75,3.73 -1.77,2.49 -3.34,4.7 -4.7,6.63 -2.73,4.42 -6.61,10.36 -11.66,17.83 -5.04,7.46 -10.63,14.71 -16.77,21.76 -6.13,7.05 -12.41,13.13 -18.81,18.24 -6.41,5.11 -12.33,7.67 -17.79,7.67 -3.54,0 -6.28,-1.52 -8.18,-4.56 -1.91,-3.04 -3.34,-6.63 -4.29,-10.78 -0.95,-4.15 -1.5,-8.29 -1.64,-12.44 -0.14,-4.15 -0.21,-7.46 -0.21,-9.95zm16.36 -153.38c-5.45,0 -10.02,2.35 -13.7,7.05 -3.68,4.7 -5.52,9.67 -5.52,14.92 0,4.15 1.22,7.81 3.68,10.99 2.46,3.18 5.86,4.77 10.22,4.77 5.45,0 10.09,-2.28 13.9,-6.84 3.82,-4.56 5.72,-9.61 5.72,-15.13 0,-4.14 -1.29,-7.8 -3.88,-10.98 -2.59,-3.18 -6.07,-4.77 -10.43,-4.77zm245.78 135.55c0,-5.25 -2.18,-7.88 -6.54,-7.88 -3,0 -5.32,1.18 -6.95,3.53 -1.64,2.35 -3.14,4.63 -4.5,6.84 -2.45,3.87 -6.13,8.98 -11.04,15.34 -4.91,6.36 -10.23,12.5 -15.95,18.44 -5.72,5.94 -11.59,11.12 -17.59,15.54 -5.99,4.42 -11.45,6.63 -16.35,6.63 -3.28,0 -5.8,-1.73 -7.57,-5.18 -1.77,-3.46 -3.07,-7.46 -3.88,-12.02 -0.82,-4.56 -1.3,-9.05 -1.43,-13.47 -0.14,-4.42 -0.21,-7.74 -0.21,-9.95 0,-7.19 0.48,-14.85 1.43,-23.01 0.95,-8.16 2.52,-15.82 4.7,-23.01 1.09,-3.04 2.59,-7.05 4.5,-12.02 1.9,-4.97 2.86,-8.98 2.86,-12.02 0,-2.77 -1.02,-4.56 -3.07,-5.39 -2.04,-0.83 -4.15,-1.24 -6.34,-1.24 -3.82,0 -6.75,1.31 -8.79,3.94 -2.05,2.62 -3.75,5.45 -5.12,8.49 -1.36,2.77 -3.33,6.98 -5.92,12.65 -2.59,5.66 -5.65,11.81 -9.2,18.44 -3.55,6.63 -7.3,13.47 -11.25,20.52 -3.95,7.05 -7.98,13.41 -12.06,19.07 -4.09,5.66 -8.04,10.36 -11.86,14.1 -3.81,3.73 -7.22,5.6 -10.22,5.6 -2.45,0 -3.96,-1.24 -4.5,-3.73 -0.54,-2.49 -0.81,-4.56 -0.81,-6.22 0,-15.76 3.13,-30.47 9.41,-44.15 6.27,-13.68 14.72,-26.05 25.36,-37.1 5.99,-6.36 12.34,-11.95 19.02,-16.79 6.68,-4.84 13.7,-9.46 21.06,-13.89 1.09,-0.55 2.05,-1.18 2.86,-1.87 0.82,-0.7 1.23,-1.73 1.23,-3.11 0,-3.04 -1.5,-5.94 -4.5,-8.71 -3,-2.77 -6,-4.15 -8.99,-4.15 -12,0 -23.52,4.15 -34.56,12.44 -11.05,8.29 -20.86,18.59 -29.44,30.88 -8.59,12.29 -15.47,25.35 -20.65,39.17 -5.18,13.82 -7.77,26.12 -7.77,36.89 0,3.87 0.34,8.29 1.02,13.26 0.68,4.97 1.91,9.67 3.68,14.1 1.77,4.42 4.29,8.15 7.56,11.19 3.27,3.04 7.36,4.56 12.27,4.56 5.45,0 10.97,-2.07 16.56,-6.22 5.59,-4.14 10.98,-9.12 16.15,-14.92 5.18,-5.8 9.89,-11.81 14.11,-18.03 4.23,-6.22 7.71,-11.4 10.43,-15.54 -0.27,4.97 -0.13,11.12 0.41,18.45 0.55,7.32 1.91,14.37 4.09,21.14 2.18,6.77 5.31,12.57 9.4,17.41 4.09,4.84 9.55,7.26 16.36,7.26 7.08,0 14.24,-2.08 21.47,-6.22 7.23,-4.15 14.04,-9.26 20.45,-15.34 6.41,-6.08 12.34,-12.57 17.79,-19.48 5.45,-6.91 10.09,-12.99 13.9,-18.24 1.36,-2.21 3.2,-4.97 5.52,-8.29 2.32,-3.31 3.47,-6.22 3.47,-8.71z"/>
   </g>
   <path class="fil8" d="M3445.89 1040.41c49.39,0 89.43,40.04 89.43,89.43 0,49.39 -40.04,89.43 -89.43,89.43 -49.39,0 -89.43,-40.04 -89.43,-89.43 0,-49.39 40.04,-89.43 89.43,-89.43z"/>
   <polygon class="fil0" points="1434.92,263.01 1447.68,452.11 1560.66,299.93 1469.16,465.91 1646.49,398.97 1479.77,489.14 1665.13,528.69 1476.14,514.41 1610.69,647.9 1459.42,533.71 1500.45,718.75 1434.92,540.91 1369.39,718.75 1410.42,533.71 1259.14,647.9 1393.7,514.41 1204.7,528.69 1390.07,489.14 1223.35,398.97 1400.67,465.91 1309.17,299.93 1422.15,452.12 "/>
   <path class="fil9" d="M1434.92 422.18c40.54,0 73.41,32.87 73.41,73.41 0,40.54 -32.87,73.41 -73.41,73.41 -40.54,0 -73.41,-32.87 -73.41,-73.41 0,-40.54 32.87,-73.41 73.41,-73.41z"/>
  </g>
 </g>
</svg>
