<?xml version="1.0" encoding="UTF-8"?>
<!DOCTYPE svg PUBLIC "-//W3C//DTD SVG 1.1//EN" "http://www.w3.org/Graphics/SVG/1.1/DTD/svg11.dtd">
<!-- Creator: CorelDRAW 2020 (64-Bit) -->
<svg xmlns="http://www.w3.org/2000/svg" xml:space="preserve" width="141.684mm" height="55.4059mm" version="1.1" style="shape-rendering:geometricPrecision; text-rendering:geometricPrecision; image-rendering:optimizeQuality; fill-rule:evenodd; clip-rule:evenodd"
viewBox="0 0 13031.67 5096.07"
 xmlns:xlink="http://www.w3.org/1999/xlink"
 xmlns:xodm="http://www.corel.com/coreldraw/odm/2003">
 <defs>
  <style type="text/css">
   <![CDATA[
    .fil2 {fill:#F4EB28}
    .fil3 {fill:white}
    .fil7 {fill:#3340A3;fill-rule:nonzero}
    .fil0 {fill:#CCCCCC;fill-rule:nonzero}
    .fil4 {fill:white;fill-rule:nonzero}
    .fil5 {fill:url(#id0)}
    .fil1 {fill:url(#id1)}
    .fil6 {fill:url(#id2);fill-rule:nonzero}
   ]]>
  </style>
  <linearGradient id="id0" gradientUnits="userSpaceOnUse" x1="1558.48" y1="3566.61" x2="4386.57" y2="3598.82">
   <stop offset="0" style="stop-opacity:1; stop-color:#F58634"/>
   <stop offset="0.14902" style="stop-opacity:1; stop-color:#FAC21A"/>
   <stop offset="0.6" style="stop-opacity:1; stop-color:yellow"/>
   <stop offset="1" style="stop-opacity:1; stop-color:white"/>
  </linearGradient>
  <linearGradient id="id1" gradientUnits="userSpaceOnUse" x1="-17.1" y1="4139.24" x2="7084.19" y2="4333.91">
   <stop offset="0" style="stop-opacity:1; stop-color:#F58634"/>
   <stop offset="0.14902" style="stop-opacity:1; stop-color:#FAC21A"/>
   <stop offset="0.6" style="stop-opacity:1; stop-color:yellow"/>
   <stop offset="1" style="stop-opacity:1; stop-color:aqua"/>
  </linearGradient>
  <linearGradient id="id2" gradientUnits="userSpaceOnUse" x1="6623.93" y1="3528.6" x2="6672.64" y2="808.12">
   <stop offset="0" style="stop-opacity:1; stop-color:#3333B0"/>
   <stop offset="0.341176" style="stop-opacity:1; stop-color:#33CF10"/>
   <stop offset="1" style="stop-opacity:1; stop-color:yellow"/>
  </linearGradient>
 </defs>
 <g id="Capa_x0020_1">
  <metadata id="CorelCorpID_0Corel-Layer"/>
  <path class="fil0" d="M5412.13 674.28c-114.28,244.02 -221.62,502.7 -322.01,776.06 -100.38,273.37 -186.1,548.27 -257.14,824.71 -71.04,276.45 -125.87,544.4 -164.47,803.86 -38.61,259.46 -53.28,497.29 -44.02,713.51 -43.24,0 -81.85,-75.68 -115.83,-227.03 -33.98,-151.36 -44.02,-363.71 -30.11,-637.07 13.9,-273.36 61.77,-599.99 143.62,-979.91 81.86,-379.93 220.08,-801.54 414.67,-1264.87 -148.26,9.27 -284.16,24.71 -407.72,46.34 -123.55,21.61 -230.12,49.42 -319.69,83.4 -24.71,-15.44 -46.33,-38.61 -64.86,-69.5 -18.53,-30.89 -30.11,-62.55 -34.75,-94.98 -4.64,-32.43 -0.77,-64.09 11.58,-94.98 12.36,-30.9 37.07,-55.6 74.13,-74.13 231.66,-49.42 472.59,-76.45 722.78,-81.08 250.19,-4.64 479.53,10.81 688.03,46.33 208.49,35.52 378.38,88.03 509.65,157.53 131.27,69.5 195.37,155.21 192.28,257.14 -135.91,-61.77 -294.21,-106.56 -474.91,-134.36 -180.7,-27.8 -354.44,-44.79 -521.23,-50.96zm875.68 1718.91c12.35,-18.53 26.26,-33.98 41.7,-46.33 15.44,-12.36 29.34,-17.76 41.69,-16.22 12.36,1.55 18.53,10.03 18.53,25.48 0,15.44 -9.26,41.7 -27.8,78.77 -18.53,37.07 -51.74,101.16 -99.61,192.28 -47.88,91.11 -98.85,187.64 -152.9,289.57 -54.05,101.93 -105.79,198.46 -155.21,289.57 -49.42,91.12 -83.4,153.68 -101.93,187.65 -71.04,132.81 -138.22,191.51 -201.54,176.06 -63.33,-15.45 -94.98,-106.56 -94.98,-273.37 -33.98,86.49 -81.85,155.21 -143.63,206.18 -61.77,50.96 -120.46,74.91 -176.06,71.82 -92.66,-3.09 -160.61,-45.56 -203.86,-127.41 -43.24,-81.86 -65.63,-191.51 -67.18,-328.97 -1.55,-137.45 16.22,-295.75 53.28,-474.9 37.07,-179.15 89.58,-366.02 157.53,-560.62 15.44,-43.25 37.84,-67.95 67.18,-74.13 29.34,-6.17 59.46,-2.32 90.35,11.59 30.89,13.9 59.45,33.2 85.71,57.91 26.25,24.71 44.01,46.34 53.28,64.86 -64.86,132.82 -123.55,274.91 -176.06,426.26 -52.51,151.35 -90.35,291.12 -113.51,419.31 -23.17,128.19 -27.03,234.74 -11.59,319.69 15.44,84.94 60.24,127.41 134.36,127.41 40.16,-3.09 85.72,-40.15 136.69,-111.19 50.96,-71.04 96.52,-176.06 136.68,-315.06 18.53,-117.38 49.42,-254.06 92.66,-410.04 43.25,-155.98 100.39,-331.27 171.44,-525.87 12.35,-33.98 30.89,-52.51 55.59,-55.59 24.71,-3.09 50.97,3.08 78.77,18.53 27.8,15.44 53.28,37.06 76.45,64.86 23.16,27.8 37.83,52.51 44.01,74.13 -74.13,142.08 -135.13,287.25 -183.01,435.52 -47.88,148.26 -84.95,280.31 -111.2,396.14 -26.26,115.83 -41.7,204.63 -46.33,266.41 -4.64,61.77 2.31,78.76 20.84,50.96 18.53,-27.8 49.43,-82.63 92.67,-164.48 43.25,-81.85 91.12,-171.43 143.63,-268.72 52.51,-97.3 103.47,-191.51 152.89,-282.63 49.42,-91.12 89.58,-162.94 120.46,-215.45zm1037.83 -1033.21c43.25,0 70.27,10.04 81.09,30.12 10.81,20.08 11.58,44.01 2.31,71.82 -9.26,27.8 -25.48,55.59 -48.65,83.4 -23.17,27.8 -47.1,49.42 -71.82,64.86l-514.28 0c-114.29,281.08 -206.95,532.81 -277.99,755.21 -71.04,222.39 -125.87,409.26 -164.48,560.62 -38.61,151.35 -62.54,262.54 -71.82,333.58 -9.26,71.04 -6.17,94.21 9.27,69.5 18.53,-27.8 49.42,-82.62 92.66,-164.47 43.25,-81.85 91.12,-171.43 143.63,-268.73 52.51,-97.29 104.25,-192.28 155.21,-284.94 50.96,-92.67 90.35,-163.71 118.15,-213.13 12.35,-18.53 26.25,-33.98 41.69,-46.34 15.44,-12.35 29.34,-17.75 41.7,-16.22 12.35,1.55 19.31,10.04 20.85,25.49 1.54,15.44 -6.95,41.7 -25.49,78.76 -18.53,37.07 -52.51,101.17 -101.93,192.28 -49.42,91.12 -101.16,187.65 -155.21,289.58 -54.05,101.93 -105.02,198.45 -152.89,289.57 -47.88,91.12 -81.09,152.12 -99.62,183.02 -37.07,67.95 -76.44,118.92 -118.14,152.89 -41.7,33.98 -77.99,41.69 -108.88,23.17 -30.89,-18.53 -52.51,-67.19 -64.86,-145.95 -12.35,-78.77 -8.49,-195.37 11.58,-349.81 20.08,-154.44 60.24,-351.35 120.46,-590.73 60.24,-239.38 147.49,-530.51 261.78,-873.36 -148.26,-3.09 -271.04,-4.64 -368.33,-4.64 -97.3,0 -161.39,-1.55 -192.28,-4.63 15.44,-27.8 31.66,-56.37 48.65,-85.71 16.99,-29.35 37.84,-61.01 62.54,-94.98 21.62,0 78,-2.32 169.12,-6.95 91.11,-4.63 209.27,-10.03 354.43,-16.22 27.8,-80.31 57.15,-163.7 88.03,-250.19 30.89,-86.49 63.32,-176.06 97.3,-268.73 12.35,-33.98 34.75,-49.42 67.18,-46.33 32.43,3.09 65.63,15.44 99.61,37.07 33.98,21.61 65.63,48.65 94.98,81.08 29.34,32.43 47.1,59.46 53.27,81.08 -27.8,61.78 -54.82,121.24 -81.08,178.38 -26.25,57.15 -51.74,113.52 -76.45,169.11 117.38,-6.17 216.22,-10.81 296.52,-13.9 80.31,-3.09 134.37,-4.64 162.16,-4.64zm569.88 1033.21c12.35,-18.53 26.26,-33.98 41.7,-46.33 15.44,-12.36 29.34,-17.76 41.69,-16.22 12.36,1.55 18.53,10.03 18.53,25.48 0,15.44 -9.26,41.7 -27.8,78.77 -18.53,37.07 -51.74,101.16 -99.61,192.28 -47.88,91.11 -98.85,187.64 -152.9,289.57 -54.05,101.93 -105.79,198.46 -155.21,289.57 -49.42,91.12 -83.4,153.68 -101.93,187.65 -71.04,132.81 -138.22,191.51 -201.54,176.06 -63.33,-15.45 -94.98,-106.56 -94.98,-273.37 -33.98,86.49 -81.85,155.21 -143.63,206.18 -61.77,50.96 -120.46,74.91 -176.06,71.82 -92.66,-3.09 -160.61,-45.56 -203.86,-127.41 -43.24,-81.86 -65.63,-191.51 -67.18,-328.97 -1.55,-137.45 16.22,-295.75 53.28,-474.9 37.07,-179.15 89.58,-366.02 157.53,-560.62 15.44,-43.25 37.84,-67.95 67.18,-74.13 29.34,-6.17 59.46,-2.32 90.35,11.59 30.89,13.9 59.45,33.2 85.71,57.91 26.25,24.71 44.01,46.34 53.28,64.86 -64.86,132.82 -123.55,274.91 -176.06,426.26 -52.51,151.35 -90.35,291.12 -113.51,419.31 -23.17,128.19 -27.03,234.74 -11.59,319.69 15.44,84.94 60.24,127.41 134.36,127.41 40.16,-3.09 85.72,-40.15 136.69,-111.19 50.96,-71.04 96.52,-176.06 136.68,-315.06 18.53,-117.38 49.42,-254.06 92.66,-410.04 43.25,-155.98 100.39,-331.27 171.44,-525.87 12.35,-33.98 30.89,-52.51 55.59,-55.59 24.71,-3.09 50.97,3.08 78.77,18.53 27.8,15.44 53.28,37.06 76.45,64.86 23.16,27.8 37.83,52.51 44.01,74.13 -74.13,142.08 -135.13,287.25 -183.01,435.52 -47.88,148.26 -84.95,280.31 -111.2,396.14 -26.26,115.83 -41.7,204.63 -46.33,266.41 -4.64,61.77 2.31,78.76 20.84,50.96 18.53,-27.8 49.43,-82.63 92.67,-164.48 43.25,-81.85 91.12,-171.43 143.63,-268.72 52.51,-97.3 103.47,-191.51 152.89,-282.63 49.42,-91.12 89.58,-162.94 120.46,-215.45zm1042.47 0c12.35,-18.53 26.25,-33.98 41.69,-46.33 15.45,-12.36 29.35,-17.76 41.7,-16.22 12.35,1.55 18.53,10.03 18.53,25.48 0,15.44 -9.26,41.7 -27.8,78.77 -18.53,37.07 -54.05,101.93 -106.56,194.6 -52.51,92.66 -108.88,191.51 -169.12,296.52 -60.23,105.01 -118.14,203.09 -173.74,294.21 -55.59,91.11 -94.2,153.67 -115.83,187.64 -61.77,95.75 -115.05,151.35 -159.85,166.79 -44.78,15.44 -75.67,-10.81 -92.66,-78.76 -16.99,-67.95 -16.22,-177.61 2.31,-328.96 18.53,-151.36 61.78,-347.49 129.73,-588.42 -71.04,15.45 -143.63,21.62 -217.76,18.53 -74.13,-3.08 -143.63,-16.99 -208.5,-41.69 -64.86,-24.71 -108.1,-71.04 -129.72,-139 -21.62,-67.95 -26.26,-135.13 -13.9,-201.55 12.35,-66.41 40.92,-122.78 85.71,-169.11 44.78,-46.33 102.7,-61.77 173.74,-46.33 101.93,27.8 98.84,148.26 -9.27,361.39 46.34,9.26 99.62,8.49 159.85,-2.32 60.24,-10.81 120.46,-30.89 180.7,-60.23 60.23,-29.35 115.83,-68.73 166.79,-118.15 50.96,-49.42 88.8,-109.65 113.52,-180.69 21.61,6.17 38.6,22.39 50.96,48.65 12.35,26.25 19.31,57.92 20.85,94.98 1.55,37.07 -1.55,77.22 -9.27,120.47 -7.72,43.24 -19.31,83.4 -34.75,120.46 -9.26,15.44 -18.53,27.8 -27.8,37.07 -9.27,9.26 -20.08,20.07 -32.43,32.43 -43.25,117.37 -81.86,233.2 -115.84,347.49 -33.98,114.28 -61.77,215.44 -83.4,303.47 -21.62,88.03 -34.75,154.44 -39.38,199.23 -4.63,44.78 0.77,56.37 16.22,34.75 21.62,-30.89 57.92,-88.03 108.88,-171.43 50.96,-83.4 105.02,-173.74 162.16,-271.05 57.15,-97.29 112.74,-192.28 166.79,-284.94 54.05,-92.67 96.53,-165.26 127.42,-217.76zm-968.34 -264.09c-24.71,-9.26 -45.56,-6.94 -62.54,6.95 -16.99,13.9 -28.57,32.43 -34.75,55.6 -6.18,23.16 -5.41,47.87 2.32,74.12 7.72,26.26 23.94,45.57 48.65,57.92 27.8,-52.51 47.1,-96.52 57.92,-132.04 10.81,-35.52 6.94,-56.37 -11.59,-62.55zm963.71 -50.96c12.35,-33.98 30.89,-52.51 55.59,-55.6 24.71,-3.08 50.97,3.09 78.77,18.53 27.8,15.44 52.51,37.07 74.13,64.87 21.61,27.8 35.52,52.51 41.69,74.12 -71.04,142.09 -131.27,287.26 -180.69,435.52 -49.42,148.27 -86.49,280.31 -111.2,396.15 -24.71,115.83 -39.38,204.63 -44.01,266.4 -4.64,61.78 2.31,78.77 20.84,50.96 15.45,-27.8 45.57,-82.62 90.35,-164.47 44.79,-81.85 92.67,-171.43 143.63,-268.73 50.96,-97.29 101.93,-191.51 152.89,-282.63 50.96,-91.11 91.89,-162.93 122.78,-215.44 12.35,-18.53 26.26,-33.98 41.7,-46.34 15.44,-12.35 29.34,-17.75 41.69,-16.22 12.36,1.55 18.53,10.04 18.53,25.49 0,15.44 -9.26,41.7 -27.8,78.76 -18.53,37.07 -51.74,101.17 -99.61,192.28 -47.88,91.12 -99.62,187.65 -155.21,289.58 -55.6,101.93 -107.34,198.45 -155.22,289.57 -47.87,91.12 -81.08,153.67 -99.61,187.64 -61.77,114.29 -121.24,173.74 -178.38,178.38 -57.14,4.64 -94.2,-47.1 -111.19,-155.21 -16.99,-108.11 -6.18,-273.36 32.43,-495.75 38.61,-222.4 121.24,-505.02 247.88,-847.88zm273.36 32.43c0,-12.35 -9.26,-27.8 -27.8,-46.33 -18.53,-18.53 -38.61,-36.29 -60.24,-53.28 -21.62,-16.99 -44.01,-30.11 -67.18,-39.38 -23.17,-9.26 -39.38,-12.35 -48.65,-9.26 9.26,-30.89 17.76,-56.37 25.48,-76.45 7.73,-20.08 17.76,-45.56 30.11,-76.44 12.36,-33.98 31.67,-53.28 57.92,-57.92 26.26,-4.64 52.51,0.77 78.77,16.22 26.25,15.44 50.19,37.84 71.82,67.18 21.61,29.34 33.98,57.92 37.06,85.71 -15.44,33.98 -31.66,65.63 -48.65,94.98 -16.99,29.34 -33.2,61 -48.65,94.98zm1111.98 296.52c9.26,-21.61 20.84,-38.6 34.75,-50.96 13.9,-12.35 26.25,-17.76 37.06,-16.22 10.82,1.55 17.76,10.82 20.85,27.8 3.09,16.99 -1.55,45.56 -13.9,85.71 -46.33,129.72 -98.84,232.43 -157.53,308.1 -58.69,75.68 -118.92,135.13 -180.7,178.38 15.45,40.15 25.49,83.4 30.12,129.72 4.63,46.34 -0.77,97.3 -16.22,152.89 -15.44,64.87 -42.48,120.47 -81.09,166.8 -38.6,46.33 -83.4,84.17 -134.36,113.51 -50.96,29.35 -106.56,50.96 -166.79,64.87 -60.24,13.9 -119.7,20.84 -178.38,20.84 -117.37,-3.08 -205.4,-38.6 -264.09,-106.56 -58.69,-67.96 -88.03,-142.09 -88.03,-222.4 0,-80.31 30.11,-153.67 90.35,-220.07 60.23,-66.41 153.67,-99.61 280.31,-99.61 33.98,0 67.18,0.77 99.61,2.32 32.43,1.54 65.63,-0.77 99.61,-6.95 -37.07,-40.16 -79.53,-76.45 -127.41,-108.88 -47.88,-32.43 -94.98,-62.54 -141.31,-90.35 -101.93,-58.68 -160.62,-121.24 -176.06,-187.64 -15.44,-66.41 -9.27,-135.13 18.53,-206.18 18.53,-49.42 40.92,-98.07 67.18,-145.95 26.25,-47.87 48.65,-88.79 67.18,-122.78 18.53,-37.06 41.7,-56.36 69.5,-57.91 27.8,-1.55 54.83,5.4 81.08,20.85 26.26,15.44 50.2,37.06 71.82,64.86 21.62,27.8 35.52,52.51 41.7,74.13 -15.44,18.53 -36.29,47.1 -62.54,85.71 -26.26,38.6 -48.66,76.44 -67.19,113.51 -24.71,46.34 -23.93,86.49 2.32,120.46 26.26,33.98 64.1,67.95 113.52,101.93 49.42,33.98 104.25,71.04 164.47,111.2 60.24,40.16 111.97,88.03 155.21,143.63 58.69,-37.07 114.29,-90.35 166.8,-159.85 52.51,-69.5 100.38,-164.48 143.63,-284.95zm-481.86 815.44c12.35,-61.77 1.55,-123.54 -32.43,-185.32 -46.33,6.18 -91.12,9.27 -134.36,9.27 -43.25,0 -86.49,0 -129.73,0 -86.49,0 -150.58,22.39 -192.28,67.18 -41.69,44.78 -62.54,94.2 -62.54,148.26 0,54.05 18.53,104.25 55.6,150.58 37.07,46.33 91.11,71.03 162.16,74.12 80.31,6.18 150.58,-13.9 210.81,-60.23 60.24,-46.34 101.16,-114.29 122.78,-203.87zm2015.44 -824.7c12.36,-18.53 26.26,-33.98 41.7,-46.34 15.44,-12.35 29.34,-17.75 41.7,-16.22 12.35,1.55 19.3,10.04 20.84,25.49 1.55,15.44 -6.94,41.7 -25.48,78.76 -18.53,37.07 -52.51,100.39 -101.93,189.97 -49.43,89.57 -101.94,184.55 -157.53,284.94 -55.6,100.38 -108.88,196.14 -159.85,287.26 -50.96,91.11 -88.8,156.76 -113.52,196.9 -61.77,98.85 -120.46,155.98 -176.06,171.44 -55.59,15.44 -94.2,-15.45 -115.83,-92.67 -21.62,-77.22 -20.08,-201.55 4.64,-372.98 24.71,-171.43 88.03,-393.05 189.96,-664.87 -117.37,80.31 -223.16,189.97 -317.38,328.97 -94.2,139 -167.56,282.62 -220.07,430.89 -37.07,129.72 -64.1,239.38 -81.09,328.96 -16.99,89.58 -22.39,146.72 -16.22,171.43 -95.75,-15.44 -136.68,-142.09 -122.78,-379.92 13.91,-237.83 113.52,-574.52 298.84,-1010.04 -52.51,18.53 -105.02,54.05 -157.53,106.56 -52.51,52.51 -101.93,111.96 -148.26,178.38 -46.34,66.41 -88.03,135.13 -125.1,206.18 -37.07,71.04 -64.86,132.81 -83.4,185.32 -33.98,123.55 -59.46,238.61 -76.45,345.17 -16.99,106.56 -22.4,189.19 -16.22,247.88 -40.16,0 -73.36,-30.11 -99.61,-90.35 -26.26,-60.23 -37.84,-151.35 -34.75,-273.36 3.09,-122.01 25.48,-277.22 67.18,-465.63 41.7,-188.42 108.88,-410.82 201.54,-667.18 12.36,-33.98 31.67,-52.51 57.92,-55.6 26.26,-3.09 53.28,3.09 81.08,18.53 27.8,15.44 52.51,37.07 74.13,64.86 21.62,27.8 35.52,52.51 41.7,74.13 -21.62,33.98 -42.48,73.36 -62.55,118.14 -20.07,44.79 -40.92,93.44 -62.54,145.95 37.07,-58.69 75.68,-115.83 115.83,-171.43 40.16,-55.6 80.31,-105.79 120.46,-150.58 40.16,-44.78 80.31,-79.53 120.46,-104.25 40.16,-24.71 78.77,-37.06 115.84,-37.06 55.6,24.71 93.43,62.54 113.51,113.51 20.08,50.96 33.2,94.98 39.38,132.04 -49.42,92.67 -95.75,193.05 -139,301.16 37.07,-55.6 74.13,-108.11 111.2,-157.53 37.07,-49.42 74.12,-94.98 111.19,-136.68 37.07,-41.7 72.59,-77.22 106.56,-106.56 33.98,-29.34 66.41,-50.19 97.3,-62.54 27.8,6.17 53.28,20.08 76.44,41.69 23.17,21.62 42.48,44.79 57.92,69.5 15.44,24.71 28.57,50.19 39.38,76.45 10.81,26.25 17.76,48.65 20.84,67.18 -74.12,176.06 -133.59,332.05 -178.37,467.95 -44.79,135.91 -78,247.88 -99.62,335.91 -21.61,88.03 -32.43,150.58 -32.43,187.64 0,37.07 7.73,43.25 23.17,18.53 21.62,-37.07 55.6,-97.29 101.93,-180.7 46.33,-83.4 96.52,-172.2 150.58,-266.4 54.05,-94.21 107.34,-186.11 159.85,-275.67 52.51,-89.58 92.67,-160.62 120.46,-213.13zm1093.43 4.64c12.36,-21.62 24.71,-37.84 37.07,-48.66 12.35,-10.81 23.17,-13.9 32.43,-9.26 9.27,4.64 14.67,16.22 16.22,34.75 1.55,18.53 -3.85,43.24 -16.22,74.13 -18.53,46.33 -40.92,99.61 -67.18,159.84 -26.25,60.24 -56.37,120.47 -90.35,180.7 -33.98,60.24 -72.59,117.37 -115.83,171.43 -43.25,54.05 -91.12,98.08 -143.63,132.05 -24.71,61.77 -56.37,124.33 -94.98,187.64 -38.61,63.32 -84.18,118.92 -136.69,166.79 -52.51,47.88 -111.96,84.17 -178.37,108.88 -66.41,24.71 -141.31,27.8 -224.71,9.27 -83.4,-21.62 -149.81,-73.36 -199.23,-155.22 -49.42,-81.85 -82.62,-176.83 -99.61,-284.94 -16.99,-108.11 -20.08,-222.39 -9.27,-342.86 10.82,-120.46 35.52,-231.65 74.13,-333.58 38.61,-101.94 88.03,-187.65 148.27,-257.15 60.23,-69.5 132.04,-105.79 215.44,-108.87 9.27,-3.09 23.17,-1.55 41.7,4.63 37.07,-33.98 77.99,-57.91 122.78,-71.81 44.78,-13.91 93.43,-13.13 145.94,2.31 77.22,18.53 139,55.6 185.33,111.2 46.33,55.6 78.76,123.55 97.29,203.86 18.53,80.31 24.71,169.12 18.53,266.41 -6.18,97.29 -21.62,196.91 -46.33,298.84 0,12.35 -1.55,21.62 -4.64,27.8 61.77,-64.86 115.05,-145.17 159.85,-240.92 44.78,-95.75 88.8,-191.51 132.04,-287.25zm-574.52 -125.1c-49.42,-12.36 -94.98,-5.41 -136.68,20.85 -41.7,26.25 -77.22,64.09 -106.56,113.51 -29.34,49.42 -50.19,105.79 -62.54,169.11 -12.36,63.33 -13.13,125.1 -2.32,185.33 10.81,60.23 36.29,115.83 76.45,166.79 40.15,50.96 98.84,87.26 176.05,108.88 24.71,6.18 46.34,10.03 64.87,11.58 18.53,1.55 37.07,2.32 55.59,2.32 27.8,-80.31 47.11,-164.47 57.92,-252.5 10.82,-88.03 13.9,-169.12 9.27,-243.24 -4.64,-74.13 -17.76,-137.46 -39.38,-189.97 -21.62,-52.51 -52.51,-83.4 -92.67,-92.66zm-361.39 1158.3c83.4,30.89 157.53,18.53 222.39,-37.07 64.86,-55.59 118.92,-132.81 162.16,-231.65 -15.44,0 -29.34,0 -41.7,0 -12.35,0 -26.25,-1.55 -41.69,-4.64 -67.95,-12.35 -126.64,-35.52 -176.06,-69.5 -49.42,-33.98 -89.58,-75.68 -120.46,-125.1 -30.9,-49.42 -53.28,-104.25 -67.18,-164.47 -13.91,-60.24 -20.85,-122.78 -20.85,-187.65 -27.8,80.31 -49.42,164.48 -64.87,252.51 -15.44,88.03 -21.61,171.43 -18.52,250.19 3.08,78.77 17.76,146.72 44.01,203.87 26.26,57.14 67.18,94.98 122.78,113.51z"/>
  <path class="fil1" d="M394.97 496.89c0,0 405.61,867.96 1508.82,1208.66 1103.21,340.7 1752.16,1005.88 1744.05,1687.28 -8.11,681.4 -324.48,1208.68 -324.48,1208.68 -2.67,4.75 -5.78,9.34 -8.62,14.03 -904.23,-155.37 -1845.9,-645.6 -2611.47,-1782.39 680.21,1151.38 1564.12,1697.89 2436.62,1917.43 15.88,3.63 31.68,7.38 47.73,10.8l-1.33 1.07c1694.92,404.31 3332.27,-410.02 3332.27,-410.02 -1196.58,719.48 -4884,1203.26 -5973.54,63.99 -226.09,-236.4 -397.88,-545.17 -476.38,-937.17 -171.45,-856.22 -6.49,-1961.84 326.33,-2982.35z"/>
  <path class="fil2" d="M4525.07 4922.88c33.56,-12.35 1.88,7.87 15.83,-26.45l-49.95 22.88c1.18,0.39 -2.19,16.94 34.12,3.57zm709.4 -1181.15c-154.94,193.46 -504.75,683.94 -644.56,873.41 0,0 11.74,3.38 22.53,10.31 8.69,-16.63 9.07,-19.74 45.84,-31.84 104.5,58.23 -57.21,101.41 -87.97,114.96 52.07,14.94 53.96,-0.29 75.21,79.69 32.29,121.52 19.01,59.18 53.46,111.49l106.42 -16.37c15.78,-67.87 40.38,-57.38 56.58,-121.46 -2.05,-1.59 -5.33,-3.12 -6.7,-3.95l-38.48 -64.9c33.47,8.83 27.2,20.79 54.39,25.51 -10.85,-192.04 117.22,-143.82 146.37,-113.26 54.74,57.38 19.37,20.73 84.35,50.82 -4.94,87.26 -52.74,41.28 -95.1,92.79 -4.6,46.49 14.87,40.89 18.75,93.47 28.02,-3.27 56.92,-7.23 86.57,-11.79 -13.1,4.02 -26.9,7.86 -41.53,11.5 -326.67,81.15 -985.15,124.15 -985.15,124.15l-40.45 -8.81c-36.91,-222.03 -168.61,-292.31 -60.82,-596.68l-40.81 -49.63 -82.15 11.81c5.96,-8.13 5.69,-7.91 16.7,-18.88 54.11,-53.92 42.69,-17.75 41.29,-134.37l131.65 -44.79c84.48,67.08 26.16,47.88 117.22,59.93 9.82,1.3 37,7.28 44.75,14.02l-92.14 36.94c4.96,15.74 48.88,73.54 7.78,123.75l-29.12 20.86c13.59,72.42 30.52,68.63 67.86,125.25 33.25,50.42 33.71,98.13 61.57,141.16 46.63,4.28 100.34,-10.47 147.27,-20.3 121.66,-25.5 78.16,-21.27 128.74,-51.25l57.7 -25.27c163.7,-198.71 476.87,-599.06 671.98,-808.25zm-755.33 971.33l-27.04 44.82 84.74 -40.41 -57.7 -4.41zm-201.03 121.17c21.42,-8.43 93.56,-38.09 108.21,-48.74 16.36,-11.9 36.31,-52.19 50.04,-65.62l-162.48 65.41 4.22 48.94z"/>
  <path class="fil3" d="M2059.08 4134.54l93.63 56.12 85.21 -142.16 -93.63 -56.12 -85.21 142.16zm126.4 75.76l126.41 75.77 85.2 -142.15 -126.4 -75.77 -85.21 142.15zm227.95 -93.62l16.83 -28.09c31.71,-52.91 14.38,-122.13 -38.53,-153.84l-30.22 -18.11 -74.49 124.28 126.41 75.76zm-84.69 -219.69l-11.82 -7.08c-45,-26.98 -103.88,-12.22 -130.86,32.77l-25.45 42.47 93.63 56.12 74.49 -124.28z"/>
  <polygon class="fil4" points="1838.91,4013.57 2501.45,3684 2510.11,3800.51 2494.3,3801.67 2487.39,3708.65 1853.82,4023.82 "/>
  <path class="fil3" d="M1448.19 3700.3l35.06 33.82c9.93,8.77 19.88,17.5 29.83,26.12l91.75 -95.13 -63.57 -61.31 -93.07 96.5zm180.52 156.31l84.18 -87.28 -85.81 -82.76 -90.5 93.83c30.59,26.08 61.29,51.51 92.13,76.21zm102.01 -105.76l18.4 -19.07c34.64,-35.92 33.59,-93.64 -2.32,-128.28l-20.52 -19.78 -81.37 84.36 85.81 82.77zm-26.69 -188.59l-8.02 -7.74c-30.55,-29.46 -79.64,-28.58 -109.11,1.97l-27.8 28.83 63.57 61.3 81.37 -84.36z"/>
  <polygon class="fil4" points="1301.46,3563.69 1879,3425.88 1864.58,3519.28 1851.9,3517.31 1863.42,3442.75 1312.15,3574.28 "/>
  <path class="fil3" d="M1089.03 3336.75l74.08 -60.18 -42.54 -52.36 -75.6 61.41c14.63,17.25 29.33,34.27 44.06,51.13zm76.62 85.51l69.77 -56.69 -57.43 -70.68 -73.39 59.63c20.26,22.96 40.62,45.51 61.05,67.74zm85.01 -69.06l15.7 -12.76c29.59,-24.03 34.12,-67.91 10.09,-97.49l-13.72 -16.9 -69.5 56.46 57.43 70.68zm-2.82 -145.47l-5.37 -6.6c-20.44,-25.16 -57.75,-29.03 -82.91,-8.59l-23.75 19.3 42.54 52.35 69.49 -56.46z"/>
  <polygon class="fil4" points="950.5,3170.73 1393.09,3120.49 1373.53,3189.99 1364.1,3187.32 1379.72,3131.85 957.66,3179.75 "/>
  <path class="fil5" d="M3389.82 0c0,0 -285.84,871.37 299,1820.05 584.83,948.69 615.42,1833.77 149.91,2307.99 -106.1,108.09 -218.63,200.22 -329.15,278.1 124.63,-325.83 196.54,-699.94 200.26,-1012.1 5.53,-464.36 -222.81,-875.4 -547.15,-1194.26 -384.92,-378.4 -902.26,-632.47 -1413.55,-790.37 -62.05,-19.17 -123.08,-40.67 -182.97,-64.47 476.52,-505.94 1131.8,-971.48 1823.65,-1344.95z"/>
  <path class="fil6" d="M5367.52 623.59c-114.28,244.02 -221.62,502.7 -322.01,776.06 -100.38,273.37 -186.1,548.27 -257.14,824.71 -71.04,276.45 -125.87,544.4 -164.47,803.86 -38.61,259.46 -53.28,497.29 -44.02,713.51 -43.24,0 -81.85,-75.68 -115.83,-227.03 -33.98,-151.36 -44.02,-363.71 -30.11,-637.07 13.9,-273.36 61.77,-599.99 143.62,-979.91 81.86,-379.93 220.08,-801.54 414.67,-1264.87 -148.26,9.27 -284.16,24.71 -407.72,46.34 -123.55,21.61 -230.12,49.42 -319.69,83.4 -24.71,-15.44 -46.33,-38.61 -64.86,-69.5 -18.53,-30.89 -30.11,-62.55 -34.75,-94.98 -4.64,-32.43 -0.77,-64.09 11.58,-94.98 12.36,-30.9 37.07,-55.6 74.13,-74.13 231.66,-49.42 472.59,-76.45 722.78,-81.08 250.19,-4.64 479.53,10.81 688.03,46.33 208.49,35.52 378.38,88.03 509.65,157.53 131.27,69.5 195.37,155.21 192.28,257.14 -135.91,-61.77 -294.21,-106.56 -474.91,-134.36 -180.7,-27.8 -354.44,-44.79 -521.23,-50.96zm875.68 1718.91c12.35,-18.53 26.26,-33.98 41.7,-46.33 15.44,-12.36 29.34,-17.76 41.69,-16.22 12.36,1.55 18.53,10.03 18.53,25.48 0,15.44 -9.26,41.7 -27.8,78.77 -18.53,37.07 -51.74,101.16 -99.61,192.28 -47.88,91.11 -98.85,187.64 -152.9,289.57 -54.05,101.93 -105.79,198.46 -155.21,289.57 -49.42,91.12 -83.4,153.68 -101.93,187.65 -71.04,132.81 -138.22,191.51 -201.54,176.06 -63.33,-15.45 -94.98,-106.56 -94.98,-273.37 -33.98,86.49 -81.85,155.21 -143.63,206.18 -61.77,50.96 -120.46,74.91 -176.06,71.82 -92.66,-3.09 -160.61,-45.56 -203.86,-127.41 -43.24,-81.86 -65.63,-191.51 -67.18,-328.97 -1.55,-137.45 16.22,-295.75 53.28,-474.9 37.07,-179.15 89.58,-366.02 157.53,-560.62 15.44,-43.25 37.84,-67.95 67.18,-74.13 29.34,-6.17 59.46,-2.32 90.35,11.59 30.89,13.9 59.45,33.2 85.71,57.91 26.25,24.71 44.01,46.34 53.28,64.86 -64.86,132.82 -123.55,274.91 -176.06,426.26 -52.51,151.35 -90.35,291.12 -113.51,419.31 -23.17,128.19 -27.03,234.74 -11.59,319.69 15.44,84.94 60.24,127.41 134.36,127.41 40.16,-3.09 85.72,-40.15 136.69,-111.19 50.96,-71.04 96.52,-176.06 136.68,-315.06 18.53,-117.38 49.42,-254.06 92.66,-410.04 43.25,-155.98 100.39,-331.27 171.44,-525.87 12.35,-33.98 30.89,-52.51 55.59,-55.59 24.71,-3.09 50.97,3.08 78.77,18.53 27.8,15.44 53.28,37.06 76.45,64.86 23.16,27.8 37.83,52.51 44.01,74.13 -74.13,142.08 -135.13,287.25 -183.01,435.52 -47.88,148.26 -84.95,280.31 -111.2,396.14 -26.26,115.83 -41.7,204.63 -46.33,266.41 -4.64,61.77 2.31,78.76 20.84,50.96 18.53,-27.8 49.43,-82.63 92.67,-164.48 43.25,-81.85 91.12,-171.43 143.63,-268.72 52.51,-97.3 103.47,-191.51 152.89,-282.63 49.42,-91.12 89.58,-162.94 120.46,-215.45zm1037.83 -1033.21c43.25,0 70.27,10.04 81.09,30.12 10.81,20.08 11.58,44.01 2.31,71.82 -9.26,27.8 -25.48,55.59 -48.65,83.4 -23.17,27.8 -47.1,49.42 -71.82,64.86l-514.28 0c-114.29,281.08 -206.95,532.81 -277.99,755.21 -71.04,222.39 -125.87,409.26 -164.48,560.62 -38.61,151.35 -62.54,262.54 -71.82,333.58 -9.26,71.04 -6.17,94.21 9.27,69.5 18.53,-27.8 49.42,-82.62 92.66,-164.47 43.25,-81.85 91.12,-171.43 143.63,-268.73 52.51,-97.29 104.25,-192.28 155.21,-284.94 50.96,-92.67 90.35,-163.71 118.15,-213.13 12.35,-18.53 26.25,-33.98 41.69,-46.34 15.44,-12.35 29.34,-17.75 41.7,-16.22 12.35,1.55 19.31,10.04 20.85,25.49 1.54,15.44 -6.95,41.7 -25.49,78.76 -18.53,37.07 -52.51,101.17 -101.93,192.28 -49.42,91.12 -101.16,187.65 -155.21,289.58 -54.05,101.93 -105.02,198.45 -152.89,289.57 -47.88,91.12 -81.09,152.12 -99.62,183.02 -37.07,67.95 -76.44,118.92 -118.14,152.89 -41.7,33.98 -77.99,41.69 -108.88,23.17 -30.89,-18.53 -52.51,-67.19 -64.86,-145.95 -12.35,-78.77 -8.49,-195.37 11.58,-349.81 20.08,-154.44 60.24,-351.35 120.46,-590.73 60.24,-239.38 147.49,-530.51 261.78,-873.36 -148.26,-3.09 -271.04,-4.64 -368.33,-4.64 -97.3,0 -161.39,-1.55 -192.28,-4.63 15.44,-27.8 31.66,-56.37 48.65,-85.71 16.99,-29.35 37.84,-61.01 62.54,-94.98 21.62,0 78,-2.32 169.12,-6.95 91.11,-4.63 209.27,-10.03 354.43,-16.22 27.8,-80.31 57.15,-163.7 88.03,-250.19 30.89,-86.49 63.32,-176.06 97.3,-268.73 12.35,-33.98 34.75,-49.42 67.18,-46.33 32.43,3.09 65.63,15.44 99.61,37.07 33.98,21.61 65.63,48.65 94.98,81.08 29.34,32.43 47.1,59.46 53.27,81.08 -27.8,61.78 -54.82,121.24 -81.08,178.38 -26.25,57.15 -51.74,113.52 -76.45,169.11 117.38,-6.17 216.22,-10.81 296.52,-13.9 80.31,-3.09 134.37,-4.64 162.16,-4.64zm569.88 1033.21c12.35,-18.53 26.26,-33.98 41.7,-46.33 15.44,-12.36 29.34,-17.76 41.69,-16.22 12.36,1.55 18.53,10.03 18.53,25.48 0,15.44 -9.26,41.7 -27.8,78.77 -18.53,37.07 -51.74,101.16 -99.61,192.28 -47.88,91.11 -98.85,187.64 -152.9,289.57 -54.05,101.93 -105.79,198.46 -155.21,289.57 -49.42,91.12 -83.4,153.68 -101.93,187.65 -71.04,132.81 -138.22,191.51 -201.54,176.06 -63.33,-15.45 -94.98,-106.56 -94.98,-273.37 -33.98,86.49 -81.85,155.21 -143.63,206.18 -61.77,50.96 -120.46,74.91 -176.06,71.82 -92.66,-3.09 -160.61,-45.56 -203.86,-127.41 -43.24,-81.86 -65.63,-191.51 -67.18,-328.97 -1.55,-137.45 16.22,-295.75 53.28,-474.9 37.07,-179.15 89.58,-366.02 157.53,-560.62 15.44,-43.25 37.84,-67.95 67.18,-74.13 29.34,-6.17 59.46,-2.32 90.35,11.59 30.89,13.9 59.45,33.2 85.71,57.91 26.25,24.71 44.01,46.34 53.28,64.86 -64.86,132.82 -123.55,274.91 -176.06,426.26 -52.51,151.35 -90.35,291.12 -113.51,419.31 -23.17,128.19 -27.03,234.74 -11.59,319.69 15.44,84.94 60.24,127.41 134.36,127.41 40.16,-3.09 85.72,-40.15 136.69,-111.19 50.96,-71.04 96.52,-176.06 136.68,-315.06 18.53,-117.38 49.42,-254.06 92.66,-410.04 43.25,-155.98 100.39,-331.27 171.44,-525.87 12.35,-33.98 30.89,-52.51 55.59,-55.59 24.71,-3.09 50.97,3.08 78.77,18.53 27.8,15.44 53.28,37.06 76.45,64.86 23.16,27.8 37.83,52.51 44.01,74.13 -74.13,142.08 -135.13,287.25 -183.01,435.52 -47.88,148.26 -84.95,280.31 -111.2,396.14 -26.26,115.83 -41.7,204.63 -46.33,266.41 -4.64,61.77 2.31,78.76 20.84,50.96 18.53,-27.8 49.43,-82.63 92.67,-164.48 43.25,-81.85 91.12,-171.43 143.63,-268.72 52.51,-97.3 103.47,-191.51 152.89,-282.63 49.42,-91.12 89.58,-162.94 120.46,-215.45zm1042.47 0c12.35,-18.53 26.25,-33.98 41.69,-46.33 15.45,-12.36 29.35,-17.76 41.7,-16.22 12.35,1.55 18.53,10.03 18.53,25.48 0,15.44 -9.26,41.7 -27.8,78.77 -18.53,37.07 -54.05,101.93 -106.56,194.6 -52.51,92.66 -108.88,191.51 -169.12,296.52 -60.23,105.01 -118.14,203.09 -173.74,294.21 -55.59,91.11 -94.2,153.67 -115.83,187.64 -61.77,95.75 -115.05,151.35 -159.85,166.79 -44.78,15.44 -75.67,-10.81 -92.66,-78.76 -16.99,-67.95 -16.22,-177.61 2.31,-328.96 18.53,-151.36 61.78,-347.49 129.73,-588.42 -71.04,15.45 -143.63,21.62 -217.76,18.53 -74.13,-3.08 -143.63,-16.99 -208.5,-41.69 -64.86,-24.71 -108.1,-71.04 -129.72,-139 -21.62,-67.95 -26.26,-135.13 -13.9,-201.55 12.35,-66.41 40.92,-122.78 85.71,-169.11 44.78,-46.33 102.7,-61.77 173.74,-46.33 101.93,27.8 98.84,148.26 -9.27,361.39 46.34,9.26 99.62,8.49 159.85,-2.32 60.24,-10.81 120.46,-30.89 180.7,-60.23 60.23,-29.35 115.83,-68.73 166.79,-118.15 50.96,-49.42 88.8,-109.65 113.52,-180.69 21.61,6.17 38.6,22.39 50.96,48.65 12.35,26.25 19.31,57.92 20.85,94.98 1.55,37.07 -1.55,77.22 -9.27,120.47 -7.72,43.24 -19.31,83.4 -34.75,120.46 -9.26,15.44 -18.53,27.8 -27.8,37.07 -9.27,9.26 -20.08,20.07 -32.43,32.43 -43.25,117.37 -81.86,233.2 -115.84,347.49 -33.98,114.28 -61.77,215.44 -83.4,303.47 -21.62,88.03 -34.75,154.44 -39.38,199.23 -4.63,44.78 0.77,56.37 16.22,34.75 21.62,-30.89 57.92,-88.03 108.88,-171.43 50.96,-83.4 105.02,-173.74 162.16,-271.05 57.15,-97.29 112.74,-192.28 166.79,-284.94 54.05,-92.67 96.53,-165.26 127.42,-217.76zm-968.34 -264.09c-24.71,-9.26 -45.56,-6.94 -62.54,6.95 -16.99,13.9 -28.57,32.43 -34.75,55.6 -6.18,23.16 -5.41,47.87 2.32,74.12 7.72,26.26 23.94,45.57 48.65,57.92 27.8,-52.51 47.1,-96.52 57.92,-132.04 10.81,-35.52 6.94,-56.37 -11.59,-62.55zm963.71 -50.96c12.35,-33.98 30.89,-52.51 55.59,-55.6 24.71,-3.08 50.97,3.09 78.77,18.53 27.8,15.44 52.51,37.07 74.13,64.87 21.61,27.8 35.52,52.51 41.69,74.12 -71.04,142.09 -131.27,287.26 -180.69,435.52 -49.42,148.27 -86.49,280.31 -111.2,396.15 -24.71,115.83 -39.38,204.63 -44.01,266.4 -4.64,61.78 2.31,78.77 20.84,50.96 15.45,-27.8 45.57,-82.62 90.35,-164.47 44.79,-81.85 92.67,-171.43 143.63,-268.73 50.96,-97.29 101.93,-191.51 152.89,-282.63 50.96,-91.11 91.89,-162.93 122.78,-215.44 12.35,-18.53 26.26,-33.98 41.7,-46.34 15.44,-12.35 29.34,-17.75 41.69,-16.22 12.36,1.55 18.53,10.04 18.53,25.49 0,15.44 -9.26,41.7 -27.8,78.76 -18.53,37.07 -51.74,101.17 -99.61,192.28 -47.88,91.12 -99.62,187.65 -155.21,289.58 -55.6,101.93 -107.34,198.45 -155.22,289.57 -47.87,91.12 -81.08,153.67 -99.61,187.64 -61.77,114.29 -121.24,173.74 -178.38,178.38 -57.14,4.64 -94.2,-47.1 -111.19,-155.21 -16.99,-108.11 -6.18,-273.36 32.43,-495.75 38.61,-222.4 121.24,-505.02 247.88,-847.88zm273.36 32.43c0,-12.35 -9.26,-27.8 -27.8,-46.33 -18.53,-18.53 -38.61,-36.29 -60.24,-53.28 -21.62,-16.99 -44.01,-30.11 -67.18,-39.38 -23.17,-9.26 -39.38,-12.35 -48.65,-9.26 9.26,-30.89 17.76,-56.37 25.48,-76.45 7.73,-20.08 17.76,-45.56 30.11,-76.44 12.36,-33.98 31.67,-53.28 57.92,-57.92 26.26,-4.64 52.51,0.77 78.77,16.22 26.25,15.44 50.19,37.84 71.82,67.18 21.61,29.34 33.98,57.92 37.06,85.71 -15.44,33.98 -31.66,65.63 -48.65,94.98 -16.99,29.34 -33.2,61 -48.65,94.98zm1111.98 296.52c9.26,-21.61 20.84,-38.6 34.75,-50.96 13.9,-12.35 26.25,-17.76 37.06,-16.22 10.82,1.55 17.76,10.82 20.85,27.8 3.09,16.99 -1.55,45.56 -13.9,85.71 -46.33,129.72 -98.84,232.43 -157.53,308.1 -58.69,75.68 -118.92,135.13 -180.7,178.38 15.45,40.15 25.49,83.4 30.12,129.72 4.63,46.34 -0.77,97.3 -16.22,152.89 -15.44,64.87 -42.48,120.47 -81.09,166.8 -38.6,46.33 -83.4,84.17 -134.36,113.51 -50.96,29.35 -106.56,50.96 -166.79,64.87 -60.24,13.9 -119.7,20.84 -178.38,20.84 -117.37,-3.08 -205.4,-38.6 -264.09,-106.56 -58.69,-67.96 -88.03,-142.09 -88.03,-222.4 0,-80.31 30.11,-153.67 90.35,-220.07 60.23,-66.41 153.67,-99.61 280.31,-99.61 33.98,0 67.18,0.77 99.61,2.32 32.43,1.54 65.63,-0.77 99.61,-6.95 -37.07,-40.16 -79.53,-76.45 -127.41,-108.88 -47.88,-32.43 -94.98,-62.54 -141.31,-90.35 -101.93,-58.68 -160.62,-121.24 -176.06,-187.64 -15.44,-66.41 -9.27,-135.13 18.53,-206.18 18.53,-49.42 40.92,-98.07 67.18,-145.95 26.25,-47.87 48.65,-88.79 67.18,-122.78 18.53,-37.06 41.7,-56.36 69.5,-57.91 27.8,-1.55 54.83,5.4 81.08,20.85 26.26,15.44 50.2,37.06 71.82,64.86 21.62,27.8 35.52,52.51 41.7,74.13 -15.44,18.53 -36.29,47.1 -62.54,85.71 -26.26,38.6 -48.66,76.44 -67.19,113.51 -24.71,46.34 -23.93,86.49 2.32,120.46 26.26,33.98 64.1,67.95 113.52,101.93 49.42,33.98 104.25,71.04 164.47,111.2 60.24,40.16 111.97,88.03 155.21,143.63 58.69,-37.07 114.29,-90.35 166.8,-159.85 52.51,-69.5 100.38,-164.48 143.63,-284.95zm-481.86 815.44c12.35,-61.77 1.55,-123.54 -32.43,-185.32 -46.33,6.18 -91.12,9.27 -134.36,9.27 -43.25,0 -86.49,0 -129.73,0 -86.49,0 -150.58,22.39 -192.28,67.18 -41.69,44.78 -62.54,94.2 -62.54,148.26 0,54.05 18.53,104.25 55.6,150.58 37.07,46.33 91.11,71.03 162.16,74.12 80.31,6.18 150.58,-13.9 210.81,-60.23 60.24,-46.34 101.16,-114.29 122.78,-203.87zm2015.44 -824.7c12.36,-18.53 26.26,-33.98 41.7,-46.34 15.44,-12.35 29.34,-17.75 41.7,-16.22 12.35,1.55 19.3,10.04 20.84,25.49 1.55,15.44 -6.94,41.7 -25.48,78.76 -18.53,37.07 -52.51,100.39 -101.93,189.97 -49.43,89.57 -101.94,184.55 -157.53,284.94 -55.6,100.38 -108.88,196.14 -159.85,287.26 -50.96,91.11 -88.8,156.76 -113.52,196.9 -61.77,98.85 -120.46,155.98 -176.06,171.44 -55.59,15.44 -94.2,-15.45 -115.83,-92.67 -21.62,-77.22 -20.08,-201.55 4.64,-372.98 24.71,-171.43 88.03,-393.05 189.96,-664.87 -117.37,80.31 -223.16,189.97 -317.38,328.97 -94.2,139 -167.56,282.62 -220.07,430.89 -37.07,129.72 -64.1,239.38 -81.09,328.96 -16.99,89.58 -22.39,146.72 -16.22,171.43 -95.75,-15.44 -136.68,-142.09 -122.78,-379.92 13.91,-237.83 113.52,-574.52 298.84,-1010.04 -52.51,18.53 -105.02,54.05 -157.53,106.56 -52.51,52.51 -101.93,111.96 -148.26,178.38 -46.34,66.41 -88.03,135.13 -125.1,206.18 -37.07,71.04 -64.86,132.81 -83.4,185.32 -33.98,123.55 -59.46,238.61 -76.45,345.17 -16.99,106.56 -22.4,189.19 -16.22,247.88 -40.16,0 -73.36,-30.11 -99.61,-90.35 -26.26,-60.23 -37.84,-151.35 -34.75,-273.36 3.09,-122.01 25.48,-277.22 67.18,-465.63 41.7,-188.42 108.88,-410.82 201.54,-667.18 12.36,-33.98 31.67,-52.51 57.92,-55.6 26.26,-3.09 53.28,3.09 81.08,18.53 27.8,15.44 52.51,37.07 74.13,64.86 21.62,27.8 35.52,52.51 41.7,74.13 -21.62,33.98 -42.48,73.36 -62.55,118.14 -20.07,44.79 -40.92,93.44 -62.54,145.95 37.07,-58.69 75.68,-115.83 115.83,-171.43 40.16,-55.6 80.31,-105.79 120.46,-150.58 40.16,-44.78 80.31,-79.53 120.46,-104.25 40.16,-24.71 78.77,-37.06 115.84,-37.06 55.6,24.71 93.43,62.54 113.51,113.51 20.08,50.96 33.2,94.98 39.38,132.04 -49.42,92.67 -95.75,193.05 -139,301.16 37.07,-55.6 74.13,-108.11 111.2,-157.53 37.07,-49.42 74.12,-94.98 111.19,-136.68 37.07,-41.7 72.59,-77.22 106.56,-106.56 33.98,-29.34 66.41,-50.19 97.3,-62.54 27.8,6.17 53.28,20.08 76.44,41.69 23.17,21.62 42.48,44.79 57.92,69.5 15.44,24.71 28.57,50.19 39.38,76.45 10.81,26.25 17.76,48.65 20.84,67.18 -74.12,176.06 -133.59,332.05 -178.37,467.95 -44.79,135.91 -78,247.88 -99.62,335.91 -21.61,88.03 -32.43,150.58 -32.43,187.64 0,37.07 7.73,43.25 23.17,18.53 21.62,-37.07 55.6,-97.29 101.93,-180.7 46.33,-83.4 96.52,-172.2 150.58,-266.4 54.05,-94.21 107.34,-186.11 159.85,-275.67 52.51,-89.58 92.67,-160.62 120.46,-213.13zm1093.43 4.64c12.36,-21.62 24.71,-37.84 37.07,-48.66 12.35,-10.81 23.17,-13.9 32.43,-9.26 9.27,4.64 14.67,16.22 16.22,34.75 1.55,18.53 -3.85,43.24 -16.22,74.13 -18.53,46.33 -40.92,99.61 -67.18,159.84 -26.25,60.24 -56.37,120.47 -90.35,180.7 -33.98,60.24 -72.59,117.37 -115.83,171.43 -43.25,54.05 -91.12,98.08 -143.63,132.05 -24.71,61.77 -56.37,124.33 -94.98,187.64 -38.61,63.32 -84.18,118.92 -136.69,166.79 -52.51,47.88 -111.96,84.17 -178.37,108.88 -66.41,24.71 -141.31,27.8 -224.71,9.27 -83.4,-21.62 -149.81,-73.36 -199.23,-155.22 -49.42,-81.85 -82.62,-176.83 -99.61,-284.94 -16.99,-108.11 -20.08,-222.39 -9.27,-342.86 10.82,-120.46 35.52,-231.65 74.13,-333.58 38.61,-101.94 88.03,-187.65 148.27,-257.15 60.23,-69.5 132.04,-105.79 215.44,-108.87 9.27,-3.09 23.17,-1.55 41.7,4.63 37.07,-33.98 77.99,-57.91 122.78,-71.81 44.78,-13.91 93.43,-13.13 145.94,2.31 77.22,18.53 139,55.6 185.33,111.2 46.33,55.6 78.76,123.55 97.29,203.86 18.53,80.31 24.71,169.12 18.53,266.41 -6.18,97.29 -21.62,196.91 -46.33,298.84 0,12.35 -1.55,21.62 -4.64,27.8 61.77,-64.86 115.05,-145.17 159.85,-240.92 44.78,-95.75 88.8,-191.51 132.04,-287.25zm-574.52 -125.1c-49.42,-12.36 -94.98,-5.41 -136.68,20.85 -41.7,26.25 -77.22,64.09 -106.56,113.51 -29.34,49.42 -50.19,105.79 -62.54,169.11 -12.36,63.33 -13.13,125.1 -2.32,185.33 10.81,60.23 36.29,115.83 76.45,166.79 40.15,50.96 98.84,87.26 176.05,108.88 24.71,6.18 46.34,10.03 64.87,11.58 18.53,1.55 37.07,2.32 55.59,2.32 27.8,-80.31 47.11,-164.47 57.92,-252.5 10.82,-88.03 13.9,-169.12 9.27,-243.24 -4.64,-74.13 -17.76,-137.46 -39.38,-189.97 -21.62,-52.51 -52.51,-83.4 -92.67,-92.66zm-361.39 1158.3c83.4,30.89 157.53,18.53 222.39,-37.07 64.86,-55.59 118.92,-132.81 162.16,-231.65 -15.44,0 -29.34,0 -41.7,0 -12.35,0 -26.25,-1.55 -41.69,-4.64 -67.95,-12.35 -126.64,-35.52 -176.06,-69.5 -49.42,-33.98 -89.58,-75.68 -120.46,-125.1 -30.9,-49.42 -53.28,-104.25 -67.18,-164.47 -13.91,-60.24 -20.85,-122.78 -20.85,-187.65 -27.8,80.31 -49.42,164.48 -64.87,252.51 -15.44,88.03 -21.61,171.43 -18.52,250.19 3.08,78.77 17.76,146.72 44.01,203.87 26.26,57.14 67.18,94.98 122.78,113.51z"/>
  <g id="_1858812407280">
   <path class="fil7" d="M5659.89 4079.15c0,11.79 -7.57,26.42 -22.71,43.76 -3.75,4.39 -8.31,9.16 -13.78,14.52 -5.38,5.36 -11.13,10.72 -17.25,16.18 -6.02,5.36 -12.13,10.72 -18.34,16.09 -6.12,5.35 -11.87,10.23 -17.15,14.52 -17.14,14.13 -35.03,27.48 -53.74,40.06 -18.7,12.57 -37.67,23.58 -56.65,33.04 -19.08,9.55 -38.14,17.05 -57.12,22.61 -18.97,5.56 -37.32,8.29 -54.93,8.29 -19.25,0 -36.04,-2.92 -50.27,-8.87 -14.24,-5.95 -26,-14.23 -35.4,-25.15 -9.31,-10.82 -16.33,-23.88 -20.98,-39.28 -4.65,-15.3 -6.94,-32.36 -6.94,-51.17 -0.18,-17.15 1.46,-34.6 4.93,-52.33 3.46,-17.64 8.3,-35.09 14.6,-52.24 6.21,-17.05 13.69,-33.63 22.44,-49.51 8.76,-15.88 18.25,-30.6 28.56,-44.15 6.29,-8.2 13.32,-16.47 21.16,-24.95 7.85,-8.48 16.06,-16.67 24.72,-24.66 8.66,-7.99 17.43,-15.5 26.28,-22.41 8.94,-7.02 17.7,-13.16 26.19,-18.42 5.56,-3.51 12.59,-7.51 21.16,-11.99 8.57,-4.58 17.52,-8.87 27,-12.86 9.4,-4 18.8,-7.41 28.02,-10.14 9.3,-2.83 17.33,-4.19 24.08,-4.19 10.85,0 19.53,0.87 26.09,2.44 6.48,1.66 12.22,4.39 17.25,8.19 2.28,1.85 5.02,4.77 8.12,8.67 3.1,3.9 6.02,8.19 8.85,12.87 2.74,4.68 5.02,9.35 6.94,13.93 1.82,4.68 2.83,8.67 2.83,11.89 0,3.22 -1.46,8.09 -4.3,14.52 -2.83,6.53 -6.2,13.25 -9.94,20.17 -3.74,6.93 -7.48,13.46 -11.22,19.4 -3.74,6.04 -6.58,10.14 -8.48,12.48 -7.3,8.47 -15.15,12.77 -23.55,12.77 -7.12,0 -12.68,-2.24 -16.69,-6.93 -4.02,-4.67 -6.02,-10.52 -6.02,-17.64 0,-2.44 1.28,-6.24 4.02,-11.5 2.64,-5.26 7.11,-11.21 13.32,-17.83 6.3,-6.72 11.13,-12.87 14.6,-18.42 3.47,-5.66 5.66,-9.35 6.57,-11.3 -3.55,-2.63 -7.94,-4.77 -13.13,-6.24 -5.21,-1.56 -9.95,-2.35 -14.41,-2.35 -6.39,0 -14.33,1.56 -23.82,4.68 -9.39,3.22 -19.07,7.21 -29.01,12.19 -9.85,4.97 -19.52,10.42 -28.83,16.37 -9.4,6.04 -17.25,11.79 -23.64,17.35 -18.42,16.18 -35.31,33.53 -50.82,52.24 -15.5,18.62 -28.37,39.27 -38.5,61.98 -4.1,9.26 -7.94,19.01 -11.59,29.24 -3.64,10.14 -6.83,20.47 -9.48,31 -2.74,10.43 -4.83,20.86 -6.3,31.29 -1.55,10.33 -2.28,20.27 -2.28,29.82 0,11.21 1.19,21.64 3.57,31.38 2.46,9.75 6.38,18.04 11.95,25.15 5.47,7.02 12.77,12.57 21.8,16.57 8.95,3.99 20.08,5.94 33.21,5.94 14.32,0 28.93,-2.05 43.88,-6.24 14.96,-4.19 29.85,-9.84 44.71,-17.06 14.96,-7.11 29.65,-15.3 44.25,-24.56 14.6,-9.16 28.65,-18.81 42.15,-28.95 13.41,-10.04 26.19,-20.18 38.31,-30.21 12.14,-10.14 23.18,-19.69 33.13,-28.56 4.1,-3.71 8.49,-7.7 13.04,-11.98 4.48,-4.39 9.03,-8.77 13.41,-13.16 4.47,-4.39 8.86,-8.77 13.04,-13.15 4.2,-4.39 7.85,-8.39 11.05,-11.99 8.03,4.39 12.04,10.62 12.04,18.81zm361.94 -55.07c0,3.22 -0.63,6.53 -2.01,9.84 -1.37,3.32 -3.11,6.53 -5.2,9.75 -2.2,3.12 -4.48,6.04 -7.12,8.77 -2.56,2.82 -5.21,5.07 -7.85,6.72 -6.29,4.39 -15.15,8.29 -26.65,11.6 -11.5,3.31 -25.63,4.97 -42.6,4.97 -13.5,0 -27.19,-1.85 -40.87,-5.56 -13.78,-3.7 -26.91,-9.84 -39.6,-18.41 4.1,6.62 6.75,13.06 7.94,19.1 1.09,6.13 1.74,13.35 1.74,21.73 0,15.01 -3.56,30.99 -10.68,47.95 -7.03,17.15 -15.97,33.04 -27.01,47.66 -11.12,14.72 -22.71,26.9 -35.03,36.55 -6.93,5.56 -14.59,10.33 -22.89,14.42 -8.21,4.09 -16.97,7.51 -26.01,10.03 -9.11,2.54 -18.51,4.49 -28.37,5.76 -9.77,1.17 -19.71,1.85 -29.65,1.85 -6.94,0 -13.68,-2.44 -20.35,-7.21 -6.57,-4.68 -12.41,-10.53 -17.6,-17.35 -5.21,-6.93 -9.31,-14.23 -12.41,-22.03 -3.19,-7.8 -4.75,-14.82 -4.75,-21.15 0,-15.4 1.91,-30.21 5.74,-44.34 3.84,-14.23 9.03,-27.88 15.52,-41.13 6.57,-13.25 14.05,-26.21 22.63,-38.89 8.58,-12.67 17.61,-25.25 27.28,-37.82 5.3,-7.01 11.41,-13.93 18.24,-20.66 6.94,-6.82 14.05,-12.87 21.54,-18.13 7.48,-5.36 15.06,-9.65 22.72,-13.06 7.66,-3.31 14.96,-4.97 21.99,-4.97 5.66,0 10.58,0.87 14.69,2.63 4.09,1.66 7.94,4.09 11.58,7.21 3.65,3.22 7.39,7.11 11.22,11.89 3.84,4.77 8.2,10.03 13.23,15.99 1.65,1.66 6.02,4.18 13.24,7.6 7.2,3.31 15.78,6.53 25.63,9.65 9.94,3.12 20.35,5.95 31.21,8.29 10.85,2.44 20.7,3.61 29.64,3.61 8.95,0 17.06,-0.39 24.55,-0.97 7.48,-0.68 14.78,-1.85 21.81,-3.31 7.02,-1.56 14.04,-3.61 20.98,-6.34 6.94,-2.63 14.41,-5.85 22.45,-9.65 0.72,2.82 1.09,5.26 1.09,7.4zm-199.63 68.52c0.1,-5.36 -0.17,-11.41 -1.09,-18.13 -0.91,-6.73 -2.46,-13.16 -4.74,-19.1 -2.19,-6.04 -5.11,-10.92 -8.76,-14.72 -3.65,-3.81 -8.21,-5.36 -13.51,-4.58 -8.2,-3.41 -14.96,-7.02 -20.35,-10.83 -5.29,-3.8 -9.39,-5.75 -12.32,-5.75 -2.1,0 -4.38,0.68 -6.94,2.14 -2.46,1.46 -5.01,3.41 -7.75,5.85 -2.65,2.44 -5.38,5.36 -8.11,8.67 -2.74,3.41 -5.48,6.82 -8.12,10.43 -5.39,7.51 -10.32,14.23 -14.88,20.27 -4.56,6.14 -8.85,12.19 -12.86,18.13 -4.01,6.04 -7.85,12.28 -11.59,18.91 -3.74,6.53 -7.49,13.93 -11.22,22.12 -1.65,3.41 -3.02,7.51 -4.29,12.28 -1.28,4.78 -2.28,9.66 -3.19,14.73 -0.92,4.97 -1.55,10.03 -2.01,15.1 -0.45,5.07 -0.63,9.56 -0.63,13.55 0,2.44 0.74,5.45 2.37,8.97 1.64,3.61 3.74,7.02 6.29,10.33 2.56,3.31 5.47,6.14 8.77,8.38 3.38,2.35 6.57,3.41 9.76,3.41 9.12,0 16.88,-0.39 23.27,-1.26 6.48,-0.88 12.41,-2.35 17.79,-4.58 5.47,-2.15 10.95,-5.17 16.42,-8.97 5.56,-3.81 11.96,-8.77 19.25,-14.82 3.56,-2.92 7.12,-6.24 10.59,-10.04 3.47,-3.8 6.94,-7.79 10.31,-12.08 3.38,-4.3 6.57,-8.68 9.58,-13.16 3,-4.48 5.92,-8.87 8.57,-13.25 1.73,-2.92 3.28,-6.44 4.56,-10.62 1.18,-4.19 2.19,-8.39 2.92,-12.57 0.73,-4.19 1.19,-7.99 1.46,-11.41 0.28,-3.41 0.45,-5.85 0.45,-7.4zm602.43 -33.43c0,3.61 -0.53,7.31 -1.73,11.01 -1.09,3.71 -2.56,7.41 -4.29,11.11 -1.65,3.71 -3.55,7.31 -5.75,10.92 -2.11,3.51 -4.19,6.82 -6.12,10.14 -5.2,8.58 -11.21,17.25 -18.16,26.12 -6.94,8.77 -14.41,17.45 -22.35,25.83 -7.94,8.39 -16.06,16.28 -24.46,23.68 -8.39,7.41 -16.59,14.04 -24.53,19.69 -6.48,4.58 -12.59,8.87 -18.34,12.87 -5.84,3.99 -11.68,7.4 -17.52,10.23 -5.84,2.92 -12.04,5.17 -18.42,6.93 -6.39,1.66 -13.5,2.53 -21.17,2.53 -14.78,0 -26.82,-3.99 -36.04,-11.98 -4.65,-4 -8.67,-9.16 -12.14,-15.6 -3.55,-6.34 -6.57,-13.45 -9.11,-21.25 -2.56,-7.8 -4.84,-16.08 -6.67,-24.85 -1.9,-8.77 -3.46,-17.35 -4.74,-25.93 -1.55,-10.72 -3.1,-20.27 -4.47,-28.75 -1.46,-8.48 -3.1,-15.59 -5.02,-21.44 -1.82,-5.75 -4.1,-10.24 -6.75,-13.36 -2.74,-3.12 -6.21,-4.77 -10.49,-4.77 -3.38,0 -6.57,0.39 -9.57,1.17 -3.02,0.78 -6.21,2.35 -9.48,4.58 -3.29,2.35 -6.94,5.56 -10.86,9.75 -3.93,4.19 -8.49,9.65 -13.78,16.57 -5.2,6.82 -11.22,15.2 -17.97,25.05 -6.75,9.94 -14.69,21.73 -23.81,35.48 -4.47,6.62 -9.68,13.93 -15.78,21.93 -6.02,7.99 -12.22,15.6 -18.52,22.9 -6.38,7.22 -12.58,13.55 -18.62,19.1 -6.11,5.56 -11.4,9.07 -16.05,10.53 -15.69,-3.61 -23.55,-24.47 -23.55,-62.48 0,-10.14 1.09,-25.43 3.2,-46 1.09,-9.36 2.37,-19.1 3.74,-29.24 1.45,-10.24 3.27,-20.37 5.38,-30.61 2.19,-10.14 4.56,-20.08 7.39,-29.63 2.74,-9.65 6.02,-18.51 9.77,-26.71 1.73,-3.8 3.64,-6.82 5.56,-9.06 2.01,-2.14 4.02,-3.8 6.03,-4.77 2.01,-1.08 4.18,-1.76 6.37,-2.05 2.28,-0.29 4.56,-0.39 6.84,-0.39 2.83,0 5.38,2.04 7.58,6.24 2.28,4.19 3.38,10.03 3.38,17.45 0,4.58 -0.37,8.87 -1.09,12.87 -0.63,3.99 -1.65,8.08 -2.92,12.28 -1.19,4.18 -2.56,8.67 -4.02,13.55 -1.37,4.87 -2.82,10.43 -4.29,16.67 -1,5.16 -2.29,10.92 -3.56,17.15 -1.37,6.24 -2.56,12.67 -3.73,19.1 -1.2,6.53 -2.2,12.86 -2.93,19 -0.82,6.24 -1.27,11.79 -1.27,16.67 0,3.51 0.55,7.02 1.65,10.62 5.01,-0.59 13.22,-8.57 24.63,-23.98 5.83,-7.79 12.32,-16.37 19.33,-25.73 7.03,-9.36 14.7,-19.59 22.82,-30.8 6.12,-8.38 12.13,-16.18 18.06,-23.49 6.02,-7.21 12.13,-13.55 18.61,-18.9 6.38,-5.46 13.23,-9.75 20.44,-12.87 7.2,-3.12 15.15,-4.68 23.9,-4.68 9.3,0 16.97,2.05 23.18,6.34 6.11,4.29 11.04,10.24 14.78,17.74 3.73,7.51 6.65,16.57 8.66,27 2.11,10.43 3.75,21.93 5.02,34.5 1.01,10.72 2.01,21.25 3.02,31.78 0.99,10.43 2.92,19.78 5.74,28.07 2.83,8.28 6.94,15 12.32,20.17 5.38,5.07 13.04,7.7 22.99,7.7 7.66,0 15.7,-1.95 24.09,-5.75 8.31,-3.8 17.15,-9.07 26.46,-15.79 9.22,-6.82 18.79,-14.72 28.74,-23.88 9.84,-9.16 20.07,-19.1 30.56,-30.02 4.1,-4.18 8.57,-9.46 13.5,-15.78 4.92,-6.44 9.67,-12.57 14.41,-18.42 4.74,-5.94 9.12,-10.92 13.23,-15.11 4.11,-4.18 7.39,-6.33 9.94,-6.33 1,0 2.74,0.58 5.21,1.75 2.36,1.08 3.55,3.03 3.55,5.66zm283.39 7.12c0,2.92 -2.01,7.98 -5.93,15.2 -9.22,14.23 -19.61,28.55 -31.12,42.79 -11.5,14.32 -23.72,27.87 -36.58,40.74 -12.96,12.87 -26.37,24.85 -40.41,35.96 -13.97,11.11 -28.11,20.76 -42.34,28.85 -14.24,8.08 -28.47,14.32 -42.61,18.71 -14.14,4.39 -27.82,6.44 -41.05,6.24 -28.47,0 -50.63,-8.87 -66.43,-26.51 -15.78,-17.73 -23.63,-44.44 -23.63,-80.31 0,-29.83 4.29,-58.87 12.96,-87.04 8.66,-28.17 23.35,-55.36 44.25,-81.38 3.92,-4.59 8.3,-8.97 13.22,-13.16 4.85,-4.19 10.04,-7.89 15.52,-11.11 5.38,-3.22 11.04,-5.85 16.8,-7.7 5.83,-1.95 11.67,-3.12 17.51,-3.41 1.46,0 3.38,0.19 5.93,0.49 2.46,0.39 5.1,1.07 8.03,2.04 2.82,0.97 5.56,2.15 8.2,3.61 2.74,1.36 4.84,3.12 6.48,5.26 4.92,6.04 8.94,12.38 11.86,18.81 2.92,6.53 4.56,13.64 4.92,21.44 0.38,8.77 -0.54,17.35 -2.82,25.83 -2.18,8.48 -5.93,17.15 -11.22,26.03 -5.21,8.77 -12.13,17.93 -20.71,27.38 -8.48,9.46 -18.87,19.59 -30.92,30.41 -7.66,6.82 -16.24,14.43 -25.54,22.71 -9.41,8.29 -20.62,16.96 -33.86,26.12 0,18.42 5.2,32.46 15.6,42.11 10.49,9.65 24.73,14.42 42.97,14.42 10.14,0 20.35,-1.46 30.75,-4.29 10.31,-2.82 20.44,-6.62 30.48,-11.3 9.94,-4.68 19.61,-9.94 28.92,-15.99 9.39,-5.94 18.16,-12.09 26.36,-18.42 15.15,-11.79 28.83,-23.48 41.15,-35.28 12.32,-11.69 24.55,-23.97 36.68,-36.94l14.42 -15.4c8.66,-8.19 15.05,-12.28 18.97,-12.28 2.09,0 3.19,1.75 3.19,5.36zm-204.19 -56.73c-0.18,-2.92 -0.64,-5.75 -1.28,-8.48 -0.55,-2.72 -1.55,-5.16 -2.74,-7.3 -1.27,-2.05 -2.73,-3.71 -4.29,-4.98 -1.65,-1.27 -3.47,-1.85 -5.66,-1.85 -9.4,0.58 -18.89,6.72 -28.28,18.42 -9.48,11.69 -18.34,27.19 -26.73,46.39 -2.01,4.18 -3.74,8.87 -5.21,14.13 -1.55,5.26 -3.01,10.62 -4.29,15.99 -1.37,5.45 -2.56,10.82 -3.47,16.18 -1,5.26 -1.83,10.04 -2.55,14.23 9.21,-7.4 17.79,-14.23 25.62,-20.57 7.85,-6.24 15.15,-12.77 21.91,-19.39 4.29,-4.19 8.66,-8.68 13.13,-13.55 4.47,-4.87 8.48,-9.94 12.13,-15.3 3.65,-5.36 6.58,-10.82 8.67,-16.57 2.19,-5.65 3.18,-11.5 3.01,-17.35zm498.15 57.31c0,6.92 -2.28,13.06 -6.94,18.62 -1.55,1.85 -4.09,4.39 -7.48,7.51 -3.38,3.22 -6.38,6.14 -9.03,9.07l-24.63 26.21c-4.65,4.97 -8.94,9.35 -12.95,13.25 -4.02,3.9 -7.58,7.31 -10.59,10.14 -5.1,4.58 -11.31,10.04 -18.52,16.47 -7.2,6.34 -15.6,13.74 -24.99,22.13 -18.52,16.37 -35.69,29.82 -51.37,40.25 -15.7,10.33 -32.49,18.51 -50.37,24.75 -17.88,6.14 -36.86,9.26 -56.83,9.26 -12.23,0.4 -23.27,-1.95 -32.95,-6.92 -9.75,-4.87 -17.96,-11.6 -24.63,-20.08 -6.66,-8.48 -11.77,-18.42 -15.23,-29.83 -3.47,-11.5 -5.11,-23.58 -4.93,-36.26 0,-25.34 5.01,-50.68 15.06,-76.02 10.13,-25.25 23.54,-50.19 40.23,-74.76 9.13,-12.96 20.07,-25.34 32.94,-37.13 12.59,-11.79 24.09,-17.74 34.49,-17.74 5.47,0 11.76,4.98 18.97,14.92 3.56,4.87 6.93,10.23 10.13,15.78 3.19,5.66 6.11,11.6 8.85,17.84 5.3,12.37 7.94,21.34 7.94,26.89 0,5.46 -1.55,12.67 -4.75,21.35 -3.19,8.77 -7.02,13.15 -11.49,13.15 -6.48,0 -11.77,-4.67 -16.06,-13.93 -2.11,-4.77 -3.74,-8.87 -4.66,-12.18 -0.99,-3.32 -2.09,-6.93 -3.37,-10.72 -4.11,-11.41 -7.57,-19.59 -10.4,-24.56 -11.77,2.34 -21.62,8.47 -29.38,18.61 -3.73,4.98 -7.66,10.92 -11.68,17.84 -4.01,6.92 -8.21,14.81 -12.67,23.48 -3.56,6.93 -6.85,14.62 -9.86,23.2 -3.1,8.58 -5.66,17.36 -7.75,26.42 -2.19,9.07 -3.83,18.04 -5.11,27.1 -1.27,9.07 -1.91,17.45 -1.91,25.25 0,11.11 4.47,21.83 13.41,32.26 9.12,10.14 18.89,15.2 29.39,15.2 22.8,0 44.52,-4.29 64.95,-12.87 20.53,-8.57 40.24,-19.98 59.12,-34.31 18.7,-13.83 37.67,-30.11 56.92,-48.83 9.58,-9.25 18.71,-18.13 27.37,-26.41 8.67,-8.29 16.89,-16.18 24.73,-23.79 12.95,-12.18 23.81,-18.32 32.29,-18.32 2.56,0 3.74,2.63 3.74,7.7zm233.11 -55.07c0,7.02 -1.83,12.38 -5.38,16.08 -3.56,3.81 -7.66,7.02 -12.32,9.85 -5.85,2.92 -12.42,5.45 -19.62,7.79 -7.21,2.24 -14.6,4.3 -22.18,6.14 -7.57,1.76 -15.23,3.31 -22.89,4.48 -7.67,1.27 -14.96,2.24 -21.9,3.03 -7.49,0.78 -15.42,1.56 -23.81,2.34 -8.31,0.68 -16.43,1.56 -24.26,2.44 -7.85,0.78 -15.15,1.86 -21.81,2.92 -6.66,1.17 -12.04,2.63 -16.15,4.29 -3.74,17.36 -7.75,33.82 -11.95,49.61 -4.2,15.69 -7.67,31.29 -10.49,46.98 -0.74,3.61 -1.65,8.97 -2.83,16.27 -1.18,7.21 -2.27,14.72 -3.38,22.62 -1.09,7.99 -2.01,15.4 -2.82,22.31 -0.74,6.93 -1.19,11.99 -1.19,15.01 0,7.8 1.19,13.65 3.47,17.55 2.36,3.9 4.93,7.02 7.66,9.46 2.74,2.34 5.29,4.58 7.57,6.62 2.37,2.14 3.47,5.26 3.47,9.46 0,2.63 -1.19,5.26 -3.55,7.7 -2.38,2.54 -5.3,4.68 -8.67,6.63 -3.38,1.85 -7.03,3.31 -10.85,4.39 -3.84,1.07 -7.21,1.55 -10.04,1.55 -5.1,0 -9.75,-1.55 -13.86,-4.58 -4.11,-3.02 -7.58,-7.02 -10.4,-11.79 -2.92,-4.87 -5.11,-10.43 -6.75,-16.77 -1.55,-6.24 -2.37,-12.77 -2.37,-19.4 0,-8.77 0.74,-18.12 2.1,-28.06 1.46,-10.04 3.28,-20.27 5.38,-30.7 2.11,-10.53 4.39,-21.25 6.85,-32.16 2.36,-10.92 4.64,-21.84 6.75,-32.65 0.91,-4.58 1.82,-9.35 2.82,-14.23 1,-4.77 1.91,-9.35 2.65,-13.65 0.82,-4.29 1.55,-7.89 2.01,-10.72 0.54,-2.83 0.82,-4.58 0.82,-5.17 0,-3.02 -1,-5.36 -3.01,-6.92 -2.1,-1.66 -4.56,-2.44 -7.39,-2.44 -2.1,0 -5.38,0.19 -9.67,0.58 -4.19,0.29 -8.76,0.78 -13.42,1.37 -4.74,0.58 -9.3,1.07 -13.49,1.46 -4.3,0.39 -7.39,0.58 -9.41,0.58 -6.37,0 -11.86,-0.49 -16.32,-1.36 -4.39,-0.78 -8.04,-2.34 -10.77,-4.68 -2.82,-2.24 -4.84,-5.45 -6.2,-9.55 -1.29,-4.09 -2.01,-9.36 -2.01,-15.89 0,-2.63 1.19,-4.67 3.47,-6.24 2.37,-1.55 5.2,-2.63 8.49,-3.31 3.27,-0.68 6.75,-1.08 10.49,-1.17 3.74,0 7.12,-0.1 9.94,-0.1 2.28,0 6.12,-0.19 11.31,-0.68 5.3,-0.49 10.86,-1.07 16.61,-1.55 5.75,-0.59 11.31,-1.18 16.61,-1.66 5.2,-0.39 9.03,-0.68 11.31,-0.68 1.09,0 2.36,-0.09 3.73,-0.29 1.46,-0.19 2.92,-0.68 4.47,-1.55 1.46,-0.88 2.83,-2.24 4.1,-4.29 1.28,-1.95 2.28,-4.78 3.19,-8.39 1.28,-5.94 2.74,-12.86 4.57,-20.76 1.73,-7.89 3.55,-15.99 5.47,-24.26 1.82,-8.29 3.64,-16.28 5.46,-23.98 1.74,-7.7 3.29,-14.33 4.57,-19.78 1.55,-5.36 2.92,-11.11 4.1,-17.15 1.19,-6.14 2.28,-12.19 3.19,-18.32 1.01,-6.04 2.11,-11.99 3.38,-17.64 1.28,-5.76 2.83,-11.02 4.84,-15.7 3.92,-9.93 10.22,-14.91 18.97,-14.91 13.14,0 19.8,7.8 19.8,23.39 0,9.75 -2.01,20.86 -5.93,33.43 -8.58,28.95 -14.87,52.82 -18.98,71.54 -4.09,18.72 -6.11,31.38 -6.11,37.82 0,7.11 3.28,10.62 9.86,10.62 8.02,0 15.51,-0.2 22.63,-0.49 7.03,-0.29 14.14,-0.78 21.34,-1.37 7.22,-0.68 14.88,-1.46 22.82,-2.44 8.02,-0.97 17.05,-2.04 27,-3.12 7.21,-0.97 13.97,-2.14 20.53,-3.5 6.48,-1.27 12.5,-2.54 17.98,-3.81 5.56,-1.26 10.49,-2.43 14.69,-3.61 4.29,-1.07 7.84,-1.85 10.76,-2.24 1.92,-0.2 3.84,-0.49 5.75,-0.88 1.83,-0.39 3.47,-0.39 4.75,-0.09 1.37,0.19 2.46,0.97 3.19,2.24 0.82,1.27 1.28,3.32 1.28,6.14zm320.69 57.12c0,2.24 -0.28,4.97 -0.82,8.08 -0.55,3.22 -1.27,6.34 -2.28,9.56 -0.91,3.31 -2.01,6.33 -3.19,9.35 -1.19,2.92 -2.36,5.26 -3.56,6.92 -1.09,1.56 -2.64,3.61 -4.74,6.14 -2.01,2.63 -4.3,5.45 -6.75,8.48 -2.56,3.02 -5.3,6.24 -8.21,9.55 -2.92,3.32 -6.02,6.53 -9.22,9.56 -11.04,10.92 -21.89,21.34 -32.49,31.58 -10.58,10.14 -21.53,19.2 -32.75,27 -11.21,7.8 -22.9,14.04 -35.13,18.72 -12.22,4.68 -25.45,6.82 -39.68,6.62 -6.58,0 -13.24,-1.26 -19.89,-3.8 -6.66,-2.53 -12.96,-6.24 -18.89,-11.01 -5.83,-4.77 -10.94,-10.43 -15.23,-17.15 -4.29,-6.63 -7.29,-13.94 -9.02,-21.93 -5.21,5.65 -10.68,11.6 -16.34,17.83 -5.76,6.13 -11.69,12.37 -17.8,18.71 -6.12,6.24 -12.49,12.38 -19.07,18.23 -6.66,5.94 -13.41,11.41 -20.35,16.27 -3.92,2.73 -8.57,5.56 -14.04,8.58 -5.38,3.02 -11.14,5.85 -17.07,8.48 -6.02,2.53 -11.95,4.68 -17.96,6.24 -5.93,1.66 -11.31,2.44 -16.15,2.44 -7.3,0 -13.59,-2.44 -18.8,-7.31 -5.3,-4.87 -9.67,-10.82 -13.13,-17.83 -3.48,-7.02 -6.02,-14.52 -7.76,-22.52 -1.64,-7.99 -2.55,-15.2 -2.55,-21.44 0,-12.57 1.73,-25.44 5.1,-38.59 3.38,-13.06 7.76,-25.93 13.24,-38.4 5.46,-12.38 11.5,-24.27 18.15,-35.48 6.67,-11.3 13.24,-21.25 19.71,-30.01 6.75,-9.16 14.78,-18.23 24,-27.29 9.31,-8.97 18.89,-17.06 28.92,-24.27 9.94,-7.12 19.71,-12.87 29.38,-17.25 9.58,-4.38 18.16,-6.53 25.64,-6.53 3.74,0 7.75,0 11.87,0 4.19,0 8.39,0.2 12.49,0.69 4.11,0.49 8.13,1.26 11.96,2.24 3.92,1.08 7.57,2.63 10.76,4.78 1.55,1.07 3.48,3.31 5.56,6.53 2.2,3.21 4.2,6.82 6.02,10.82 1.91,3.99 3.47,7.99 4.65,11.98 1.28,4 1.92,7.21 1.92,9.46 0,6.34 -1.37,14.72 -4.02,25.15 -2.83,13.16 -5.47,25.05 -7.85,35.87 -2.46,10.72 -3.65,21.83 -3.65,33.23 0,6.43 1,13.06 2.92,19.89 2.01,6.72 4.75,12.86 8.49,18.41 3.65,5.46 8.03,10.04 13.32,13.55 5.3,3.51 11.22,5.27 17.79,5.27 10.86,0 21.99,-2.44 33.4,-7.31 11.41,-4.87 22.9,-11.51 34.58,-19.98 11.67,-8.48 23.35,-18.23 34.93,-29.44 11.59,-11.11 23,-22.9 34.22,-35.48 0.83,-1.17 2.46,-3.12 4.66,-5.85 2.19,-2.82 4.55,-5.56 6.93,-8.28 2.46,-2.83 4.75,-5.27 7.11,-7.51 2.29,-2.14 4.03,-3.22 5.02,-3.22 3.84,0 5.66,3.9 5.66,11.7zm-237.84 -23.68c0,-3.22 -0.18,-7.21 -0.55,-11.99 -0.36,-4.77 -1.55,-8.67 -3.46,-11.69 -2.02,-3.12 -4.39,-4.58 -7.22,-4.49 -2.92,0.1 -5.74,0.19 -8.57,0.19 -6.3,0 -12.23,0.97 -18.06,3.13 -5.75,2.04 -11.41,4.97 -16.97,8.67 -5.56,3.7 -10.86,7.99 -15.88,12.86 -5.1,4.87 -10.03,9.94 -14.87,15.3 -4.11,4.39 -8.4,9.75 -12.96,16.28 -4.55,6.43 -9.03,13.55 -13.32,21.25 -4.37,7.7 -8.66,15.78 -12.77,24.26 -4.11,8.48 -7.66,16.87 -10.68,25.15 -3.02,8.29 -5.38,16.28 -7.2,23.98 -1.83,7.7 -2.66,14.72 -2.66,20.95 0,1.95 0.19,4.49 0.64,7.61 0.46,3.12 1.19,6.13 2.19,9.16 0.91,2.92 2.28,5.45 3.93,7.51 1.73,2.14 3.84,3.22 6.29,3.22 8.21,0 18.43,-2.83 30.75,-8.29 16.8,-7.7 31.93,-18.03 45.62,-31.29 13.59,-13.25 25.27,-28.55 34.85,-45.8 13.87,-26.9 20.9,-55.55 20.9,-85.96z"/>
   <path class="fil7" d="M7691 4238.21c0,4.58 -3.11,14.14 -9.31,28.56 -6.3,14.33 -11.14,23.49 -14.69,27.68 -9.31,10.53 -20.99,19.59 -35.03,27.49 -0.92,0.29 -2.28,0.77 -4.02,1.36 -1.83,0.59 -4.1,1.17 -6.94,1.76 -2.92,0.58 -5.2,1.17 -7.12,1.66 -1.82,0.58 -3.38,1.07 -4.38,1.46 -13.95,6.62 -25.46,10.03 -34.49,10.03 -5.2,0 -7.74,-4.48 -7.74,-13.45 0,-3.41 0.63,-5.85 1.82,-7.12 26.92,-6.72 47.17,-17.54 60.67,-32.55 3.11,-3.61 6.75,-10.14 10.95,-19.49 4.29,-9.26 6.48,-15.89 6.48,-19.69 0,-7.21 -1.09,-17.54 -3.2,-31.09 -0.17,-2.34 -1.63,-5.66 -4.29,-10.04 -2.36,-3.8 -3.46,-7.3 -3.46,-10.52 0,-3.03 1.18,-7.21 3.73,-12.57 2.28,-5.17 4.66,-7.7 7.21,-7.7 4.1,0 10.39,1.66 18.97,4.87 8.57,3.21 13.13,6.24 13.87,9.16 7.3,20.46 10.95,37.23 10.95,50.19zm622.23 -171.34c0,6.92 -2.28,13.06 -6.94,18.62 -1.55,1.85 -4.09,4.39 -7.48,7.51 -3.38,3.22 -6.38,6.14 -9.03,9.07l-24.63 26.21c-4.65,4.97 -8.94,9.35 -12.95,13.25 -4.02,3.9 -7.58,7.31 -10.59,10.14 -5.11,4.58 -11.31,10.04 -18.52,16.47 -7.2,6.34 -15.6,13.74 -24.99,22.13 -18.52,16.37 -35.69,29.82 -51.37,40.25 -15.7,10.33 -32.49,18.51 -50.37,24.75 -17.88,6.14 -36.86,9.26 -56.83,9.26 -12.23,0.4 -23.27,-1.95 -32.95,-6.92 -9.76,-4.87 -17.97,-11.6 -24.63,-20.08 -6.66,-8.48 -11.77,-18.42 -15.23,-29.83 -3.47,-11.5 -5.11,-23.58 -4.93,-36.26 0,-25.34 5.01,-50.68 15.06,-76.02 10.13,-25.25 23.54,-50.19 40.23,-74.76 9.12,-12.96 20.07,-25.34 32.94,-37.13 12.59,-11.79 24.09,-17.74 34.49,-17.74 5.47,0 11.76,4.98 18.97,14.92 3.55,4.87 6.93,10.23 10.13,15.78 3.19,5.66 6.11,11.6 8.85,17.84 5.3,12.37 7.94,21.34 7.94,26.89 0,5.46 -1.55,12.67 -4.75,21.35 -3.19,8.77 -7.03,13.15 -11.49,13.15 -6.48,0 -11.77,-4.67 -16.06,-13.93 -2.11,-4.77 -3.74,-8.87 -4.66,-12.18 -0.99,-3.32 -2.09,-6.93 -3.38,-10.72 -4.1,-11.41 -7.56,-19.59 -10.39,-24.56 -11.77,2.34 -21.62,8.47 -29.38,18.61 -3.74,4.98 -7.66,10.92 -11.68,17.84 -4.01,6.92 -8.21,14.81 -12.68,23.48 -3.55,6.93 -6.84,14.62 -9.85,23.2 -3.1,8.58 -5.66,17.36 -7.75,26.42 -2.2,9.07 -3.83,18.04 -5.11,27.1 -1.27,9.07 -1.91,17.45 -1.91,25.25 0,11.11 4.47,21.83 13.41,32.26 9.12,10.14 18.89,15.2 29.39,15.2 22.8,0 44.52,-4.29 64.95,-12.87 20.53,-8.57 40.24,-19.98 59.12,-34.31 18.7,-13.83 37.67,-30.11 56.92,-48.83 9.58,-9.25 18.71,-18.13 27.37,-26.41 8.67,-8.29 16.89,-16.18 24.72,-23.79 12.96,-12.18 23.82,-18.32 32.3,-18.32 2.56,0 3.74,2.63 3.74,7.7zm326.9 -42.79c0,3.22 -0.63,6.53 -2.01,9.84 -1.37,3.32 -3.11,6.53 -5.2,9.75 -2.2,3.12 -4.48,6.04 -7.12,8.77 -2.56,2.82 -5.21,5.07 -7.85,6.72 -6.29,4.39 -15.15,8.29 -26.65,11.6 -11.5,3.31 -25.63,4.97 -42.6,4.97 -13.5,0 -27.19,-1.85 -40.87,-5.56 -13.78,-3.7 -26.91,-9.84 -39.6,-18.41 4.1,6.62 6.75,13.06 7.94,19.1 1.09,6.13 1.73,13.35 1.73,21.73 0,15.01 -3.55,30.99 -10.67,47.95 -7.03,17.15 -15.97,33.04 -27.01,47.66 -11.12,14.72 -22.71,26.9 -35.03,36.55 -6.93,5.56 -14.59,10.33 -22.89,14.42 -8.21,4.09 -16.97,7.51 -26.01,10.03 -9.11,2.54 -18.51,4.49 -28.37,5.76 -9.77,1.17 -19.71,1.85 -29.65,1.85 -6.94,0 -13.68,-2.44 -20.35,-7.21 -6.57,-4.68 -12.41,-10.53 -17.6,-17.35 -5.21,-6.93 -9.31,-14.23 -12.41,-22.03 -3.2,-7.8 -4.75,-14.82 -4.75,-21.15 0,-15.4 1.91,-30.21 5.74,-44.34 3.84,-14.23 9.03,-27.88 15.52,-41.13 6.57,-13.25 14.05,-26.21 22.63,-38.89 8.58,-12.67 17.61,-25.25 27.28,-37.82 5.29,-7.01 11.41,-13.93 18.24,-20.66 6.94,-6.82 14.05,-12.87 21.53,-18.13 7.49,-5.36 15.07,-9.65 22.73,-13.06 7.66,-3.31 14.96,-4.97 21.99,-4.97 5.66,0 10.58,0.87 14.69,2.63 4.09,1.66 7.94,4.09 11.58,7.21 3.65,3.22 7.39,7.11 11.22,11.89 3.84,4.77 8.2,10.03 13.23,15.99 1.65,1.66 6.02,4.18 13.24,7.6 7.2,3.31 15.78,6.53 25.63,9.65 9.94,3.12 20.35,5.95 31.21,8.29 10.85,2.44 20.7,3.61 29.64,3.61 8.95,0 17.06,-0.39 24.55,-0.97 7.48,-0.68 14.78,-1.85 21.81,-3.31 7.02,-1.56 14.04,-3.61 20.98,-6.34 6.94,-2.63 14.41,-5.85 22.44,-9.65 0.73,2.82 1.09,5.26 1.09,7.4zm-199.63 68.52c0.09,-5.36 -0.17,-11.41 -1.09,-18.13 -0.91,-6.73 -2.46,-13.16 -4.75,-19.1 -2.18,-6.04 -5.1,-10.92 -8.76,-14.72 -3.64,-3.81 -8.21,-5.36 -13.5,-4.58 -8.2,-3.41 -14.96,-7.02 -20.35,-10.83 -5.29,-3.8 -9.39,-5.75 -12.32,-5.75 -2.1,0 -4.38,0.68 -6.94,2.14 -2.46,1.46 -5.01,3.41 -7.75,5.85 -2.65,2.44 -5.38,5.36 -8.12,8.67 -2.73,3.41 -5.47,6.82 -8.11,10.43 -5.39,7.51 -10.32,14.23 -14.88,20.27 -4.56,6.14 -8.85,12.19 -12.86,18.13 -4.02,6.04 -7.85,12.28 -11.59,18.91 -3.74,6.53 -7.49,13.93 -11.22,22.12 -1.65,3.41 -3.02,7.51 -4.29,12.28 -1.28,4.78 -2.28,9.66 -3.2,14.73 -0.91,4.97 -1.55,10.03 -2.01,15.1 -0.45,5.07 -0.63,9.56 -0.63,13.55 0,2.44 0.74,5.45 2.37,8.97 1.64,3.61 3.74,7.02 6.29,10.33 2.56,3.31 5.47,6.14 8.77,8.38 3.38,2.35 6.57,3.41 9.76,3.41 9.12,0 16.88,-0.39 23.27,-1.26 6.48,-0.88 12.41,-2.35 17.79,-4.58 5.47,-2.15 10.95,-5.17 16.42,-8.97 5.56,-3.81 11.96,-8.77 19.25,-14.82 3.56,-2.92 7.12,-6.24 10.59,-10.04 3.46,-3.8 6.94,-7.79 10.31,-12.08 3.38,-4.3 6.57,-8.68 9.58,-13.16 3,-4.48 5.92,-8.87 8.57,-13.25 1.73,-2.92 3.28,-6.44 4.56,-10.62 1.18,-4.19 2.19,-8.39 2.92,-12.57 0.73,-4.19 1.19,-7.99 1.46,-11.41 0.28,-3.41 0.45,-5.85 0.45,-7.4zm736.64 -28.26c0,1.75 -0.28,3.89 -0.91,6.53 -0.63,2.72 -1.46,5.56 -2.46,8.57 -0.91,3.12 -2.1,6.14 -3.47,9.26 -1.28,3.21 -2.82,5.94 -4.38,8.48 -3.01,4.97 -7.02,10.62 -11.86,17.15 -4.93,6.43 -10.32,13.15 -16.24,20.08 -5.84,7.02 -12.14,13.93 -18.79,20.85 -6.67,6.93 -13.24,13.25 -19.71,19.01 -5.11,4.58 -11.13,9.65 -17.88,15.1 -6.75,5.56 -13.87,10.72 -21.36,15.4 -7.48,4.78 -15.14,8.77 -22.99,11.89 -7.85,3.12 -15.24,4.68 -22.18,4.68 -6.29,0 -11.95,-0.88 -16.97,-2.82 -5.1,-1.95 -9.76,-5.46 -13.95,-10.72 -4.2,-5.26 -7.85,-12.38 -11.04,-21.54 -3.19,-9.16 -6.02,-20.95 -8.31,-35.38 -1.09,-6.13 -2.01,-12.67 -2.82,-19.58 -0.82,-6.93 -1.55,-13.84 -2.37,-20.67 -0.82,-6.92 -1.55,-13.55 -2.28,-19.89 -0.73,-6.33 -1.55,-11.98 -2.55,-16.86 -1.01,-4.87 -2.01,-8.67 -3.19,-11.6 -1.2,-2.82 -2.46,-4.19 -3.93,-4.19 -2.28,0 -5.56,2.05 -9.77,6.25 -4.1,4.18 -9.03,10.23 -14.69,18.13 -5.56,7.89 -11.76,17.35 -18.42,28.46 -6.66,11.01 -13.69,23.39 -20.99,37.04 -14.41,27.48 -26.64,48.33 -36.59,62.57 -10.03,14.23 -19.07,21.44 -27.27,21.44 -12.32,0 -20.62,-6.24 -24.82,-18.62 -3.92,-12.57 -6.38,-33.53 -7.29,-63.06 -0.45,-28.75 -2.37,-50.88 -5.75,-66.37 -3.28,-15.6 -7.48,-23.3 -12.68,-23.3 -3.19,0 -7.85,3.12 -14.05,9.26 -6.11,6.24 -13.04,14.72 -20.8,25.53 -7.75,10.92 -16.14,23.68 -25.28,38.4 -9.12,14.82 -18.16,30.8 -27.27,48.15 -2.47,4.58 -5.3,9.84 -8.49,15.69 -3.28,5.94 -6.48,11.89 -9.77,17.83 -3.38,6.04 -6.57,11.7 -9.67,17.05 -3.1,5.27 -5.84,9.66 -8.12,13.06 -5.2,7.99 -11.41,11.99 -18.7,11.99 -13.59,0 -22.44,-7.41 -26.73,-22.22 -1.09,-3.81 -1.92,-6.93 -2.56,-9.26 -0.64,-2.44 -1.09,-4.77 -1.47,-7.21 -0.36,-2.34 -0.63,-4.98 -0.72,-7.8 -0.09,-2.82 -0.09,-6.62 -0.09,-11.11 0,-7.7 0.17,-14.62 0.63,-21.05 0.45,-6.33 1.09,-12.77 1.74,-19.2 0.73,-6.53 1.64,-13.46 2.74,-20.86 0.99,-7.51 2.09,-16.08 3.18,-26.02 0.91,-8.19 1.65,-16.96 2.37,-26.31 0.74,-9.26 1.37,-18.33 2.01,-27.2 0.64,-8.87 1.28,-17.05 1.92,-24.47 0.54,-7.4 1.45,-13.35 2.55,-17.64 0.46,-2.34 1.74,-4.97 3.65,-7.99 2.01,-3.12 4.29,-6.04 6.84,-8.77 2.65,-2.73 5.3,-5.17 8.21,-7.12 2.82,-2.04 5.29,-3.02 7.49,-3.02 3.73,0 6.75,0.87 9.21,2.72 2.37,1.86 4.3,4.3 5.84,7.31 1.55,3.03 2.56,6.63 3.19,10.72 0.64,4.09 1,8.29 1,12.67 0,4.58 -0.46,10.24 -1.28,17.15 -0.73,6.82 -1.82,14.24 -3.01,22.22 -1.28,7.99 -2.65,16.28 -4.19,24.86 -1.46,8.57 -2.92,16.76 -4.39,24.56 -1.45,7.8 -2.73,15.01 -3.91,21.54 -1.1,6.62 -2.01,11.98 -2.46,16.18 -1.65,10.43 -2.74,18.81 -3.29,24.95 -0.45,6.24 -0.73,11.2 -0.73,15.01 2.28,-2.44 5.2,-6.14 8.77,-11.12 3.55,-4.97 7.47,-10.82 11.76,-17.44 4.29,-6.63 8.76,-14.04 13.5,-22.03 4.75,-7.99 9.49,-16.18 14.33,-24.57 3.38,-5.84 7.11,-12.47 11.3,-19.98 4.2,-7.4 8.58,-14.82 13.13,-22.41 4.56,-7.51 9.03,-14.52 13.51,-21.25 4.47,-6.63 8.57,-12.28 12.32,-16.86 7.48,-9.07 15.23,-16.09 23.26,-20.86 7.94,-4.68 16.34,-7.12 25.1,-7.12 8.57,0 15.96,3.61 22.35,10.72 6.29,7.12 10.49,16.47 12.68,27.88 0.99,5.26 1.9,11.4 2.55,18.41 0.55,6.93 1.19,14.24 1.74,21.84 0.45,7.61 0.99,15.2 1.45,22.81 0.46,7.6 0.91,14.81 1.46,21.73 0.54,6.62 1.28,12.18 2.28,16.57 1,4.39 2.01,7.8 3.01,10.43 1.1,2.54 2.1,4.39 3.01,5.36 0.82,1.07 1.55,1.55 2.11,1.55 3.38,0 9.11,-7.51 17.15,-22.51 4.1,-7.61 8.57,-16.09 13.59,-25.44 5.01,-9.26 10.49,-19.59 16.59,-30.8 6.03,-11.01 12.51,-21.73 19.53,-31.96 6.94,-10.34 13.7,-19.4 20.45,-27.29 6.65,-7.9 12.96,-14.24 18.79,-18.82 5.92,-4.67 10.86,-7.02 14.96,-7.02 2.73,0 5.47,0.29 8.31,0.88 2.82,0.49 5.66,1.36 8.3,2.53 2.64,1.17 5.02,2.54 7.12,4.09 2.01,1.66 3.56,3.41 4.65,5.36 2.64,4.58 4.56,9.75 5.75,15.5 1.18,5.85 2.01,12.47 2.55,19.98 0.46,7.61 1,15.99 1.46,25.15 0.46,9.26 1.19,19.5 2.28,30.7 2.46,23.79 6.29,41.52 11.59,53.32 5.29,11.69 12.77,17.54 22.63,17.54 3.73,0 8.4,-1.36 14.14,-3.99 5.66,-2.73 11.77,-6.14 18.16,-10.43 6.39,-4.3 12.96,-9.16 19.54,-14.62 6.56,-5.36 12.77,-10.82 18.42,-16.08 5.75,-5.36 11.21,-10.72 16.42,-16.18 5.3,-5.36 10.59,-10.92 15.97,-16.57 5.29,-5.56 10.76,-11.41 16.42,-17.54 5.57,-6.04 11.59,-12.57 18.06,-19.4 2.11,-2.24 4.03,-3.41 5.85,-3.41 2.64,0 4.01,2.44 4.01,7.41zm381.92 -20.27c0,5.94 -1.82,12.96 -5.56,21.15 -0.92,2.05 -2.46,4.29 -4.75,6.72 -2.19,2.34 -4.55,4.68 -6.94,6.93 -2.36,2.34 -4.74,4.38 -7.11,6.13 -2.28,1.85 -4.02,3.22 -5.02,4.19 -5.93,5.16 -13.5,10.92 -22.72,17.25 -9.31,6.44 -19.61,13.16 -30.92,20.27 -11.31,7.12 -23.27,14.43 -35.95,21.74 -12.59,7.3 -25.27,14.51 -37.95,21.53 -12.59,7.02 -24.91,13.75 -36.86,19.99 -11.97,6.33 -22.82,11.79 -32.58,16.57 -7.21,3.41 -13.96,7.31 -20.35,11.6 -6.38,4.29 -12.67,8.29 -18.88,11.99 -6.12,3.7 -12.32,6.82 -18.52,9.25 -6.29,2.44 -12.86,3.71 -19.8,3.71 -4.09,0 -8.02,-0.49 -11.86,-1.56 -3.83,-1.07 -7.3,-2.72 -10.31,-4.97 -3.01,-2.34 -5.47,-5.26 -7.39,-8.77 -1.83,-3.5 -2.82,-7.7 -2.82,-12.67 0,-2.63 0.91,-5.17 2.55,-7.41 1.74,-2.34 3.92,-4.39 6.57,-6.13 2.65,-1.86 5.66,-3.51 8.85,-5.07 3.19,-1.46 6.29,-2.83 9.31,-4 3.19,-1.27 7.03,-2.63 11.41,-4.09 4.38,-1.46 8.76,-2.82 13.23,-4.29 4.47,-1.46 8.76,-2.92 12.96,-4.39 4.19,-1.55 7.75,-3.12 10.85,-4.58 5.66,-3.31 11.05,-7.4 15.97,-12.28 5.02,-4.98 9.67,-10.43 13.95,-16.28 4.3,-5.94 8.31,-12.09 12.05,-18.42 3.74,-6.43 7.2,-12.57 10.4,-18.41 2.1,-4 4.2,-8.48 6.11,-13.46 2.01,-4.97 3.75,-9.84 5.21,-14.81 1.55,-4.98 2.73,-9.65 3.47,-14.14 0.82,-4.48 1.28,-8.29 1.28,-11.3 0,-13.16 -2.74,-23.59 -8.03,-31.38 -5.38,-7.8 -12.04,-11.7 -20.07,-11.7 -5.02,0 -10.77,1.76 -17.25,5.26 -6.48,3.51 -13.05,7.71 -19.53,12.67 -6.48,4.97 -12.59,10.14 -18.16,15.59 -5.66,5.46 -10.13,10.04 -13.5,13.84 -8.21,9.35 -15.88,19.49 -23.09,30.41 -7.29,10.92 -14.04,22.22 -20.52,33.73 -6.39,11.5 -12.41,23 -18.16,34.69 -5.66,11.6 -10.95,22.71 -15.78,33.33 -2.11,8.97 -4.2,18.91 -6.21,29.73 -2.1,10.82 -3.65,22.71 -4.75,35.68 -1.91,25.73 -3.38,48.63 -4.38,68.81 -1,20.17 -3.01,38.69 -6.02,55.45 -1.09,6.04 -3.65,11.41 -7.75,16.09 -4.1,4.67 -9.49,7.02 -16.06,7.02 -1.91,0 -4.29,-0.49 -6.94,-1.56 -2.64,-1.07 -5.2,-2.53 -7.56,-4.48 -2.46,-1.86 -4.48,-4 -6.21,-6.34 -1.65,-2.44 -2.56,-5.07 -2.56,-7.89 0,-6.25 0.45,-14.04 1.28,-23.3 0.73,-9.16 1.73,-18.51 2.74,-27.78 1.09,-9.35 2.09,-17.83 3.1,-25.44 0.99,-7.6 1.65,-12.96 2.01,-15.99 2.46,-19.59 4.75,-40.84 6.66,-63.55 2.01,-22.71 3.56,-47.56 4.84,-74.36 0.17,-5.75 0.37,-13.25 0.63,-22.71 0.28,-9.46 0.55,-19 0.83,-28.56 0.28,-9.65 0.54,-18.62 0.82,-26.89 0.28,-8.2 0.55,-14.14 0.91,-17.55 2.46,-36.35 11.41,-54.48 26.73,-54.48 3.02,0 5.93,0.77 8.67,2.44 2.82,1.55 5.2,3.7 7.39,6.24 2.11,2.53 3.84,5.45 5.1,8.67 1.2,3.31 1.83,6.43 1.83,9.46 0,6.62 -0.63,13.83 -2.01,21.54 -1.37,7.7 -2.82,15.69 -4.39,23.78 -1.64,8.09 -3.1,15.99 -4.47,23.79 -1.27,7.8 -2.01,14.91 -2.01,21.44 0,5.45 0.55,8.29 1.65,8.29 12.5,-23.98 24.63,-45.12 36.59,-63.25 11.95,-18.23 23.9,-33.24 35.85,-45.23 7.66,-7.7 15.23,-14.62 22.72,-21.05 7.48,-6.34 14.96,-11.89 22.53,-16.57 7.57,-4.67 15.42,-8.28 23.54,-10.82 8.12,-2.53 16.7,-3.99 25.82,-4.19 6.21,-0.09 12.68,1.46 19.34,4.87 6.75,3.41 12.78,8.58 18.06,15.41 5.38,6.92 9.77,15.2 13.24,25.05 3.46,9.75 5.1,20.86 4.93,33.23 0.17,9.56 -1.2,19.01 -4.11,28.56 -2.92,9.56 -6.84,18.91 -11.77,28.17 -4.92,9.16 -10.58,18.13 -16.97,26.7 -6.38,8.48 -13.13,16.47 -20.07,23.68 14.6,-5.94 29.65,-13.15 45.07,-21.73 15.42,-8.57 30.84,-17.83 46.26,-27.68 15.42,-9.94 30.56,-20.18 45.43,-30.9 14.87,-10.62 29.1,-20.95 42.61,-31.09 4.1,-3.02 7.39,-5.56 9.94,-7.7 2.46,-2.05 5.21,-3.12 8.2,-3.12 2.56,0 4.02,1.27 4.48,3.8 0.46,2.63 0.63,5.26 0.63,7.9zm345.05 24.85c0,2.24 -0.28,4.97 -0.82,8.08 -0.55,3.22 -1.27,6.34 -2.28,9.56 -0.91,3.31 -2.01,6.33 -3.19,9.35 -1.19,2.92 -2.37,5.26 -3.56,6.92 -1.09,1.56 -2.64,3.61 -4.75,6.14 -2.01,2.63 -4.29,5.45 -6.75,8.48 -2.56,3.02 -5.29,6.24 -8.21,9.55 -2.92,3.32 -6.02,6.53 -9.21,9.56 -11.04,10.92 -21.9,21.34 -32.49,31.58 -10.58,10.14 -21.53,19.2 -32.75,27 -11.22,7.8 -22.9,14.04 -35.13,18.72 -12.22,4.68 -25.45,6.82 -39.69,6.62 -6.57,0 -13.23,-1.26 -19.89,-3.8 -6.67,-2.53 -12.96,-6.24 -18.89,-11.01 -5.83,-4.77 -10.95,-10.43 -15.23,-17.15 -4.29,-6.63 -7.3,-13.94 -9.03,-21.93 -5.2,5.65 -10.67,11.6 -16.33,17.83 -5.76,6.13 -11.69,12.37 -17.8,18.71 -6.12,6.24 -12.5,12.38 -19.07,18.23 -6.66,5.94 -13.41,11.41 -20.35,16.27 -3.93,2.73 -8.57,5.56 -14.05,8.58 -5.38,3.02 -11.13,5.85 -17.06,8.48 -6.02,2.53 -11.95,4.68 -17.96,6.24 -5.93,1.66 -11.31,2.44 -16.16,2.44 -7.29,0 -13.59,-2.44 -18.79,-7.31 -5.3,-4.87 -9.67,-10.82 -13.14,-17.83 -3.47,-7.02 -6.02,-14.52 -7.75,-22.52 -1.64,-7.99 -2.55,-15.2 -2.55,-21.44 0,-12.57 1.73,-25.44 5.1,-38.59 3.38,-13.06 7.75,-25.93 13.24,-38.4 5.46,-12.38 11.5,-24.27 18.15,-35.48 6.67,-11.3 13.24,-21.25 19.71,-30.01 6.75,-9.16 14.78,-18.23 24,-27.29 9.31,-8.97 18.89,-17.06 28.92,-24.27 9.94,-7.12 19.71,-12.87 29.38,-17.25 9.58,-4.38 18.16,-6.53 25.64,-6.53 3.74,0 7.75,0 11.87,0 4.18,0 8.39,0.2 12.49,0.69 4.1,0.49 8.13,1.26 11.96,2.24 3.92,1.08 7.57,2.63 10.76,4.78 1.55,1.07 3.47,3.31 5.56,6.53 2.2,3.21 4.2,6.82 6.02,10.82 1.91,3.99 3.46,7.99 4.65,11.98 1.28,4 1.91,7.21 1.91,9.46 0,6.34 -1.36,14.72 -4.01,25.15 -2.83,13.16 -5.47,25.05 -7.85,35.87 -2.46,10.72 -3.64,21.83 -3.64,33.23 0,6.43 1,13.06 2.92,19.89 2.01,6.72 4.75,12.86 8.49,18.41 3.65,5.46 8.02,10.04 13.32,13.55 5.3,3.51 11.22,5.27 17.79,5.27 10.85,0 21.99,-2.44 33.4,-7.31 11.4,-4.87 22.9,-11.51 34.57,-19.98 11.68,-8.48 23.36,-18.23 34.94,-29.44 11.59,-11.11 22.99,-22.9 34.22,-35.48 0.83,-1.17 2.46,-3.12 4.66,-5.85 2.18,-2.82 4.55,-5.56 6.93,-8.28 2.46,-2.83 4.75,-5.27 7.11,-7.51 2.28,-2.14 4.02,-3.22 5.02,-3.22 3.84,0 5.66,3.9 5.66,11.7zm-237.84 -23.68c0,-3.22 -0.18,-7.21 -0.55,-11.99 -0.37,-4.77 -1.55,-8.67 -3.47,-11.69 -2.01,-3.12 -4.38,-4.58 -7.21,-4.49 -2.92,0.1 -5.74,0.19 -8.57,0.19 -6.3,0 -12.23,0.97 -18.06,3.13 -5.75,2.04 -11.41,4.97 -16.97,8.67 -5.56,3.7 -10.86,7.99 -15.88,12.86 -5.1,4.87 -10.03,9.94 -14.86,15.3 -4.11,4.39 -8.4,9.75 -12.96,16.28 -4.55,6.43 -9.03,13.55 -13.32,21.25 -4.38,7.7 -8.66,15.78 -12.77,24.26 -4.11,8.48 -7.66,16.87 -10.68,25.15 -3.02,8.29 -5.38,16.28 -7.21,23.98 -1.82,7.7 -2.65,14.72 -2.65,20.95 0,1.95 0.19,4.49 0.64,7.61 0.46,3.12 1.19,6.13 2.19,9.16 0.91,2.92 2.28,5.45 3.93,7.51 1.73,2.14 3.83,3.22 6.29,3.22 8.21,0 18.42,-2.83 30.75,-8.29 16.79,-7.7 31.93,-18.03 45.61,-31.29 13.59,-13.25 25.28,-28.55 34.86,-45.8 13.87,-26.9 20.9,-55.55 20.9,-85.96z"/>
   <path class="fil7" d="M10426.72 4011.8c0,7.02 -1.83,12.38 -5.38,16.08 -3.56,3.81 -7.66,7.02 -12.22,9.85 -5.93,2.92 -12.51,5.45 -19.71,7.79 -7.21,2.24 -14.6,4.3 -22.18,6.14 -7.56,1.76 -15.14,3.31 -22.8,4.48 -7.66,1.27 -14.96,2.24 -21.99,3.03 -7.49,0.78 -15.42,1.56 -23.72,2.34 -8.4,0.68 -16.51,1.56 -24.36,2.44 -7.85,0.78 -15.06,1.86 -21.81,2.92 -6.66,1.17 -12.05,2.63 -16.15,4.29 -3.74,17.36 -7.67,33.82 -11.86,49.61 -4.2,15.69 -7.76,31.29 -10.59,46.98 -0.73,3.61 -1.65,8.97 -2.83,16.27 -1.19,7.21 -2.28,14.72 -3.27,22.62 -1.09,7.99 -2.01,15.4 -2.83,22.31 -0.82,6.93 -1.2,11.99 -1.2,15.01 0,7.8 1.1,13.65 3.48,17.55 2.28,3.9 4.84,7.02 7.57,9.46 2.74,2.34 5.29,4.58 7.66,6.62 2.29,2.14 3.47,5.26 3.47,9.46 0,2.63 -1.18,5.26 -3.64,7.7 -2.38,2.54 -5.3,4.68 -8.67,6.63 -3.38,1.85 -7.03,3.31 -10.85,4.39 -3.84,1.07 -7.12,1.55 -9.94,1.55 -5.21,0 -9.86,-1.55 -13.96,-4.58 -4.1,-3.02 -7.58,-7.02 -10.4,-11.79 -2.83,-4.87 -5.11,-10.43 -6.66,-16.77 -1.65,-6.24 -2.46,-12.77 -2.46,-19.4 0,-8.77 0.74,-18.12 2.19,-28.06 1.37,-10.04 3.19,-20.27 5.3,-30.7 2.18,-10.53 4.46,-21.25 6.84,-32.16 2.36,-10.92 4.64,-21.84 6.83,-32.65 0.91,-4.58 1.83,-9.75 2.74,-15.3 1,-5.65 1.91,-11.01 2.83,-15.99 0.91,-5.07 1.64,-9.35 2.18,-13.06 0.55,-3.61 0.74,-5.65 0.74,-6.24 0,-3.02 -1,-5.36 -3.02,-7.02 -2.1,-1.55 -4.46,-2.44 -7.39,-2.44 -2.1,0 -4.47,0.29 -6.94,0.78 -2.46,0.49 -5.01,0.97 -7.49,1.66 -2.46,0.68 -4.92,1.27 -7.39,1.76 -2.36,0.49 -4.56,0.68 -6.48,0.68 -3.19,0 -6.29,-0.78 -9.12,-2.24 -2.82,-1.55 -5.29,-3.5 -7.49,-6.04 -2.1,-2.43 -3.73,-5.35 -4.92,-8.57 -1.19,-3.22 -1.73,-6.53 -1.73,-9.94 0,-2.73 0.99,-5.16 3.01,-7.4 2.1,-2.35 4.65,-4.29 7.75,-5.85 3.19,-1.66 6.48,-2.92 9.94,-3.9 3.47,-0.97 6.67,-1.46 9.49,-1.46 2.28,0 4.84,-0.09 7.48,-0.29 2.65,-0.19 5.3,-0.39 7.85,-0.68 2.65,-0.29 5.02,-0.58 7.21,-0.87 2.28,-0.29 4.19,-0.4 5.75,-0.4 1.09,0 2.37,-0.09 3.74,-0.29 1.45,-0.2 2.92,-0.69 4.47,-1.56 1.45,-0.87 2.82,-2.34 4.1,-4.29 1.28,-2.05 2.37,-4.77 3.2,-8.48 1.27,-5.85 2.82,-12.38 4.55,-19.69 1.82,-7.21 3.65,-14.51 5.47,-21.83 1.92,-7.31 3.65,-14.52 5.38,-21.54 1.65,-7.02 3.11,-13.36 4.39,-18.81 1.64,-5.36 3.01,-11.11 4.19,-17.15 1.09,-6.14 2.19,-12.19 3.19,-18.32 0.91,-6.04 2.1,-11.99 3.28,-17.64 1.28,-5.76 2.92,-11.02 4.84,-15.7 3.92,-9.93 10.22,-14.91 18.98,-14.91 13.23,0 19.79,7.8 19.79,23.39 0,9.75 -2.01,20.86 -5.93,33.43 -8.48,28.95 -14.87,52.82 -18.97,71.54 -4.11,18.72 -6.12,31.38 -6.12,37.82 0,7.11 3.29,10.62 9.86,10.62 8.02,0 15.6,-0.2 22.63,-0.49 7.03,-0.29 14.14,-0.78 21.34,-1.37 7.21,-0.68 14.87,-1.46 22.9,-2.44 8.03,-0.97 16.97,-2.04 27.01,-3.12 7.11,-0.97 13.95,-2.14 20.43,-3.5 6.48,-1.27 12.51,-2.54 18.06,-3.81 5.48,-1.26 10.4,-2.43 14.69,-3.61 4.29,-1.07 7.85,-1.85 10.68,-2.24 1.92,-0.2 3.84,-0.49 5.75,-0.88 1.83,-0.39 3.48,-0.39 4.83,-0.09 1.29,0.19 2.38,0.97 3.2,2.24 0.83,1.27 1.19,3.32 1.19,6.14zm-515.12 -3.99c1.82,0 3.64,0.49 5.56,1.45 1.83,0.88 3.56,2.15 5.21,3.51 1.55,1.46 3,2.92 4.37,4.58 1.37,1.66 2.37,3.12 3.11,4.39 2.46,4.39 3.46,10.72 3.01,18.91 -0.46,8.19 -1.83,17.93 -4.1,29.43 -2.01,11.6 -3.65,21.73 -5.11,30.51 -1.37,8.77 -2.56,17.25 -3.28,25.53 -0.82,8.29 -1.28,16.96 -1.46,26.02 -0.17,9.07 0,19.59 0.46,31.78 4.64,-10.04 9.12,-21.45 13.41,-34.22 4.3,-12.77 9.12,-26.02 14.41,-39.86 5.38,-13.74 11.59,-27.58 18.71,-41.52 7.12,-13.93 15.78,-27.1 25.91,-39.67 8.2,-10.14 17.61,-19.1 28.11,-26.89 10.49,-7.8 21.71,-12.48 33.66,-13.94 4.47,-0.58 9.31,-0.39 14.41,0.68 5.2,1.08 10.03,2.83 14.59,5.17 4.57,2.34 8.4,5.36 11.51,8.97 3.1,3.61 4.92,7.7 5.46,12.28 0.19,1.36 -0.27,3.22 -1.45,5.75 -1.19,2.44 -2.64,4.87 -4.56,7.21 -1.82,2.44 -3.83,4.58 -5.84,6.44 -2.1,1.95 -3.83,3.02 -5.2,3.22 -0.55,0 -1.82,0 -3.93,0 -2.01,0 -4.37,0 -7.11,0 -2.65,0 -5.3,0 -7.85,0 -2.55,0 -4.64,0 -6.29,0 -5.47,0 -10.22,0.58 -14.14,1.94 -3.93,1.37 -7.66,3.41 -11.23,6.34 -3.55,2.83 -7.29,6.53 -11.12,11.11 -3.84,4.58 -8.4,9.94 -13.79,16.28 -5.29,6.24 -10.67,14.42 -15.96,24.56 -5.38,10.04 -10.59,20.96 -15.51,32.56 -5.02,11.6 -9.77,23.39 -14.24,35.37 -4.38,11.99 -8.39,22.9 -11.96,32.85 -2.19,5.85 -4.19,12.19 -6.2,19.01 -1.92,6.72 -3.83,13.64 -5.56,20.66 -1.83,7.02 -3.38,14.14 -4.84,21.25 -1.46,7.21 -2.65,13.93 -3.74,20.46 -0.17,1.46 -1.55,3.13 -4.1,4.68 -2.65,1.66 -5.66,3.12 -9.03,4.49 -3.38,1.26 -6.58,2.43 -9.57,3.21 -3.02,0.88 -5.02,1.27 -5.93,1.37 -4.75,0.49 -8.76,-1.37 -11.87,-5.76 -3.1,-4.38 -5.56,-9.94 -7.39,-16.57 -1.73,-6.63 -2.92,-13.84 -3.56,-21.54 -0.63,-7.7 -0.91,-14.62 -0.91,-20.76 0,-6.43 0.18,-14.62 0.54,-24.56 0.28,-9.85 0.73,-20.37 1.19,-31.39 0.46,-11.01 0.83,-22.02 1.28,-32.94 0.45,-10.92 0.91,-20.76 1.28,-29.34 0.63,-9.06 1,-16.67 1,-22.8 0,-6.04 -0.09,-11.6 -0.37,-16.38 -0.28,-4.87 -0.55,-9.65 -0.63,-14.32 -0.18,-4.68 0,-10.14 0.46,-16.38 0.36,-4.58 1.55,-8.87 3.55,-12.86 1.92,-4 4.29,-7.51 7.21,-10.43 2.83,-2.92 6.02,-5.36 9.48,-7.12 3.48,-1.85 6.75,-2.72 9.95,-2.72zm767.76 58.48c0,2.92 -2.01,7.98 -5.93,15.2 -9.22,14.23 -19.62,28.55 -31.12,42.79 -11.5,14.32 -23.72,27.87 -36.59,40.74 -12.96,12.87 -26.36,24.85 -40.41,35.96 -13.96,11.11 -28.1,20.76 -42.34,28.85 -14.23,8.08 -28.46,14.32 -42.6,18.71 -14.14,4.39 -27.83,6.44 -41.06,6.24 -28.46,0 -50.63,-8.87 -66.43,-26.51 -15.77,-17.73 -23.62,-44.44 -23.62,-80.31 0,-29.83 4.29,-58.87 12.96,-87.04 8.66,-28.17 23.34,-55.36 44.24,-81.38 3.93,-4.59 8.31,-8.97 13.23,-13.16 4.84,-4.19 10.04,-7.89 15.52,-11.11 5.38,-3.22 11.04,-5.85 16.79,-7.7 5.84,-1.95 11.68,-3.12 17.51,-3.41 1.46,0 3.38,0.19 5.93,0.49 2.46,0.39 5.1,1.07 8.04,2.04 2.82,0.97 5.56,2.15 8.2,3.61 2.73,1.36 4.84,3.12 6.48,5.26 4.92,6.04 8.93,12.38 11.86,18.81 2.92,6.53 4.56,13.64 4.92,21.44 0.37,8.77 -0.54,17.35 -2.82,25.83 -2.19,8.48 -5.93,17.15 -11.23,26.03 -5.2,8.77 -12.13,17.93 -20.7,27.38 -8.48,9.46 -18.88,19.59 -30.92,30.41 -7.67,6.82 -16.24,14.43 -25.55,22.71 -9.4,8.29 -20.62,16.96 -33.86,26.12 0,18.42 5.21,32.46 15.61,42.11 10.49,9.65 24.72,14.42 42.97,14.42 10.13,0 20.35,-1.46 30.74,-4.29 10.32,-2.82 20.45,-6.62 30.48,-11.3 9.94,-4.68 19.62,-9.94 28.93,-15.99 9.39,-5.94 18.16,-12.09 26.36,-18.42 15.14,-11.79 28.83,-23.48 41.14,-35.28 12.32,-11.69 24.55,-23.97 36.68,-36.94l14.42 -15.4c8.66,-8.19 15.05,-12.28 18.97,-12.28 2.1,0 3.2,1.75 3.2,5.36zm-204.2 -56.73c-0.17,-2.92 -0.63,-5.75 -1.27,-8.48 -0.55,-2.72 -1.55,-5.16 -2.74,-7.3 -1.27,-2.05 -2.74,-3.71 -4.29,-4.98 -1.65,-1.27 -3.47,-1.85 -5.66,-1.85 -9.4,0.58 -18.89,6.72 -28.28,18.42 -9.49,11.69 -18.34,27.19 -26.74,46.39 -2.01,4.18 -3.73,8.87 -5.2,14.13 -1.55,5.26 -3.02,10.62 -4.29,15.99 -1.37,5.45 -2.56,10.82 -3.48,16.18 -0.99,5.26 -1.82,10.04 -2.55,14.23 9.22,-7.4 17.79,-14.23 25.63,-20.57 7.85,-6.24 15.15,-12.77 21.91,-19.39 4.29,-4.19 8.66,-8.68 13.13,-13.55 4.47,-4.87 8.48,-9.94 12.13,-15.3 3.65,-5.36 6.57,-10.82 8.67,-16.57 2.18,-5.65 3.18,-11.5 3,-17.35zm650.24 -1.17c0,3.22 -0.1,7.02 -0.28,11.21 -0.18,4.29 -0.46,9.25 -0.82,14.72 -0.37,5.36 -0.74,10.92 -1.19,16.57 -0.46,5.75 -0.92,11.6 -1.46,17.74 -0.54,6.04 -1,11.5 -1.36,16.08 -0.38,4.68 -0.65,8.67 -0.83,11.89 -1.19,26.12 -3.74,52.92 -7.66,80.41 -3.93,27.49 -8.86,53.71 -14.79,78.66 -9.39,41.33 -23.08,76.61 -41.14,105.94 -18.16,29.64 -43.24,44.54 -75.37,44.54 -20.98,0 -42.24,-4.48 -63.58,-13.45 -21.26,-8.77 -39.14,-21.05 -53.74,-36.85 -8.76,-11.01 -13.13,-18.62 -13.13,-22.8 0,-4.78 1.36,-10.24 4.02,-16.28 2.92,-5.94 6.1,-8.87 9.67,-8.87 1.91,0 3.65,1.17 5.02,3.41 6.11,9.16 11.86,16.37 17.42,21.73 23.72,22.41 54.55,33.62 92.52,33.72 14.96,-0.1 28.01,-7.7 39.22,-22.9 5.76,-7.41 10.78,-15.4 15.15,-23.98 4.39,-8.57 8.21,-17.54 11.59,-26.8 3.38,-9.35 6.48,-18.91 9.12,-28.56 2.65,-9.75 5.1,-19.59 7.21,-29.73 1.73,-9.35 3.19,-16.76 4.1,-22.22 1,-5.56 1.55,-9.26 1.73,-11.2 0.92,-7.99 1.55,-15.7 1.91,-23.1 0.38,-7.4 1.1,-14.72 2.11,-22.03 -4.93,2.54 -15.23,8.77 -30.75,18.91 -9.03,5.85 -17.33,11.21 -24.82,15.99 -7.48,4.77 -14.15,8.97 -20.07,12.57 -11.77,7.4 -25,14.42 -39.79,21.05 -14.96,6.72 -27.27,10.03 -36.94,10.03 -16.69,0 -29.65,-7.11 -38.69,-21.44 -9.12,-14.23 -13.7,-30.7 -13.7,-49.42 0,-13.25 1.37,-28.16 4.03,-44.54 1.45,-8.19 2.92,-15.79 4.37,-22.9 1.55,-7.22 3.19,-13.94 5.02,-20.18 1.73,-6.24 3.83,-13.84 6.21,-22.52 2.46,-8.77 5.38,-18.91 8.76,-30.31 1.73,-6.25 3.73,-11.8 5.83,-16.38 2.19,-4.67 4.57,-8.57 7.39,-11.79 2.73,-3.12 6.02,-5.45 9.76,-6.92 3.74,-1.56 8.3,-2.35 13.59,-2.35 5.21,0 9.31,3.13 12.32,9.46 2.82,5.85 4.29,11.99 4.29,18.23 0,3.8 -0.83,7.31 -2.46,10.33 -0.83,1.46 -2.1,3.71 -3.74,6.53 -1.55,2.92 -3.65,6.44 -6.12,10.62 -2.46,4.19 -4.46,7.61 -5.83,10.43 -1.46,2.73 -2.38,4.87 -2.74,6.43 -1.37,4.49 -2.64,8.48 -3.73,11.99 -1.1,3.41 -2.01,6.24 -2.92,8.48 -0.73,2.34 -1.55,5.07 -2.37,8.19 -0.91,3.12 -2.01,6.82 -3.28,11.01 -2.28,8.19 -3.92,15.6 -4.93,22.41 -0.91,6.73 -1.45,13.94 -1.45,21.54 0,7.61 1.45,16.87 4.29,27.69 3.01,11.2 7.11,16.86 12.32,16.86 15.69,0 34.67,-4.87 56.93,-14.52 22.26,-9.94 42.42,-22.8 60.4,-38.59 17.96,-15.79 28.83,-31.68 32.57,-47.66 0.73,-2.34 1.27,-5.75 1.64,-10.33 0.37,-4.58 0.64,-9.65 0.91,-15.2 0.28,-5.66 0.55,-11.51 0.64,-17.64 0.18,-6.04 0.46,-11.89 0.73,-17.55 0.28,-5.56 0.55,-10.62 0.91,-15.1 0.37,-4.49 0.91,-7.89 1.65,-10.14 4.56,-17.55 12.04,-26.31 22.44,-26.31 9.77,0 15.88,2.72 18.16,7.99 2.46,5.75 3.74,14.81 3.74,27.19zm680.44 29.15c0,2.43 -0.55,4.77 -1.56,6.92 -1.09,2.24 -2.46,4.29 -4.18,6.34 -1.65,1.95 -3.56,3.9 -5.76,5.84 -2.09,1.86 -4.19,3.81 -6.11,5.66 -5.56,5.17 -11.86,10.04 -18.97,14.42 -7.12,4.49 -14.6,8.39 -22.36,11.6 -7.75,3.22 -15.5,5.85 -23.35,7.71 -7.85,1.94 -15.05,2.82 -21.62,2.82 -4.47,0 -9.58,-0.4 -15.24,-1.37 -5.74,-0.97 -11.49,-2.34 -17.24,-3.99 -5.84,-1.76 -11.5,-3.71 -16.97,-5.85 -5.56,-2.24 -10.31,-4.58 -14.24,-7.02 -0.54,1.17 -1.81,4 -3.84,8.67 -2.09,4.68 -4.64,10.62 -7.66,17.84 -3,7.3 -6.48,15.59 -10.39,24.85 -3.92,9.35 -8.03,19.2 -12.32,29.43 -8.67,20.76 -17.15,39.57 -25.28,56.53 -8.03,16.96 -15.33,32.06 -21.72,45.42 -3.28,6.63 -6.38,12.09 -9.39,16.28 -3.02,4.18 -5.84,7.51 -8.4,10.03 -2.65,2.44 -4.93,4.09 -7.11,4.98 -2.11,0.87 -4.03,1.26 -5.57,1.26 -3.93,0 -7.66,-1.26 -11.22,-3.7 -3.56,-2.54 -7.3,-6.53 -11.22,-11.99 0.28,-2.34 0.54,-4.39 0.73,-6.13 0.18,-1.86 0.28,-3.51 0.28,-4.98 0,-8.38 -2.46,-20.46 -7.3,-36.16 -4.92,-15.69 -12.5,-34.79 -22.63,-57.21 -5.02,-11.11 -9.85,-22.52 -14.59,-34.41 -4.66,-11.98 -8.86,-23.58 -12.41,-34.9 -3.57,-11.3 -6.48,-21.93 -8.67,-31.87 -2.19,-9.84 -3.38,-18.42 -3.38,-25.63 0,-5.16 0.63,-10.52 1.73,-16.18 1.19,-5.56 2.92,-10.72 5.3,-15.4 2.28,-4.68 5.29,-8.48 8.94,-11.6 3.64,-3.02 7.94,-4.58 12.95,-4.58 7.49,0 13.5,2.44 18.17,7.31 4.64,4.87 6.93,11.41 6.93,19.59 0,2.63 -0.28,5.56 -0.91,8.57 -0.63,3.03 -1.28,6.04 -1.91,9.16 -0.55,3.03 -1.19,6.04 -1.82,9.07 -0.65,3.12 -0.92,6.04 -0.92,8.87 0,2.82 0.27,7.21 0.92,12.96 0.63,5.85 1.64,12.38 2.92,19.79 1.37,7.3 3.19,15 5.47,23.2 2.37,8.19 5.1,16.08 8.31,23.78 3.01,7.02 6.29,15.2 9.76,24.47 3.47,9.35 6.84,18.22 10.13,26.61 3.28,8.38 6.29,15.5 8.85,21.25 2.56,5.85 4.47,8.77 5.75,8.77 0.91,0 2.46,-1.86 4.65,-5.66 2.28,-3.71 4.75,-8.67 7.66,-14.91 2.82,-6.34 6.02,-13.55 9.49,-21.64 3.47,-8.08 6.84,-16.47 10.3,-25.05 3.38,-8.67 6.67,-17.35 9.86,-25.93 3.2,-8.48 6.02,-16.37 8.58,-23.68 2.1,-5.65 4.29,-11.5 6.38,-17.35 2.1,-5.94 4.19,-11.6 6.29,-17.05 2.01,-5.36 4.02,-10.53 6.02,-15.21 1.92,-4.77 3.93,-8.96 5.83,-12.57 2.74,-5.16 5.93,-9.06 9.69,-11.6 3.73,-2.53 8.3,-3.89 13.59,-3.89 2.46,0 4.83,0.58 7.11,1.75 2.19,1.17 4.38,2.44 6.48,4 2.2,1.55 4.2,3.21 6.02,4.97 1.91,1.86 3.84,3.32 5.74,4.49 1.47,0.87 3.84,2.34 7.13,4.09 3.27,1.85 6.93,3.61 10.95,5.45 4.02,1.76 8.31,3.41 12.68,4.68 4.47,1.36 8.66,2.04 12.59,2.04 7.66,0 14.59,-0.68 20.7,-1.85 6.12,-1.27 11.87,-2.82 17.25,-4.58 5.38,-1.85 10.4,-3.9 15.15,-6.14 4.65,-2.34 9.48,-4.48 14.23,-6.62 7.12,-3.03 12.68,-5.36 16.61,-7.12 3.92,-1.66 7.75,-2.53 11.49,-2.53 4.47,0 6.67,1.55 6.67,4.87zm50.54 -192.2c0,12.38 -3.02,22.9 -9.12,31.68 -5.84,8.77 -14.51,13.15 -25.91,13.15 -7.12,0 -15.06,-1.17 -23.81,-3.41 -8.48,-2.34 -12.78,-6.04 -12.78,-11.2 0,-9.26 2.65,-18.23 8.12,-26.61 5.47,-8.48 11.95,-15.4 19.62,-20.76 6.11,-3.8 10.12,-5.66 12.04,-5.66 10.22,0 17.97,1.46 23.54,4.39 5.56,2.92 8.31,9.07 8.31,18.42zm175.08 232.16c0.18,4 -1.46,9.35 -4.92,16.28 -3.57,6.82 -8.21,14.62 -14.24,23.2 -5.93,8.67 -12.86,18.03 -20.8,27.87 -7.94,9.94 -16.25,19.79 -25.01,29.73 -10.03,11.41 -20.52,22.42 -31.66,32.95 -11.13,10.62 -23.08,20.86 -35.67,30.7 -25,19.78 -47.26,29.73 -66.88,29.73 -21.53,0 -38.32,-7.7 -50.27,-23.1 -11.87,-15.69 -19.99,-34.51 -24.27,-56.63 -4.29,-21.84 -6.48,-44.44 -6.48,-67.64 0,-9.65 1.09,-24.85 3.28,-45.42 1,-10.24 2.1,-19.1 3.19,-26.51 1,-7.41 2.19,-13.46 3.47,-18.04 2.46,-8.97 7.75,-16.76 15.78,-23.39 8.21,-7.02 16.69,-10.52 25.64,-10.52 4.83,0 7.2,4.77 7.2,14.51 0,6.44 -0.55,13.84 -1.74,22.03 -1.18,8.19 -2.36,16.28 -3.56,24.27 -2.36,15.01 -4.1,28.46 -5.1,40.35 -1.09,11.89 -1.64,22.22 -1.64,31 0,19.2 2.56,38.69 7.48,58.28 5.02,19.99 14.05,29.93 27,29.93 13.23,0 28.56,-5.07 45.98,-15.41 8.76,-5.36 17.43,-11.2 26.19,-17.64 8.77,-6.53 17.52,-13.74 26.19,-21.73 8.94,-7.99 17.51,-16.08 25.74,-24.17 8.11,-8.08 16.14,-16.37 23.99,-24.94 7.85,-8.58 14.87,-16.57 21.16,-23.98 6.21,-7.41 11.69,-14.33 16.24,-20.57 0.18,-0.4 0.55,-0.97 1,-1.85 0.46,-0.88 0.92,-1.76 1.46,-2.54 0.54,-0.87 1,-1.66 1.55,-2.14 0.54,-0.59 1.09,-0.78 1.64,-0.59 2.46,0 4.38,2.05 5.56,6.24 1.65,4 2.46,7.22 2.46,9.75zm360.57 -8.57c0,2.24 -0.28,4.97 -0.82,8.08 -0.55,3.22 -1.28,6.34 -2.28,9.56 -0.91,3.31 -2.01,6.33 -3.2,9.35 -1.19,2.92 -2.36,5.26 -3.55,6.92 -1.09,1.56 -2.64,3.61 -4.75,6.14 -2.01,2.63 -4.29,5.45 -6.75,8.48 -2.56,3.02 -5.29,6.24 -8.21,9.55 -2.92,3.32 -6.02,6.53 -9.21,9.56 -11.05,10.92 -21.9,21.34 -32.49,31.58 -10.59,10.14 -21.53,19.2 -32.75,27 -11.22,7.8 -22.9,14.04 -35.13,18.72 -12.23,4.68 -25.46,6.82 -39.69,6.62 -6.57,0 -13.24,-1.26 -19.89,-3.8 -6.67,-2.53 -12.96,-6.24 -18.89,-11.01 -5.84,-4.77 -10.95,-10.43 -15.23,-17.15 -4.29,-6.63 -7.3,-13.94 -9.03,-21.93 -5.2,5.65 -10.68,11.6 -16.34,17.83 -5.75,6.13 -11.68,12.37 -17.8,18.71 -6.11,6.24 -12.49,12.38 -19.06,18.23 -6.67,5.94 -13.42,11.41 -20.35,16.27 -3.93,2.73 -8.57,5.56 -14.05,8.58 -5.38,3.02 -11.13,5.85 -17.06,8.48 -6.02,2.53 -11.95,4.68 -17.97,6.24 -5.93,1.66 -11.31,2.44 -16.15,2.44 -7.3,0 -13.59,-2.44 -18.79,-7.31 -5.3,-4.87 -9.68,-10.82 -13.14,-17.83 -3.47,-7.02 -6.02,-14.52 -7.75,-22.52 -1.64,-7.99 -2.55,-15.2 -2.55,-21.44 0,-12.57 1.73,-25.44 5.1,-38.59 3.38,-13.06 7.75,-25.93 13.24,-38.4 5.46,-12.38 11.49,-24.27 18.15,-35.48 6.66,-11.3 13.24,-21.25 19.71,-30.01 6.74,-9.16 14.78,-18.23 23.99,-27.29 9.31,-8.97 18.89,-17.06 28.93,-24.27 9.94,-7.12 19.7,-12.87 29.38,-17.25 9.58,-4.38 18.16,-6.53 25.63,-6.53 3.75,0 7.76,0 11.87,0 4.19,0 8.4,0.2 12.5,0.69 4.1,0.49 8.12,1.26 11.96,2.24 3.92,1.08 7.57,2.63 10.76,4.78 1.55,1.07 3.47,3.31 5.56,6.53 2.19,3.21 4.19,6.82 6.02,10.82 1.91,3.99 3.46,7.99 4.64,11.98 1.29,4 1.92,7.21 1.92,9.46 0,6.34 -1.37,14.72 -4.01,25.15 -2.83,13.16 -5.47,25.05 -7.85,35.87 -2.46,10.72 -3.65,21.83 -3.65,33.23 0,6.43 1.01,13.06 2.92,19.89 2.01,6.72 4.74,12.86 8.49,18.41 3.65,5.46 8.02,10.04 13.32,13.55 5.29,3.51 11.21,5.27 17.79,5.27 10.85,0 21.98,-2.44 33.4,-7.31 11.4,-4.87 22.9,-11.51 34.57,-19.98 11.67,-8.48 23.36,-18.23 34.94,-29.44 11.59,-11.11 22.99,-22.9 34.22,-35.48 0.83,-1.17 2.46,-3.12 4.65,-5.85 2.19,-2.82 4.55,-5.56 6.94,-8.28 2.46,-2.83 4.75,-5.27 7.11,-7.51 2.28,-2.14 4.02,-3.22 5.02,-3.22 3.83,0 5.66,3.9 5.66,11.7zm-237.85 -23.68c0,-3.22 -0.17,-7.21 -0.55,-11.99 -0.36,-4.77 -1.55,-8.67 -3.46,-11.69 -2.01,-3.12 -4.38,-4.58 -7.21,-4.49 -2.92,0.1 -5.75,0.19 -8.58,0.19 -6.29,0 -12.22,0.97 -18.06,3.13 -5.74,2.04 -11.4,4.97 -16.97,8.67 -5.56,3.7 -10.85,7.99 -15.88,12.86 -5.1,4.87 -10.03,9.94 -14.86,15.3 -4.11,4.39 -8.4,9.75 -12.96,16.28 -4.55,6.43 -9.03,13.55 -13.32,21.25 -4.38,7.7 -8.66,15.78 -12.78,24.26 -4.1,8.48 -7.66,16.87 -10.67,25.15 -3.02,8.29 -5.38,16.28 -7.21,23.98 -1.82,7.7 -2.65,14.72 -2.65,20.95 0,1.95 0.18,4.49 0.64,7.61 0.46,3.12 1.18,6.13 2.19,9.16 0.91,2.92 2.28,5.45 3.93,7.51 1.73,2.14 3.83,3.22 6.29,3.22 8.21,0 18.42,-2.83 30.75,-8.29 16.79,-7.7 31.93,-18.03 45.61,-31.29 13.59,-13.25 25.28,-28.55 34.85,-45.8 13.87,-26.9 20.9,-55.55 20.9,-85.96z"/>
   <path class="fil7" d="M12488.01 3852.16c0,1.55 -0.99,4.48 -2.92,8.87 -2.01,4.39 -4.29,8.97 -7.12,13.84 -2.73,4.87 -5.47,9.16 -8.2,12.86 -2.83,3.71 -5.02,5.56 -6.58,5.56 -4.1,0 -7.48,-0.49 -10.22,-1.45 -2.64,-0.88 -5.1,-2.44 -7.29,-4.68 -2.29,-2.14 -4.38,-4.98 -6.58,-8.38 -2.09,-3.41 -4.64,-7.61 -7.48,-12.57 -1.91,-3.22 -3.46,-6.04 -4.55,-8.29 -1.1,-2.34 -1.56,-4.39 -1.56,-6.34 0,-3.02 0.83,-6.24 2.66,-9.55 1.73,-3.32 4.1,-6.34 6.93,-9.16 2.83,-2.73 5.93,-4.98 9.12,-6.63 3.2,-1.76 6.3,-2.63 9.31,-2.63 3.92,0 7.93,0.68 12.04,2.04 4.1,1.27 7.85,3.22 11.13,5.66 3.29,2.53 6.02,5.56 8.12,9.06 2.2,3.51 3.19,7.41 3.19,11.8zm-47.26 147.95c0,1.46 -0.55,3.81 -1.65,7.02 -1.09,3.12 -2.28,6.34 -3.55,9.65 -1.37,3.32 -2.65,6.63 -3.93,9.75 -1.28,3.12 -2.01,5.46 -2.37,7.02 -1.46,5.45 -2.46,13.06 -3.1,22.81 -0.64,9.74 -0.91,21.44 -0.91,35.08 0,4.59 0.09,10.24 0.27,17.06 0.19,6.72 0.28,13.74 0.37,21.05 0.09,7.4 0.28,14.42 0.37,21.34 0.17,6.82 0.28,12.57 0.28,17.06 0,17.15 -0.1,32.74 -0.37,46.69 -0.28,14.04 -0.91,27.1 -1.91,39.27 -0.92,12.19 -2.28,23.79 -4.11,34.9 -1.73,11.01 -4.1,22.12 -6.93,33.33 -3.02,12.09 -6.85,23 -11.5,32.85 -4.65,9.94 -10.22,18.42 -16.7,25.63 -6.57,7.11 -14.04,12.67 -22.63,16.57 -8.57,3.9 -18.25,5.85 -29.1,5.85 -6.2,0 -12.5,-0.78 -18.7,-2.34 -6.3,-1.46 -12.23,-3.51 -17.89,-5.95 -5.75,-2.53 -11.04,-5.36 -15.97,-8.48 -4.83,-3.12 -9.11,-6.33 -12.77,-9.55 -3.65,-3.22 -6.57,-6.34 -8.58,-9.26 -2.1,-2.92 -3.1,-5.45 -3.1,-7.6 0,-5.46 1.55,-8.29 4.56,-8.29 1.09,0 3.74,0.68 7.85,1.85 4.19,1.27 9.22,2.63 15.15,4 5.84,1.46 12.41,2.82 19.52,3.99 7.12,1.27 14.24,1.86 21.36,1.86 24.45,0 40.23,-14.04 47.35,-42.21 7.11,-27.97 10.68,-61.4 10.68,-100.29 0,-5.07 -0.1,-11.01 -0.19,-17.83 -0.08,-6.72 -0.17,-13.74 -0.36,-21.05 -0.18,-7.4 -0.36,-14.82 -0.55,-22.41 -0.18,-7.7 -0.36,-14.91 -0.54,-21.93 -0.18,-6.93 -0.28,-13.25 -0.37,-18.91 -0.09,-5.75 -0.18,-10.52 -0.18,-14.33 0,-43.96 4.2,-76.21 12.6,-96.78 6.93,-16.96 16.87,-25.44 29.64,-25.44 5.2,0 9.49,1.66 12.87,4.87 3.38,3.22 5.1,7.6 5.1,13.15zm476.8 68.82c0,2.24 -0.28,4.97 -0.82,8.08 -0.55,3.22 -1.28,6.34 -2.28,9.56 -0.91,3.31 -2.01,6.33 -3.19,9.35 -1.2,2.92 -2.37,5.26 -3.56,6.92 -1.09,1.56 -2.64,3.61 -4.75,6.14 -2.01,2.63 -4.29,5.45 -6.75,8.48 -2.56,3.02 -5.29,6.24 -8.21,9.55 -2.92,3.32 -6.02,6.53 -9.21,9.56 -11.04,10.92 -21.9,21.34 -32.49,31.58 -10.59,10.14 -21.53,19.2 -32.75,27 -11.22,7.8 -22.9,14.04 -35.13,18.72 -12.23,4.68 -25.45,6.82 -39.69,6.62 -6.57,0 -13.24,-1.26 -19.89,-3.8 -6.67,-2.53 -12.96,-6.24 -18.89,-11.01 -5.84,-4.77 -10.95,-10.43 -15.23,-17.15 -4.29,-6.63 -7.3,-13.94 -9.03,-21.93 -5.2,5.65 -10.68,11.6 -16.34,17.83 -5.75,6.13 -11.68,12.37 -17.79,18.71 -6.12,6.24 -12.5,12.38 -19.07,18.23 -6.66,5.94 -13.41,11.41 -20.35,16.27 -3.93,2.73 -8.57,5.56 -14.05,8.58 -5.38,3.02 -11.13,5.85 -17.06,8.48 -6.02,2.53 -11.95,4.68 -17.97,6.24 -5.93,1.66 -11.31,2.44 -16.15,2.44 -7.3,0 -13.59,-2.44 -18.79,-7.31 -5.3,-4.87 -9.67,-10.82 -13.14,-17.83 -3.47,-7.02 -6.02,-14.52 -7.75,-22.52 -1.64,-7.99 -2.55,-15.2 -2.55,-21.44 0,-12.57 1.73,-25.44 5.1,-38.59 3.38,-13.06 7.75,-25.93 13.24,-38.4 5.46,-12.38 11.49,-24.27 18.15,-35.48 6.67,-11.3 13.24,-21.25 19.71,-30.01 6.75,-9.16 14.78,-18.23 24,-27.29 9.31,-8.97 18.88,-17.06 28.92,-24.27 9.94,-7.12 19.71,-12.87 29.38,-17.25 9.58,-4.38 18.16,-6.53 25.64,-6.53 3.74,0 7.75,0 11.86,0 4.19,0 8.4,0.2 12.5,0.69 4.1,0.49 8.12,1.26 11.96,2.24 3.92,1.08 7.57,2.63 10.76,4.78 1.55,1.07 3.47,3.31 5.56,6.53 2.19,3.21 4.2,6.82 6.02,10.82 1.91,3.99 3.46,7.99 4.65,11.98 1.28,4 1.91,7.21 1.91,9.46 0,6.34 -1.37,14.72 -4.01,25.15 -2.83,13.16 -5.47,25.05 -7.85,35.87 -2.46,10.72 -3.65,21.83 -3.65,33.23 0,6.43 1.01,13.06 2.92,19.89 2.01,6.72 4.75,12.86 8.49,18.41 3.65,5.46 8.02,10.04 13.32,13.55 5.3,3.51 11.22,5.27 17.79,5.27 10.85,0 21.99,-2.44 33.4,-7.31 11.4,-4.87 22.9,-11.51 34.57,-19.98 11.68,-8.48 23.36,-18.23 34.94,-29.44 11.59,-11.11 22.99,-22.9 34.22,-35.48 0.83,-1.17 2.46,-3.12 4.65,-5.85 2.19,-2.82 4.56,-5.56 6.94,-8.28 2.46,-2.83 4.75,-5.27 7.11,-7.51 2.28,-2.14 4.02,-3.22 5.02,-3.22 3.83,0 5.66,3.9 5.66,11.7zm-237.85 -23.68c0,-3.22 -0.17,-7.21 -0.54,-11.99 -0.37,-4.77 -1.55,-8.67 -3.47,-11.69 -2.01,-3.12 -4.38,-4.58 -7.21,-4.49 -2.92,0.1 -5.75,0.19 -8.58,0.19 -6.29,0 -12.22,0.97 -18.06,3.13 -5.75,2.04 -11.41,4.97 -16.98,8.67 -5.56,3.7 -10.85,7.99 -15.88,12.86 -5.1,4.87 -10.03,9.94 -14.86,15.3 -4.11,4.39 -8.4,9.75 -12.96,16.28 -4.55,6.43 -9.03,13.55 -13.32,21.25 -4.38,7.7 -8.66,15.78 -12.77,24.26 -4.11,8.48 -7.67,16.87 -10.68,25.15 -3.02,8.29 -5.38,16.28 -7.21,23.98 -1.82,7.7 -2.65,14.72 -2.65,20.95 0,1.95 0.19,4.49 0.64,7.61 0.46,3.12 1.18,6.13 2.19,9.16 0.91,2.92 2.28,5.45 3.93,7.51 1.73,2.14 3.83,3.22 6.29,3.22 8.21,0 18.42,-2.83 30.75,-8.29 16.79,-7.7 31.93,-18.03 45.61,-31.29 13.59,-13.25 25.28,-28.55 34.86,-45.8 13.87,-26.9 20.89,-55.55 20.89,-85.96zm308.65 157.89c0,3.81 -0.82,10.04 -2.36,18.81 -0.91,4.39 -6.48,11.11 -16.88,20.28 -10.49,8.96 -17.8,13.45 -21.9,13.45 -4.83,0 -8.66,-0.68 -11.5,-2.05 -2.82,-1.26 -5.1,-3.41 -6.65,-6.24 -1.65,-2.82 -2.66,-6.43 -3.11,-10.82 -0.46,-4.39 -0.64,-9.75 -0.64,-16.09 0,-11.01 0.38,-18.71 1.09,-23.1 0.63,-8.57 13.32,-12.87 37.96,-12.87l5.84 0c5.21,0 10.4,3.32 15.78,9.75 1.55,1.76 2.36,4.68 2.36,8.87z"/>
  </g>
 </g>
</svg>
