<?xml version="1.0" encoding="utf-8"?>
<!-- Generator: Adobe Illustrator 21.0.0, SVG Export Plug-In . SVG Version: 6.00 Build 0)  -->
<svg version="1.1" id="Capa_1" xmlns:xodm="http://www.corel.com/coreldraw/odm/2003"
	 xmlns="http://www.w3.org/2000/svg" xmlns:xlink="http://www.w3.org/1999/xlink" x="0px" y="0px" viewBox="0 0 16 16"
	 style="enable-background:new 0 0 16 16;" xml:space="preserve">
<style type="text/css">
	.st0{fill:url(#SVGID_1_);}
	.st1{fill:#F4EB28;}
	.st2{fill:#FFFFFF;}
	.st3{fill:url(#SVGID_2_);}
	.st4{fill:none;}
	.st5{fill:url(#SVGID_3_);}
	.st6{fill:url(#SVGID_4_);}
	.st7{fill:url(#SVGID_5_);}
	.st8{fill:url(#SVGID_6_);}
	.st9{fill:url(#SVGID_7_);}
	.st10{fill:url(#SVGID_8_);}
	.st11{fill:url(#SVGID_9_);}
	.st12{fill:url(#SVGID_10_);}
	.st13{fill:url(#SVGID_11_);}
	.st14{fill:url(#SVGID_12_);}
	.st15{fill:url(#SVGID_13_);}
	.st16{fill:url(#SVGID_14_);}
</style>
<g>
	<g>
		
			<linearGradient id="SVGID_1_" gradientUnits="userSpaceOnUse" x1="751.0541" y1="-8548.7598" x2="7852.3442" y2="-8743.4297" gradientTransform="matrix(3.081906e-02 0 0 -3.081906e-02 -455.9411 -368.6607)">
			<stop  offset="0" style="stop-color:#F58634"/>
			<stop  offset="0.149" style="stop-color:#FAC21A"/>
			<stop  offset="0.6" style="stop-color:#FFFF00"/>
			<stop  offset="1" style="stop-color:#00FFFF"/>
		</linearGradient>
		<path class="st0" d="M-421.2-174.7c0,0,12.5,26.7,46.5,37.2s54,31,53.7,52s-10,37.3-10,37.3c-0.1,0.1-0.2,0.3-0.3,0.4
			c-27.9-4.8-56.9-19.9-80.5-54.9c21,35.5,48.2,52.3,75.1,59.1c0.5,0.1,1,0.2,1.5,0.3l0,0c52.2,12.5,102.7-12.6,102.7-12.6
			c-36.9,22.2-150.5,37.1-184.1,2c-7-7.3-12.3-16.8-14.7-28.9C-436.6-109.2-431.5-143.2-421.2-174.7L-421.2-174.7z"/>
		<path class="st1" d="M-293.9-38.3c1-0.4,0.1,0.2,0.5-0.8l-1.5,0.7C-295-38.4-295.1-37.9-293.9-38.3L-293.9-38.3z M-272.1-74.7
			c-4.8,6-15.6,21.1-19.9,26.9c0,0,0.4,0.1,0.7,0.3c0.3-0.5,0.3-0.6,1.4-1c3.2,1.8-1.8,3.1-2.7,3.5c1.6,0.5,1.7,0,2.3,2.5
			c1,3.7,0.6,1.8,1.6,3.4l3.3-0.5c0.5-2.1,1.2-1.8,1.7-3.7c-0.1,0-0.2-0.1-0.2-0.1l-1.2-2c1,0.3,0.8,0.6,1.7,0.8
			c-0.3-5.9,3.6-4.4,4.5-3.5c1.7,1.8,0.6,0.6,2.6,1.6c-0.2,2.7-1.6,1.3-2.9,2.9c-0.1,1.4,0.5,1.3,0.6,2.9c0.9-0.1,1.8-0.2,2.7-0.4
			c-0.4,0.1-0.8,0.2-1.3,0.4c-10.1,2.5-30.4,3.8-30.4,3.8l-1.2-0.3c-1.1-6.8-5.2-9-1.9-18.4l-1.3-1.5l-2.5,0.4
			c0.2-0.3,0.2-0.2,0.5-0.6c1.7-1.7,1.3-0.5,1.3-4.1l4.1-1.4c2.6,2.1,0.8,1.5,3.6,1.8c0.3,0,1.1,0.2,1.4,0.4l-2.8,1.1
			c0.2,0.5,1.5,2.3,0.2,3.8l-0.9,0.6c0.4,2.2,0.9,2.1,2.1,3.9c1,1.6,1,3,1.9,4.4c1.4,0.1,3.1-0.3,4.5-0.6c3.7-0.8,2.4-0.7,4-1.6
			l1.8-0.8C-287.7-55.9-278.1-68.2-272.1-74.7L-272.1-74.7z M-295.4-44.7l-0.8,1.4l2.6-1.2L-295.4-44.7L-295.4-44.7z M-301.6-41
			c0.7-0.3,2.9-1.2,3.3-1.5c0.5-0.4,1.1-1.6,1.5-2l-5,2L-301.6-41L-301.6-41z"/>
		<path class="st2" d="M-369.9-62.6l2.9,1.7l2.6-4.4l-2.9-1.7L-369.9-62.6z M-366-60.2l3.9,2.3l2.6-4.4l-3.9-2.3L-366-60.2z
			 M-359-63.1l0.5-0.9c1-1.6,0.4-3.8-1.2-4.7l-0.9-0.6l-2.3,3.8L-359-63.1L-359-63.1z M-361.6-69.9l-0.4-0.2c-1.4-0.8-3.2-0.4-4,1
			l-0.8,1.3l2.9,1.7L-361.6-69.9L-361.6-69.9z"/>
		<polygon class="st2" points="-376.7,-66.3 -356.3,-76.5 -356,-72.9 -356.5,-72.8 -356.7,-75.7 -376.3,-66 		"/>
		<path class="st2" d="M-388.8-76l1.1,1c0.3,0.3,0.6,0.5,0.9,0.8l2.8-2.9l-2-1.9C-385.9-78.9-388.8-76-388.8-76z M-383.2-71.1
			l2.6-2.7l-2.6-2.6l-2.8,2.9C-385.1-72.7-384.2-71.9-383.2-71.1z M-380.1-74.4l0.6-0.6c1.1-1.1,1-2.9-0.1-4l-0.6-0.6l-2.5,2.6
			L-380.1-74.4z M-380.9-80.2l-0.2-0.2c-0.9-0.9-2.5-0.9-3.4,0.1l-0.9,0.9l2,1.9L-380.9-80.2L-380.9-80.2z"/>
		<polygon class="st2" points="-393.3,-80.2 -375.5,-84.4 -375.9,-81.5 -376.3,-81.6 -376,-83.9 -393,-79.8 		"/>
		<path class="st2" d="M-399.8-87.2l2.3-1.9l-1.3-1.6l-2.3,1.9C-400.7-88.2-400.3-87.7-399.8-87.2z M-397.5-84.5l2.2-1.7l-1.8-2.2
			l-2.3,1.8C-398.7-85.9-398.1-85.2-397.5-84.5z M-394.9-86.7l0.5-0.4c0.9-0.7,1.1-2.1,0.3-3l-0.4-0.5l-2.1,1.7L-394.9-86.7
			L-394.9-86.7z M-394.9-91.1l-0.2-0.2c-0.6-0.8-1.8-0.9-2.6-0.3l-0.7,0.6l1.3,1.6L-394.9-91.1z"/>
		<polygon class="st2" points="-404.1,-92.3 -390.5,-93.8 -391.1,-91.7 -391.4,-91.8 -390.9,-93.5 -403.9,-92 		"/>
		
			<linearGradient id="SVGID_2_" gradientUnits="userSpaceOnUse" x1="2304.3682" y1="-7978.8804" x2="5132.4575" y2="-8011.0903" gradientTransform="matrix(3.081906e-02 0 0 -3.081906e-02 -455.9411 -368.6607)">
			<stop  offset="0" style="stop-color:#F58634"/>
			<stop  offset="0.149" style="stop-color:#FAC21A"/>
			<stop  offset="0.6" style="stop-color:#FFFF00"/>
			<stop  offset="1" style="stop-color:#FFFFFF"/>
		</linearGradient>
		<path class="st3" d="M-328.9-190c0,0-8.8,26.9,9.2,56.1s19,56.5,4.6,71.1c-3.3,3.3-6.7,6.2-10.1,8.6c3.8-10,6.1-21.6,6.2-31.2
			c0.2-14.3-6.9-27-16.9-36.8c-11.9-11.7-27.8-19.5-43.6-24.4c-1.9-0.6-3.8-1.3-5.6-2C-370.4-164.1-350.3-178.5-328.9-190
			L-328.9-190z"/>
	</g>
	<rect x="-443" y="-220" class="st4" width="220" height="220"/>
</g>
<g>
	<g>
		
			<linearGradient id="SVGID_3_" gradientUnits="userSpaceOnUse" x1="9003.918" y1="-7397.3657" x2="13910.2646" y2="-7531.8647" gradientTransform="matrix(3.081906e-02 0 0 -3.081906e-02 -455.9411 -368.6607)">
			<stop  offset="0" style="stop-color:#F58634"/>
			<stop  offset="0.149" style="stop-color:#FAC21A"/>
			<stop  offset="0.6" style="stop-color:#FFFF00"/>
			<stop  offset="1" style="stop-color:#00FFFF"/>
		</linearGradient>
		<path class="st5" d="M-170.4-188.7c0,0,8.6,18.4,32.1,25.7s37.3,21.4,37.1,35.9s-6.9,25.8-6.9,25.8c-0.1,0.1-0.1,0.2-0.2,0.3
			c-19.3-3.3-39.3-13.7-55.6-37.9c14.5,24.5,33.3,36.1,51.9,40.8c0.3,0.1,0.7,0.1,1,0.2l0,0c36.1,8.6,71-8.7,71-8.7
			c-25.5,15.3-104,25.6-127.2,1.4c-4.8-5-8.5-11.6-10.2-20C-181.1-143.4-177.6-166.9-170.4-188.7L-170.4-188.7z"/>
		<path class="st1" d="M-82.5-94.5c0.7-0.3,0.1,0.1,0.3-0.6l-1,0.5C-83.2-94.5-83.3-94.2-82.5-94.5L-82.5-94.5z M-67.4-119.6
			c-3.3,4.1-10.8,14.6-13.7,18.6c0,0,0.3,0.1,0.5,0.2c0.2-0.3,0.2-0.4,1-0.7c2.2,1.2-1.2,2.1-1.9,2.4c1.1,0.3,1.2,0,1.6,1.7
			c0.7,2.6,0.4,1.2,1.1,2.3l2.3-0.3c0.3-1.5,0.8-1.2,1.2-2.6c-0.1,0-0.1-0.1-0.1-0.1l-0.8-1.4c0.7,0.2,0.6,0.4,1.2,0.6
			c-0.2-4.1,2.5-3,3.1-2.4c1.2,1.2,0.4,0.4,1.8,1.1c-0.1,1.9-1.1,0.9-2,2c-0.1,1,0.3,0.9,0.4,2c0.6-0.1,1.2-0.1,1.9-0.3
			c-0.3,0.1-0.6,0.1-0.9,0.3c-7,1.7-21,2.6-21,2.6l-0.8-0.2c-0.8-4.7-3.6-6.2-1.3-12.7l-0.9-1l-1.7,0.3c0.1-0.2,0.1-0.1,0.3-0.4
			c1.2-1.2,0.9-0.3,0.9-2.8l2.8-1c1.8,1.5,0.6,1,2.5,1.2c0.2,0,0.8,0.1,1,0.3l-1.9,0.8c0.1,0.3,1,1.6,0.1,2.6l-0.6,0.4
			c0.3,1.5,0.6,1.5,1.5,2.7c0.7,1.1,0.7,2.1,1.3,3c1,0.1,2.1-0.2,3.1-0.4c2.6-0.6,1.7-0.5,2.8-1.1l1.2-0.6
			C-78.2-106.6-71.6-115.1-67.4-119.6L-67.4-119.6z M-83.5-98.9l-0.6,1l1.8-0.8L-83.5-98.9L-83.5-98.9z M-87.8-96.3
			c0.5-0.2,2-0.8,2.3-1c0.3-0.3,0.8-1.1,1-1.4l-3.5,1.4L-87.8-96.3L-87.8-96.3z"/>
		<path class="st2" d="M-135-111.3l2,1.2l1.8-3l-2-1.2L-135-111.3z M-132.3-109.6l2.7,1.6l1.8-3l-2.7-1.6L-132.3-109.6z
			 M-127.5-111.6l0.3-0.6c0.7-1.1,0.3-2.6-0.8-3.2l-0.6-0.4l-1.6,2.6L-127.5-111.6L-127.5-111.6z M-129.3-116.3l-0.3-0.1
			c-1-0.6-2.2-0.3-2.8,0.7l-0.6,0.9l2,1.2L-129.3-116.3L-129.3-116.3z"/>
		<polygon class="st2" points="-139.7,-113.8 -125.6,-120.9 -125.4,-118.4 -125.7,-118.3 -125.9,-120.3 -139.4,-113.6 		"/>
		<path class="st2" d="M-148.1-120.5l0.8,0.7c0.2,0.2,0.4,0.3,0.6,0.6l1.9-2l-1.4-1.3C-146-122.5-148.1-120.5-148.1-120.5z
			 M-144.2-117.1l1.8-1.9l-1.8-1.8l-1.9,2C-145.5-118.2-144.9-117.7-144.2-117.1z M-142-119.4l0.4-0.4c0.8-0.8,0.7-2-0.1-2.8
			l-0.4-0.4l-1.7,1.8L-142-119.4z M-142.6-123.4l-0.1-0.1c-0.6-0.6-1.7-0.6-2.3,0.1l-0.6,0.6l1.4,1.3L-142.6-123.4L-142.6-123.4z"/>
		<polygon class="st2" points="-151.2,-123.4 -138.9,-126.3 -139.1,-124.3 -139.4,-124.4 -139.2,-126 -151,-123.1 		"/>
		<path class="st2" d="M-155.7-128.2l1.6-1.3l-0.9-1.1l-1.6,1.3C-156.3-128.9-156-128.6-155.7-128.2z M-154.1-126.4l1.5-1.2
			l-1.2-1.5l-1.6,1.2C-154.9-127.3-154.5-126.9-154.1-126.4z M-152.3-127.9l0.3-0.3c0.6-0.5,0.8-1.5,0.2-2.1l-0.3-0.3l-1.5,1.2
			L-152.3-127.9L-152.3-127.9z M-152.3-130.9l-0.1-0.1c-0.4-0.6-1.2-0.6-1.8-0.2l-0.5,0.4l0.9,1.1L-152.3-130.9z"/>
		<polygon class="st2" points="-158.6,-131.8 -149.2,-132.8 -149.6,-131.4 -149.8,-131.4 -149.5,-132.6 -158.5,-131.6 		"/>
		
			<linearGradient id="SVGID_4_" gradientUnits="userSpaceOnUse" x1="10077.1172" y1="-7003.6309" x2="12031.0703" y2="-7025.8853" gradientTransform="matrix(3.081906e-02 0 0 -3.081906e-02 -455.9411 -368.6607)">
			<stop  offset="0" style="stop-color:#F58634"/>
			<stop  offset="0.149" style="stop-color:#FAC21A"/>
			<stop  offset="0.6" style="stop-color:#FFFF00"/>
			<stop  offset="1" style="stop-color:#FFFFFF"/>
		</linearGradient>
		<path class="st6" d="M-106.7-199.3c0,0-6.1,18.6,6.4,38.8s13.1,39,3.2,49.1c-2.3,2.3-4.6,4.3-7,5.9c2.6-6.9,4.2-14.9,4.3-21.6
			c0.1-9.9-4.8-18.7-11.7-25.4c-8.2-8.1-19.2-13.5-30.1-16.9c-1.3-0.4-2.6-0.9-3.9-1.4C-135.3-181.4-121.5-191.3-106.7-199.3
			L-106.7-199.3z"/>
	</g>
	<rect x="-185.5" y="-220" class="st4" width="152" height="152"/>
</g>
<g>
	<g>
		
			<linearGradient id="SVGID_5_" gradientUnits="userSpaceOnUse" x1="15419.9873" y1="-6753.9395" x2="19099.7461" y2="-6854.814" gradientTransform="matrix(3.081906e-02 0 0 -3.081906e-02 -455.9411 -368.6607)">
			<stop  offset="0" style="stop-color:#F58634"/>
			<stop  offset="0.149" style="stop-color:#FAC21A"/>
			<stop  offset="0.6" style="stop-color:#FFFF00"/>
			<stop  offset="1" style="stop-color:#00FFFF"/>
		</linearGradient>
		<path class="st7" d="M25.3-196.5c0,0,6.5,13.8,24.1,19.3s28,16.1,27.8,26.9C77.1-139.4,72-131,72-131c-0.1,0.1-0.1,0.2-0.2,0.2
			c-14.5-2.5-29.5-10.3-41.7-28.4c10.9,18.4,25,27.1,38.9,30.6c0.3,0.1,0.5,0.1,0.8,0.2l0,0c27,6.5,53.2-6.5,53.2-6.5
			c-19.1,11.5-78,19.2-95.4,1c-3.6-3.8-6.4-8.7-7.6-15C17.3-162.6,20-180.2,25.3-196.5L25.3-196.5z"/>
		<path class="st1" d="M91.3-125.8c0.5-0.2,0.1,0.1,0.3-0.4l-0.8,0.4C90.7-125.9,90.6-125.6,91.3-125.8L91.3-125.8z M102.6-144.7
			c-2.5,3.1-8.1,10.9-10.3,13.9c0,0,0.2,0.1,0.4,0.2c0.2-0.3,0.2-0.3,0.7-0.5c1.7,0.9-0.9,1.6-1.4,1.8c0.8,0.3,0.9,0,1.2,1.3
			c0.5,1.9,0.3,0.9,0.8,1.8l1.7-0.3c0.3-1.1,0.6-0.9,0.9-1.9c-0.1,0-0.1-0.1-0.1-0.1l-0.6-1c0.5,0.2,0.4,0.3,0.9,0.4
			c-0.2-3.1,1.9-2.3,2.3-1.8c0.9,0.9,0.3,0.3,1.3,0.8c-0.1,1.4-0.8,0.7-1.5,1.5c-0.1,0.7,0.3,0.7,0.3,1.5c0.5-0.1,0.9-0.1,1.4-0.2
			c-0.2,0.1-0.4,0.1-0.7,0.2c-5.2,1.3-15.8,2-15.8,2l-0.6-0.2c-0.6-3.5-2.7-4.7-1-9.5l-0.7-0.8l-1.3,0.2c0.1-0.2,0.1-0.1,0.3-0.3
			c0.9-0.9,0.7-0.3,0.7-2.1l2.1-0.7c1.3,1.1,0.4,0.8,1.9,0.9c0.2,0,0.6,0.1,0.7,0.2l-1.5,0.6c0.1,0.3,0.8,1.2,0.1,2l-0.5,0.3
			c0.2,1.1,0.5,1.1,1.1,2c0.5,0.8,0.5,1.6,1,2.3c0.7,0.1,1.6-0.2,2.3-0.3c1.9-0.4,1.2-0.4,2.1-0.8l0.9-0.4
			C94.5-135,99.4-141.3,102.6-144.7L102.6-144.7z M90.5-129.2l-0.4,0.7l1.3-0.6L90.5-129.2L90.5-129.2z M87.3-127.2
			c0.4-0.2,1.5-0.6,1.7-0.8c0.3-0.2,0.6-0.8,0.8-1l-2.6,1L87.3-127.2L87.3-127.2z"/>
		<path class="st2" d="M51.9-138.4l1.5,0.9l1.3-2.3l-1.5-0.9L51.9-138.4z M53.9-137.2l2,1.2l1.3-2.3l-2-1.2L53.9-137.2z M57.5-138.7
			l0.3-0.5c0.5-0.8,0.2-2-0.6-2.4l-0.5-0.3l-1.2,2L57.5-138.7L57.5-138.7z M56.2-142.2l-0.2-0.1c-0.7-0.4-1.7-0.2-2.1,0.5l-0.4,0.7
			l1.5,0.9L56.2-142.2L56.2-142.2z"/>
		<polygon class="st2" points="48.4,-140.4 58.9,-145.6 59.1,-143.8 58.8,-143.7 58.7,-145.2 48.6,-140.2 		"/>
		<path class="st2" d="M42.1-145.4l0.6,0.5c0.2,0.2,0.3,0.3,0.5,0.4l1.5-1.5l-1-1C43.6-146.9,42.1-145.4,42.1-145.4z M45-142.8
			l1.3-1.4l-1.3-1.3l-1.5,1.5C44-143.7,44.5-143.3,45-142.8z M46.6-144.6l0.3-0.3c0.6-0.6,0.5-1.5-0.1-2.1l-0.3-0.3l-1.3,1.3
			L46.6-144.6z M46.2-147.6l-0.1-0.1c-0.5-0.5-1.3-0.5-1.8,0.1l-0.5,0.5l1,1L46.2-147.6L46.2-147.6z"/>
		<polygon class="st2" points="39.8,-147.6 49,-149.7 48.8,-148.2 48.6,-148.3 48.7,-149.5 39.9,-147.4 		"/>
		<path class="st2" d="M36.4-151.2l1.2-1l-0.7-0.8l-1.2,1C35.9-151.7,36.1-151.4,36.4-151.2z M37.6-149.8l1.1-0.9l-0.9-1.1l-1.2,0.9
			C37-150.5,37.3-150.1,37.6-149.8z M38.9-150.9l0.3-0.2c0.5-0.4,0.6-1.1,0.2-1.6l-0.2-0.3l-1.1,0.9L38.9-150.9L38.9-150.9z
			 M38.9-153.2l-0.1-0.1c-0.3-0.4-0.9-0.5-1.3-0.2l-0.4,0.3l0.7,0.8L38.9-153.2z"/>
		<polygon class="st2" points="34.2,-153.8 41.2,-154.6 40.9,-153.5 40.7,-153.6 41,-154.4 34.3,-153.7 		"/>
		
			<linearGradient id="SVGID_6_" gradientUnits="userSpaceOnUse" x1="16224.8857" y1="-6458.6387" x2="17690.3496" y2="-6475.3291" gradientTransform="matrix(3.081906e-02 0 0 -3.081906e-02 -455.9411 -368.6607)">
			<stop  offset="0" style="stop-color:#F58634"/>
			<stop  offset="0.149" style="stop-color:#FAC21A"/>
			<stop  offset="0.6" style="stop-color:#FFFF00"/>
			<stop  offset="1" style="stop-color:#FFFFFF"/>
		</linearGradient>
		<path class="st8" d="M73.1-204.5c0,0-4.6,13.9,4.8,29.1c9.3,15.1,9.8,29.3,2.4,36.8c-1.7,1.7-3.5,3.2-5.2,4.5
			c2-5.2,3.2-11.2,3.2-16.2c0.1-7.4-3.6-14-8.8-19.1c-6.2-6.1-14.4-10.1-22.6-12.6c-1-0.3-2-0.7-2.9-1C51.6-191,62-198.5,73.1-204.5
			L73.1-204.5z"/>
	</g>
	<rect x="14" y="-220" class="st4" width="114" height="114"/>
</g>
<g>
	<g>
		
			<linearGradient id="SVGID_7_" gradientUnits="userSpaceOnUse" x1="20289.1992" y1="-6052.104" x2="22613.2578" y2="-6115.814" gradientTransform="matrix(3.081906e-02 0 0 -3.081906e-02 -455.9411 -368.6607)">
			<stop  offset="0" style="stop-color:#F58634"/>
			<stop  offset="0.149" style="stop-color:#FAC21A"/>
			<stop  offset="0.6" style="stop-color:#FFFF00"/>
			<stop  offset="1" style="stop-color:#00FFFF"/>
		</linearGradient>
		<path class="st9" d="M173.1-204.9c0,0,4.1,8.7,15.2,12.2c11.1,3.4,17.7,10.1,17.6,17c-0.1,6.9-3.3,12.2-3.3,12.2
			c0,0-0.1,0.1-0.1,0.1c-9.1-1.6-18.6-6.5-26.3-18c6.9,11.6,15.8,17.1,24.6,19.3c0.2,0,0.3,0.1,0.5,0.1l0,0
			c17.1,4.1,33.6-4.1,33.6-4.1c-12.1,7.3-49.3,12.1-60.3,0.7c-2.3-2.4-4-5.5-4.8-9.5C168.1-183.5,169.8-194.6,173.1-204.9
			L173.1-204.9z"/>
		<path class="st1" d="M214.8-160.2c0.3-0.1,0,0.1,0.2-0.3l-0.5,0.2C214.4-160.3,214.4-160.1,214.8-160.2L214.8-160.2z M221.9-172.2
			c-1.6,2-5.1,6.9-6.5,8.8c0,0,0.1,0,0.2,0.1c0.1-0.2,0.1-0.2,0.5-0.3c1,0.6-0.6,1-0.9,1.1c0.5,0.2,0.6,0,0.8,0.8
			c0.3,1.2,0.2,0.6,0.5,1.1l1.1-0.2c0.2-0.7,0.4-0.6,0.6-1.2c0,0-0.1,0-0.1,0l-0.4-0.7c0.3,0.1,0.3,0.2,0.6,0.3
			c-0.1-1.9,1.2-1.4,1.5-1.1c0.6,0.6,0.2,0.2,0.9,0.5c-0.1,0.9-0.5,0.4-0.9,0.9c0,0.5,0.2,0.4,0.2,0.9c0.3,0,0.6-0.1,0.9-0.1
			c-0.1,0-0.3,0.1-0.4,0.1c-3.3,0.8-9.9,1.2-9.9,1.2l-0.4-0.1c-0.4-2.2-1.7-2.9-0.6-6l-0.4-0.5l-0.8,0.1c0.1-0.1,0.1-0.1,0.2-0.2
			c0.6-0.6,0.4-0.2,0.4-1.3l1.3-0.5c0.9,0.7,0.3,0.5,1.2,0.6c0.1,0,0.4,0.1,0.5,0.1l-0.9,0.4c0.1,0.2,0.5,0.8,0.1,1.2l-0.3,0.2
			c0.1,0.7,0.3,0.7,0.7,1.3c0.3,0.5,0.3,1,0.6,1.4c0.5,0,1-0.1,1.5-0.2c1.2-0.3,0.8-0.2,1.3-0.5l0.6-0.3
			C216.8-166,220-170,221.9-172.2L221.9-172.2z M214.3-162.3l-0.3,0.5l0.9-0.4L214.3-162.3L214.3-162.3z M212.3-161.1
			c0.2-0.1,0.9-0.4,1.1-0.5c0.2-0.1,0.4-0.5,0.5-0.7l-1.6,0.7L212.3-161.1L212.3-161.1z"/>
		<path class="st2" d="M189.9-168.2l0.9,0.6l0.9-1.4l-0.9-0.6L189.9-168.2z M191.2-167.4l1.3,0.8l0.9-1.4l-1.3-0.8L191.2-167.4z
			 M193.5-168.4l0.2-0.3c0.3-0.5,0.1-1.2-0.4-1.5l-0.3-0.2l-0.8,1.2L193.5-168.4L193.5-168.4z M192.7-170.6l-0.1-0.1
			c-0.5-0.3-1-0.1-1.3,0.3l-0.3,0.4l0.9,0.6L192.7-170.6L192.7-170.6z"/>
		<polygon class="st2" points="187.7,-169.4 194.4,-172.7 194.5,-171.6 194.3,-171.5 194.3,-172.5 187.8,-169.3 		"/>
		<path class="st2" d="M183.8-172.6l0.4,0.3c0.1,0.1,0.2,0.2,0.3,0.3l0.9-0.9l-0.7-0.6C184.7-173.5,183.8-172.6,183.8-172.6z
			 M185.6-171l0.9-0.9l-0.9-0.9l-0.9,0.9C185-171.5,185.3-171.2,185.6-171z M186.6-172.1l0.2-0.2c0.4-0.4,0.3-0.9,0-1.3l-0.2-0.2
			l-0.8,0.9L186.6-172.1z M186.3-174L186.3-174c-0.4-0.4-0.9-0.4-1.2,0l-0.3,0.3l0.7,0.6L186.3-174L186.3-174z"/>
		<polygon class="st2" points="182.3,-174 188.1,-175.3 188,-174.4 187.8,-174.4 187.9,-175.2 182.4,-173.8 		"/>
		<path class="st2" d="M180.2-176.3l0.8-0.6l-0.4-0.5l-0.8,0.6C179.9-176.6,180-176.4,180.2-176.3z M180.9-175.4l0.7-0.6l-0.6-0.7
			l-0.8,0.6C180.5-175.8,180.7-175.6,180.9-175.4z M181.8-176.1l0.2-0.1c0.3-0.2,0.4-0.7,0.1-1l-0.1-0.2l-0.7,0.6L181.8-176.1
			L181.8-176.1z M181.8-177.5L181.8-177.5c-0.3-0.3-0.7-0.4-0.9-0.2l-0.2,0.2l0.4,0.5L181.8-177.5z"/>
		<polygon class="st2" points="178.7,-177.9 183.2,-178.4 183,-177.7 182.9,-177.8 183.1,-178.3 178.8,-177.8 		"/>
		
			<linearGradient id="SVGID_8_" gradientUnits="userSpaceOnUse" x1="20797.5566" y1="-5865.5981" x2="21723.1133" y2="-5876.1392" gradientTransform="matrix(3.081906e-02 0 0 -3.081906e-02 -455.9411 -368.6607)">
			<stop  offset="0" style="stop-color:#F58634"/>
			<stop  offset="0.149" style="stop-color:#FAC21A"/>
			<stop  offset="0.6" style="stop-color:#FFFF00"/>
			<stop  offset="1" style="stop-color:#FFFFFF"/>
		</linearGradient>
		<path class="st10" d="M203.4-209.9c0,0-2.9,8.8,3,18.4c5.9,9.6,6.2,18.5,1.5,23.3c-1.1,1.1-2.2,2-3.3,2.8c1.2-3.3,2-7.1,2-10.2
			c0.1-4.7-2.3-8.8-5.5-12c-3.9-3.8-9.1-6.4-14.3-8c-0.6-0.2-1.2-0.4-1.8-0.7C189.8-201.4,196.4-206.1,203.4-209.9L203.4-209.9z"/>
	</g>
	<rect x="166" y="-219.7" class="st4" width="72" height="72"/>
</g>
<g>
	<g>
		
			<linearGradient id="SVGID_9_" gradientUnits="userSpaceOnUse" x1="8919.626" y1="-13587.5986" x2="12018.3711" y2="-13672.5449" gradientTransform="matrix(3.081906e-02 0 0 -3.081906e-02 -455.9411 -368.6607)">
			<stop  offset="0" style="stop-color:#F58634"/>
			<stop  offset="0.149" style="stop-color:#FAC21A"/>
			<stop  offset="0.6" style="stop-color:#FFFF00"/>
			<stop  offset="1" style="stop-color:#00FFFF"/>
		</linearGradient>
		<path class="st11" d="M-176,19.8c0,0,5.5,11.7,20.3,16.2s23.6,13.5,23.4,22.7c-0.1,9.2-4.4,16.3-4.4,16.3c0,0-0.1,0.1-0.1,0.2
			c-12.2-2.1-24.8-8.7-35.1-24c9.2,15.5,21,22.8,32.8,25.8c0.2,0,0.4,0.1,0.7,0.1l0,0c22.8,5.5,44.8-5.5,44.8-5.5
			c-16.1,9.7-65.7,16.2-80.3,0.9c-3.1-3.2-5.4-7.3-6.4-12.6C-182.7,48.3-180.5,33.5-176,19.8L-176,19.8z"/>
		<path class="st1" d="M-120.4,79.3c0.4-0.2,0,0.1,0.2-0.3l-0.7,0.3C-120.9,79.2-121,79.5-120.4,79.3L-120.4,79.3z M-110.9,63.4
			c-2.1,2.6-6.8,9.2-8.7,11.7c0,0,0.2,0,0.3,0.1c0.1-0.2,0.1-0.3,0.6-0.4c1.4,0.8-0.8,1.4-1.2,1.5c0.7,0.2,0.7,0,1,1.1
			c0.4,1.6,0.3,0.8,0.7,1.5l1.4-0.2c0.2-0.9,0.5-0.8,0.7-1.6c0,0-0.1,0-0.1,0l-0.5-0.9c0.4,0.1,0.3,0.3,0.7,0.3
			c-0.1-2.6,1.6-1.9,2-1.5c0.7,0.8,0.3,0.3,1.1,0.7c-0.1,1.2-0.7,0.6-1.3,1.3c0,0.6,0.2,0.6,0.3,1.3c0.4,0,0.8-0.1,1.2-0.2
			c-0.2,0-0.3,0.1-0.6,0.2c-4.4,1.1-13.3,1.7-13.3,1.7l-0.5-0.1c-0.5-3-2.3-3.9-0.8-8l-0.6-0.7l-1.1,0.2c0.1-0.1,0.1-0.1,0.2-0.3
			c0.7-0.7,0.6-0.2,0.6-1.8l1.8-0.6c1.1,0.9,0.3,0.7,1.6,0.8c0.1,0,0.5,0.1,0.6,0.2l-1.2,0.5c0.1,0.2,0.7,1,0.1,1.7l-0.4,0.3
			c0.2,1,0.4,0.9,0.9,1.7c0.4,0.7,0.4,1.3,0.8,1.9c0.6,0,1.4-0.1,2-0.3c1.6-0.3,1-0.3,1.7-0.7l0.8-0.3
			C-117.7,71.6-113.5,66.2-110.9,63.4L-110.9,63.4z M-121.1,76.5l-0.3,0.6l1.1-0.5L-121.1,76.5L-121.1,76.5z M-123.8,78.1
			c0.3-0.1,1.3-0.5,1.4-0.7c0.2-0.2,0.5-0.7,0.7-0.9l-2.2,0.9L-123.8,78.1L-123.8,78.1z"/>
		<path class="st2" d="M-153.6,68.7l1.3,0.7l1.1-1.9l-1.3-0.7L-153.6,68.7z M-151.9,69.7l1.7,1l1.1-1.9l-1.7-1L-151.9,69.7z
			 M-148.8,68.5l0.2-0.4c0.4-0.7,0.2-1.7-0.5-2.1l-0.4-0.3l-1,1.7L-148.8,68.5L-148.8,68.5z M-150,65.5l-0.2-0.1
			c-0.6-0.3-1.4-0.2-1.7,0.4l-0.3,0.6l1.3,0.7L-150,65.5L-150,65.5z"/>
		<polygon class="st2" points="-156.6,67.1 -147.7,62.6 -147.5,64.2 -147.8,64.2 -147.8,63 -156.4,67.2 		"/>
		<path class="st2" d="M-161.8,62.8l0.5,0.4c0.1,0.1,0.3,0.2,0.4,0.3l1.2-1.3l-0.9-0.8C-160.6,61.6-161.8,62.8-161.8,62.8z
			 M-159.4,65l1.1-1.2l-1.1-1.1l-1.2,1.3C-160.2,64.3-159.8,64.6-159.4,65z M-158.1,63.5l0.3-0.3c0.5-0.5,0.4-1.3,0-1.7l-0.3-0.3
			l-1.1,1.1L-158.1,63.5z M-158.4,61L-158.4,61c-0.5-0.5-1.2-0.5-1.6,0l-0.4,0.4l0.9,0.8L-158.4,61L-158.4,61z"/>
		<polygon class="st2" points="-163.8,61 -156,59.2 -156.2,60.4 -156.4,60.4 -156.3,59.4 -163.7,61.2 		"/>
		<path class="st2" d="M-166.6,57.9l1-0.8l-0.6-0.7l-1,0.8C-167,57.5-166.9,57.7-166.6,57.9z M-165.6,59.1l1-0.7l-0.8-1l-1,0.8
			C-166.2,58.5-165.9,58.8-165.6,59.1z M-164.5,58.2l0.2-0.2c0.4-0.3,0.5-0.9,0.1-1.3l-0.2-0.2l-0.9,0.7L-164.5,58.2L-164.5,58.2z
			 M-164.5,56.2L-164.5,56.2c-0.3-0.4-0.9-0.5-1.2-0.2l-0.3,0.3l0.6,0.7L-164.5,56.2z"/>
		<polygon class="st2" points="-168.5,55.7 -162.6,55.1 -162.9,56 -163,55.9 -162.8,55.2 -168.4,55.9 		"/>
		
			<linearGradient id="SVGID_10_" gradientUnits="userSpaceOnUse" x1="9597.4355" y1="-13338.9238" x2="10831.5117" y2="-13352.9795" gradientTransform="matrix(3.081906e-02 0 0 -3.081906e-02 -455.9411 -368.6607)">
			<stop  offset="0" style="stop-color:#F58634"/>
			<stop  offset="0.149" style="stop-color:#FAC21A"/>
			<stop  offset="0.6" style="stop-color:#FFFF00"/>
			<stop  offset="1" style="stop-color:#FFFFFF"/>
		</linearGradient>
		<path class="st12" d="M-135.7,13.1c0,0-3.8,11.7,4,24.5s8.3,24.7,2,31c-1.4,1.4-2.9,2.7-4.4,3.8c1.7-4.4,2.7-9.4,2.7-13.6
			c0.1-6.2-3-11.8-7.4-16.1c-5.2-5.1-12.1-8.5-19-10.6c-0.8-0.3-1.7-0.6-2.4-0.9C-153.8,24.4-145,18.1-135.7,13.1L-135.7,13.1z"/>
	</g>
	<rect x="-185.5" class="st4" width="96" height="96"/>
</g>
<g>
	<g>
		
			<linearGradient id="SVGID_11_" gradientUnits="userSpaceOnUse" x1="12716.9863" y1="-12503.9336" x2="13749.9014" y2="-12532.249" gradientTransform="matrix(3.081906e-02 0 0 -3.081906e-02 -455.9411 -368.6607)">
			<stop  offset="0" style="stop-color:#F58634"/>
			<stop  offset="0.149" style="stop-color:#FAC21A"/>
			<stop  offset="0.6" style="stop-color:#FFFF00"/>
			<stop  offset="1" style="stop-color:#00FFFF"/>
		</linearGradient>
		<path class="st13" d="M-62.3,6.6c0,0,1.8,3.9,6.8,5.4s7.9,4.5,7.8,7.6c0,3.1-1.5,5.4-1.5,5.4c0,0,0,0,0,0.1
			c-4.1-0.7-8.3-2.9-11.7-8c3.1,5.2,7,7.6,10.9,8.6c0.1,0,0.1,0,0.2,0l0,0c7.6,1.8,14.9-1.8,14.9-1.8c-5.4,3.2-21.9,5.4-26.8,0.3
			c-1-1.1-1.8-2.4-2.1-4.2C-64.6,16.1-63.8,11.2-62.3,6.6L-62.3,6.6z"/>
		<path class="st1" d="M-43.8,26.4c0.1-0.1,0,0,0.1-0.1l-0.2,0.1C-44,26.4-44,26.5-43.8,26.4L-43.8,26.4z M-40.6,21.1
			c-0.7,0.9-2.3,3.1-2.9,3.9c0,0,0.1,0,0.1,0c0-0.1,0-0.1,0.2-0.1c0.5,0.3-0.3,0.5-0.4,0.5c0.2,0.1,0.2,0,0.3,0.4
			c0.1,0.5,0.1,0.3,0.2,0.5l0.5-0.1c0.1-0.3,0.2-0.3,0.2-0.5c0,0,0,0,0,0l-0.2-0.3c0.1,0,0.1,0.1,0.2,0.1c0-0.9,0.5-0.6,0.7-0.5
			c0.2,0.3,0.1,0.1,0.4,0.2c0,0.4-0.2,0.2-0.4,0.4c0,0.2,0.1,0.2,0.1,0.4c0.1,0,0.3,0,0.4-0.1c-0.1,0-0.1,0-0.2,0.1
			c-1.5,0.4-4.4,0.6-4.4,0.6l-0.2,0c-0.2-1-0.8-1.3-0.3-2.7l-0.2-0.2l-0.4,0.1c0,0,0,0,0.1-0.1c0.2-0.2,0.2-0.1,0.2-0.6l0.6-0.2
			c0.4,0.3,0.1,0.2,0.5,0.3c0,0,0.2,0,0.2,0.1l-0.4,0.2c0,0.1,0.2,0.3,0,0.6l-0.1,0.1c0.1,0.3,0.1,0.3,0.3,0.6
			c0.1,0.2,0.1,0.4,0.3,0.6c0.2,0,0.5,0,0.7-0.1c0.5-0.1,0.3-0.1,0.6-0.2l0.3-0.1C-42.9,23.9-41.5,22.1-40.6,21.1L-40.6,21.1z
			 M-44,25.5l-0.1,0.2l0.4-0.2L-44,25.5L-44,25.5z M-44.9,26c0.1,0,0.4-0.2,0.5-0.2c0.1-0.1,0.2-0.2,0.2-0.3l-0.7,0.3L-44.9,26
			L-44.9,26z"/>
		<path class="st2" d="M-54.9,22.9l0.4,0.2l0.4-0.6l-0.4-0.2L-54.9,22.9z M-54.3,23.2l0.6,0.3l0.4-0.6l-0.6-0.3L-54.3,23.2z
			 M-53.3,22.8l0.1-0.1c0.1-0.2,0.1-0.6-0.2-0.7l-0.1-0.1l-0.3,0.6L-53.3,22.8L-53.3,22.8z M-53.7,21.8L-53.7,21.8
			c-0.3-0.1-0.5-0.1-0.6,0.1l-0.1,0.2l0.4,0.2L-53.7,21.8L-53.7,21.8z"/>
		<polygon class="st2" points="-55.9,22.4 -52.9,20.9 -52.8,21.4 -52.9,21.4 -52.9,21 -55.8,22.4 		"/>
		<path class="st2" d="M-57.6,20.9l0.2,0.1c0,0,0.1,0.1,0.1,0.1l0.4-0.4l-0.3-0.3C-57.2,20.5-57.6,20.9-57.6,20.9z M-56.8,21.7
			l0.4-0.4l-0.4-0.4l-0.4,0.4C-57.1,21.4-56.9,21.5-56.8,21.7z M-56.4,21.2L-56.4,21.2c0.2-0.2,0.2-0.5,0.1-0.7l-0.1-0.1l-0.4,0.4
			L-56.4,21.2z M-56.5,20.3L-56.5,20.3c-0.2-0.2-0.4-0.2-0.5,0l-0.1,0.1l0.3,0.3L-56.5,20.3L-56.5,20.3z"/>
		<polygon class="st2" points="-58.3,20.3 -55.7,19.7 -55.7,20.1 -55.8,20.1 -55.8,19.8 -58.2,20.4 		"/>
		<path class="st2" d="M-59.2,19.3l0.3-0.3l-0.2-0.2l-0.3,0.3C-59.3,19.2-59.3,19.2-59.2,19.3z M-58.9,19.7l0.3-0.2l-0.3-0.3
			l-0.3,0.3C-59.1,19.5-59,19.6-58.9,19.7z M-58.5,19.4L-58.5,19.4c0.2-0.2,0.2-0.4,0.1-0.5l-0.1-0.1l-0.3,0.2L-58.5,19.4
			L-58.5,19.4z M-58.5,18.7L-58.5,18.7c-0.1-0.1-0.3-0.2-0.4-0.1l-0.1,0.1l0.2,0.2L-58.5,18.7z"/>
		<polygon class="st2" points="-59.8,18.6 -57.9,18.4 -58,18.7 -58,18.6 -57.9,18.4 -59.8,18.6 		"/>
		
			<linearGradient id="SVGID_12_" gradientUnits="userSpaceOnUse" x1="12942.9229" y1="-12421.042" x2="13354.2813" y2="-12425.7275" gradientTransform="matrix(3.081906e-02 0 0 -3.081906e-02 -455.9411 -368.6607)">
			<stop  offset="0" style="stop-color:#F58634"/>
			<stop  offset="0.149" style="stop-color:#FAC21A"/>
			<stop  offset="0.6" style="stop-color:#FFFF00"/>
			<stop  offset="1" style="stop-color:#FFFFFF"/>
		</linearGradient>
		<path class="st14" d="M-48.9,4.4c0,0-1.3,3.9,1.3,8.2c2.6,4.2,2.8,8.2,0.7,10.3c-0.5,0.5-1,0.9-1.5,1.3c0.6-1.5,0.9-3.1,0.9-4.5
			c0-2.1-1-3.9-2.5-5.4c-1.7-1.7-4-2.8-6.3-3.5c-0.3-0.1-0.6-0.2-0.8-0.3C-54.9,8.1-52,6-48.9,4.4L-48.9,4.4z"/>
	</g>
	<rect x="-65.5" class="st4" width="32" height="32"/>
</g>
<g>
	<g>
		
			<linearGradient id="SVGID_13_" gradientUnits="userSpaceOnUse" x1="14818.2109" y1="-12233.0176" x2="15334.6689" y2="-12247.1748" gradientTransform="matrix(3.081906e-02 0 0 -3.081906e-02 -455.9411 -368.6607)">
			<stop  offset="0" style="stop-color:#F58634"/>
			<stop  offset="0.149" style="stop-color:#FAC21A"/>
			<stop  offset="0.6" style="stop-color:#FFFF00"/>
			<stop  offset="1" style="stop-color:#00FFFF"/>
		</linearGradient>
		<path class="st15" d="M1.6,3.3c0,0,0.9,1.9,3.4,2.7s3.9,2.3,3.9,3.8s-0.7,2.7-0.7,2.7c0,0,0,0,0,0c-2-0.3-4.1-1.4-5.9-4
			c1.5,2.6,3.5,3.8,5.5,4.3c0,0,0.1,0,0.1,0l0,0c3.8,0.9,7.5-0.9,7.5-0.9c-2.7,1.6-10.9,2.7-13.4,0.1C1.4,11.5,1,10.9,0.9,10
			C0.5,8.1,0.8,5.6,1.6,3.3L1.6,3.3z"/>
		<path class="st1" d="M10.8,13.2C10.9,13.2,10.9,13.2,10.8,13.2L10.8,13.2C10.8,13.2,10.8,13.2,10.8,13.2L10.8,13.2z M12.4,10.6
			c-0.3,0.4-1.1,1.5-1.4,2c0,0,0,0,0.1,0c0,0,0,0,0.1-0.1c0.2,0.1-0.1,0.2-0.2,0.3c0.1,0,0.1,0,0.2,0.2c0.1,0.3,0,0.1,0.1,0.2l0.2,0
			c0-0.2,0.1-0.1,0.1-0.3c0,0,0,0,0,0l-0.1-0.1c0.1,0,0.1,0,0.1,0.1c0-0.4,0.3-0.3,0.3-0.3c0.1,0.1,0,0,0.2,0.1
			c0,0.2-0.1,0.1-0.2,0.2c0,0.1,0,0.1,0,0.2c0.1,0,0.1,0,0.2,0c0,0-0.1,0-0.1,0c-0.7,0.2-2.2,0.3-2.2,0.3l-0.1,0
			c-0.1-0.5-0.4-0.7-0.1-1.3l-0.1-0.1l-0.2,0c0,0,0,0,0,0c0.1-0.1,0.1,0,0.1-0.3l0.3-0.1c0.2,0.2,0.1,0.1,0.3,0.1c0,0,0.1,0,0.1,0
			l-0.2,0.1c0,0,0.1,0.2,0,0.3l-0.1,0c0,0.2,0.1,0.2,0.2,0.3c0.1,0.1,0.1,0.2,0.1,0.3c0.1,0,0.2,0,0.3,0c0.3-0.1,0.2-0.1,0.3-0.1
			l0.1-0.1C11.3,11.9,12,11,12.4,10.6L12.4,10.6z M10.7,12.7l-0.1,0.1l0.2-0.1L10.7,12.7L10.7,12.7z M10.3,13c0.1,0,0.2-0.1,0.2-0.1
			c0,0,0.1-0.1,0.1-0.1l-0.4,0.1L10.3,13L10.3,13z"/>
		<path class="st2" d="M5.3,11.4l0.2,0.1l0.2-0.3l-0.2-0.1L5.3,11.4z M5.6,11.6l0.3,0.2l0.2-0.3l-0.3-0.2L5.6,11.6z M6.1,11.4
			L6.1,11.4c0.1-0.2,0.1-0.3-0.1-0.4L6,11l-0.2,0.3L6.1,11.4L6.1,11.4z M5.9,10.9L5.9,10.9c-0.1-0.1-0.3,0-0.3,0.1l-0.1,0.1l0.2,0.1
			L5.9,10.9L5.9,10.9z"/>
		<polygon class="st2" points="4.8,11.2 6.3,10.4 6.3,10.7 6.3,10.7 6.3,10.5 4.9,11.2 		"/>
		<path class="st2" d="M3.9,10.5L3.9,10.5c0.1,0.1,0.1,0.1,0.1,0.1l0.2-0.2l-0.1-0.1C4.2,10.3,3.9,10.5,3.9,10.5z M4.3,10.8l0.2-0.2
			l-0.2-0.2l-0.2,0.2C4.2,10.7,4.3,10.8,4.3,10.8z M4.6,10.6L4.6,10.6c0.1-0.1,0.1-0.3,0-0.3l0,0l-0.2,0.2L4.6,10.6z M4.5,10.2
			L4.5,10.2c-0.1-0.1-0.2-0.1-0.3,0l-0.1,0.1l0.1,0.1L4.5,10.2L4.5,10.2z"/>
		<polygon class="st2" points="3.6,10.2 4.9,9.9 4.9,10.1 4.9,10.1 4.9,9.9 3.6,10.2 		"/>
		<path class="st2" d="M3.1,9.7l0.2-0.1L3.2,9.4L3,9.5C3.1,9.6,3.1,9.6,3.1,9.7z M3.3,9.9l0.2-0.1L3.3,9.6L3.2,9.7
			C3.2,9.8,3.3,9.8,3.3,9.9z M3.5,9.7L3.5,9.7c0.1-0.1,0.1-0.2,0.1-0.2l0,0L3.4,9.5L3.5,9.7L3.5,9.7z M3.5,9.4L3.5,9.4
			c-0.1-0.1-0.1-0.1-0.2,0l-0.1,0l0.1,0.1L3.5,9.4z"/>
		<polygon class="st2" points="2.8,9.3 3.8,9.2 3.8,9.3 3.8,9.3 3.8,9.2 2.8,9.3 		"/>
		
			<linearGradient id="SVGID_14_" gradientUnits="userSpaceOnUse" x1="14931.1797" y1="-12191.5713" x2="15136.8584" y2="-12193.9141" gradientTransform="matrix(3.081906e-02 0 0 -3.081906e-02 -455.9411 -368.6607)">
			<stop  offset="0" style="stop-color:#F58634"/>
			<stop  offset="0.149" style="stop-color:#FAC21A"/>
			<stop  offset="0.6" style="stop-color:#FFFF00"/>
			<stop  offset="1" style="stop-color:#FFFFFF"/>
		</linearGradient>
		<path class="st16" d="M8.3,2.2c0,0-0.6,2,0.7,4.1c1.3,2.1,1.4,4.1,0.3,5.2c-0.2,0.2-0.5,0.5-0.7,0.6C8.8,11.3,9,10.5,9,9.8
			c0-1-0.5-2-1.2-2.7c-0.9-0.9-2-1.4-3.2-1.8c-0.1,0-0.3-0.1-0.4-0.1C5.3,4.1,6.7,3,8.3,2.2L8.3,2.2z"/>
	</g>
	<rect class="st4" width="16" height="16"/>
</g>
</svg>
